<?xml version="1.0" encoding="iso-8859-1"?>
<!-- Generator: Adobe Illustrator 26.0.1, SVG Export Plug-In . SVG Version: 6.00 Build 0)  -->
<svg version="1.1" id="Layer_1" xmlns="http://www.w3.org/2000/svg" xmlns:xlink="http://www.w3.org/1999/xlink" x="0px" y="0px"
	 viewBox="0 0 1000 1000" style="enable-background:new 0 0 1000 1000;" xml:space="preserve">
<g id="watermark_1_">
	<g>
		<g id="watermark" style="opacity:0.61;">
			<g>
				<g>
					<g>
						<g>
							<polygon style="fill:#FFFFFF;" points="421.112,924.528 409.007,952.493 402.615,952.493 390.55,924.528 397.541,924.528 
								406.051,944.503 414.68,924.528 							"/>
						</g>
						<g>
							<path style="fill:#FFFFFF;" d="M442.323,943.185h-16.26c0.599,2.677,2.876,4.315,6.153,4.315
								c2.277,0,3.915-0.679,5.393-2.077l3.316,3.595c-1.997,2.278-4.994,3.476-8.868,3.476c-7.431,0-12.265-4.674-12.265-11.067
								c0-6.432,4.914-11.066,11.466-11.066c6.312,0,11.186,4.235,11.186,11.146C442.443,941.987,442.363,942.666,442.323,943.185
								 M425.983,939.55h10.587c-0.44-2.717-2.478-4.475-5.274-4.475C428.46,935.075,426.422,936.793,425.983,939.55"/>
						</g>
						<g>
							<path style="fill:#FFFFFF;" d="M444.997,941.427c0-6.471,4.994-11.066,11.985-11.066c4.514,0,8.07,1.958,9.628,5.473
								l-4.834,2.597c-1.159-2.038-2.877-2.956-4.834-2.956c-3.156,0-5.633,2.198-5.633,5.952c0,3.756,2.477,5.953,5.633,5.953
								c1.958,0,3.675-0.879,4.834-2.956l4.834,2.637c-1.558,3.436-5.114,5.433-9.628,5.433
								C449.991,952.493,444.997,947.899,444.997,941.427"/>
						</g>
						<g>
							<path style="fill:#FFFFFF;" d="M484.386,951.135c-1.279,0.919-3.157,1.358-5.074,1.358c-5.073,0-8.03-2.597-8.03-7.711
								v-8.829h-3.316v-4.794h3.316v-5.233h6.232v5.233h5.353v4.794h-5.353v8.749c0,1.837,0.998,2.836,2.677,2.836
								c0.918,0,1.837-0.279,2.517-0.799L484.386,951.135z"/>
						</g>
					</g>
					<g>
						<path style="fill:#FFFFFF;" d="M527.157,930.68v5.753c-0.519-0.04-0.918-0.08-1.398-0.08c-3.435,0-5.713,1.877-5.713,5.993
							v10.147h-6.232V931h5.953v2.836C521.284,931.759,523.841,930.68,527.157,930.68"/>
					</g>
					<g>
						<path style="fill:#FFFFFF;" d="M528.954,949.257l2.197-4.874c2.357,1.718,5.873,2.916,9.229,2.916
							c3.836,0,5.393-1.278,5.393-2.996c0-5.233-16.26-1.638-16.26-12.025c0-4.754,3.835-8.709,11.785-8.709
							c3.516,0,7.112,0.839,9.708,2.477l-1.998,4.914c-2.597-1.478-5.273-2.197-7.75-2.197c-3.835,0-5.313,1.438-5.313,3.196
							c0,5.154,16.259,1.598,16.259,11.865c0,4.675-3.875,8.67-11.865,8.67C535.905,952.493,531.43,951.175,528.954,949.257"/>
					</g>
					<g>
						<path style="fill:#FFFFFF;" d="M577.131,943.185h-16.26c0.599,2.677,2.876,4.315,6.153,4.315c2.277,0,3.915-0.679,5.393-2.077
							l3.316,3.595c-1.998,2.278-4.994,3.476-8.869,3.476c-7.431,0-12.265-4.674-12.265-11.067c0-6.432,4.914-11.066,11.466-11.066
							c6.312,0,11.187,4.235,11.187,11.146C577.251,941.987,577.171,942.666,577.131,943.185 M560.791,939.55h10.587
							c-0.439-2.717-2.477-4.475-5.273-4.475C563.268,935.075,561.231,936.793,560.791,939.55"/>
					</g>
					<g>
						<path style="fill:#FFFFFF;" d="M602.337,943.185h-16.26c0.599,2.677,2.876,4.315,6.152,4.315c2.277,0,3.915-0.679,5.393-2.077
							l3.316,3.595c-1.998,2.278-4.994,3.476-8.869,3.476c-7.431,0-12.265-4.674-12.265-11.067c0-6.432,4.914-11.066,11.466-11.066
							c6.312,0,11.186,4.235,11.186,11.146C602.457,941.987,602.377,942.666,602.337,943.185 M585.997,939.55h10.587
							c-0.439-2.717-2.477-4.475-5.273-4.475C588.474,935.075,586.437,936.793,585.997,939.55"/>
					</g>
					<g>
						<polygon style="fill:#FFFFFF;" points="615.838,944.064 612.841,947.02 612.841,952.493 606.61,952.493 606.61,922.85 
							612.841,922.85 612.841,939.629 621.95,931 629.381,931 620.432,940.108 630.18,952.493 622.63,952.493 						"/>
					</g>
					<g>
						<path style="fill:#FFFFFF;" d="M514.371,955.416L514.371,955.416l-6.226-6.226c-0.947,1.107-2.075,2.054-3.339,2.796
							c-0.201,0.15-0.406,0.296-0.616,0.433l6.589,6.589c0.992,0.992,2.601,0.992,3.592,0
							C515.363,958.017,515.363,956.408,514.371,955.416"/>
					</g>
					<g>
						<path style="fill:#FFFFFF;" d="M499.965,929.04c0.48-0.377,1.077-0.612,1.735-0.612c0.091,0,0.181,0.005,0.27,0.013
							c-0.466-0.34-1.041-0.542-1.663-0.542c-0.859,0-1.619,0.392-2.137,0.998c-0.111,0-0.218,0.013-0.328,0.016
							c0.086-0.167,0.139-0.354,0.139-0.555c0-0.509-0.311-0.945-0.752-1.13c0.19,0.275,0.301,0.608,0.301,0.968
							c0,0.267-0.066,0.517-0.176,0.742c-6.119,0.437-10.95,5.527-10.95,11.757c0,6.516,5.283,11.799,11.799,11.799
							c6.517,0,11.8-5.283,11.8-11.799C510.004,934.777,505.644,929.892,499.965,929.04 M495.61,932.114
							c0.947,0,1.837,0.244,2.611,0.674c0.813-0.532,1.785-0.842,2.828-0.842c1.547,0,2.934,0.68,3.883,1.756
							c-0.948-0.826-2.186-1.328-3.541-1.328c-0.977,0-1.895,0.261-2.686,0.716c-0.172,0.1-0.34,0.208-0.499,0.326
							c-0.142-0.104-0.29-0.203-0.444-0.292c-0.803-0.476-1.741-0.749-2.743-0.749c-0.653,0-1.279,0.117-1.86,0.331
							C493.895,932.328,494.727,932.114,495.61,932.114 M503.858,941.785c0.25,0.664,0.394,1.38,0.394,2.131
							c0,3.34-2.707,6.047-6.047,6.047c-3.339,0-6.047-2.707-6.047-6.047c0-0.751,0.143-1.467,0.394-2.131
							c-1.35-0.831-2.253-2.317-2.253-4.019c0-2.607,2.114-4.72,4.72-4.72c1.23,0,2.346,0.474,3.186,1.244
							c0.84-0.77,1.956-1.244,3.186-1.244c2.607,0,4.72,2.113,4.72,4.72C506.111,939.467,505.208,940.954,503.858,941.785"/>
					</g>
					<g>
						<path style="fill:#FFFFFF;" d="M503.627,937.351c0,1.082-0.879,1.961-1.961,1.961c-1.082,0-1.961-0.879-1.961-1.961
							s0.879-1.961,1.961-1.961c0.22,0,0.428,0.037,0.625,0.102c-0.065,0.135-0.099,0.287-0.099,0.445
							c0,0.595,0.482,1.076,1.077,1.076c0.11,0,0.217-0.017,0.318-0.048C503.613,937.089,503.627,937.218,503.627,937.351"/>
					</g>
					<g>
						<path style="fill:#FFFFFF;" d="M496.201,937.351c0,0.818-0.665,1.482-1.483,1.482c-0.818,0-1.483-0.664-1.483-1.482
							s0.665-1.483,1.483-1.483c0.166,0,0.324,0.027,0.473,0.077c-0.049,0.102-0.075,0.217-0.075,0.337
							c0,0.449,0.364,0.814,0.814,0.814c0.083,0,0.164-0.013,0.241-0.036C496.191,937.153,496.201,937.251,496.201,937.351"/>
					</g>
					<g>
						<g>
							<g>
								<rect x="484.56" y="939.024" style="fill:#FFFFFF;" width="1.34" height="1.34"/>
							</g>
							<g>
								<rect x="510.51" y="939.024" style="fill:#FFFFFF;" width="1.34" height="1.34"/>
							</g>
							<g>
								<path style="fill:#FFFFFF;" d="M511.332,939.572h-0.304c0-7.07-5.752-12.823-12.823-12.823
									c-7.07,0-12.823,5.753-12.823,12.823h-0.305c0-3.506,1.365-6.803,3.845-9.282c2.479-2.48,5.776-3.845,9.282-3.845
									c3.507,0,6.803,1.365,9.283,3.845C509.966,932.769,511.332,936.065,511.332,939.572"/>
							</g>
						</g>
						<g>
							<rect x="497.534" y="925.927" style="fill:#FFFFFF;" width="1.34" height="1.34"/>
						</g>
						<g>
							<rect x="489.006" y="926.445" style="fill:#FFFFFF;" width="18.397" height="0.304"/>
						</g>
						<g>
							<path style="fill:#FFFFFF;" d="M489.494,926.658c0,0.235-0.191,0.427-0.427,0.427c-0.235,0-0.426-0.191-0.426-0.427
								s0.191-0.427,0.426-0.427C489.303,926.231,489.494,926.422,489.494,926.658"/>
						</g>
						<g>
							<path style="fill:#FFFFFF;" d="M507.829,926.658c0,0.235-0.191,0.427-0.427,0.427c-0.235,0-0.426-0.191-0.426-0.427
								s0.191-0.427,0.426-0.427C507.639,926.231,507.829,926.422,507.829,926.658"/>
						</g>
					</g>
				</g>
				<g>
					<path style="fill:#FFFFFF;" d="M640.109,951.171c0,3.395-5.146,3.395-5.146,0C634.963,947.779,640.109,947.779,640.109,951.171
						z"/>
				</g>
				<g>
					<g>
						<g>
							<path style="fill:#FFFFFF;" d="M307.849,936.236l3.859,13.253l4.038-13.253h4.823l-6.145,17.721h-5.073l-1.822-5.216
								l-1.572-5.896l-1.571,5.896l-1.822,5.216h-5.073l-6.18-17.721h4.858l4.038,13.253l3.822-13.253H307.849z"/>
						</g>
						<g>
							<path style="fill:#FFFFFF;" d="M340.449,936.236l3.859,13.253l4.038-13.253h4.823l-6.145,17.721h-5.073l-1.822-5.216
								l-1.571-5.896l-1.572,5.896l-1.822,5.216h-5.073l-6.18-17.721h4.858l4.038,13.253l3.822-13.253H340.449z"/>
						</g>
						<g>
							<path style="fill:#FFFFFF;" d="M373.048,936.236l3.859,13.253l4.038-13.253h4.823l-6.145,17.721h-5.073l-1.822-5.216
								l-1.572-5.896l-1.571,5.896l-1.822,5.216h-5.073l-6.18-17.721h4.858l4.038,13.253l3.822-13.253H373.048z"/>
						</g>
					</g>
					<g>
						<path style="fill:#FFFFFF;" d="M393.123,951.412c0,3.395-5.146,3.395-5.146,0C387.977,948.02,393.123,948.02,393.123,951.412z
							"/>
					</g>
					<g>
						<path style="fill:#FFFFFF;" d="M658.296,951.171c-2.036,2.001-4.177,2.787-6.787,2.787c-5.108,0-9.361-3.072-9.361-9.323
							c0-6.251,4.253-9.326,9.361-9.326c2.502,0,4.43,0.716,6.359,2.609l-2.752,2.894c-1.036-0.931-2.321-1.393-3.534-1.393
							c-2.929,0-5.073,2.144-5.073,5.216c0,3.357,2.286,5.143,5,5.143c1.393,0,2.787-0.393,3.857-1.463L658.296,951.171z"/>
					</g>
					<g>
						<path style="fill:#FFFFFF;" d="M678.097,944.777c0,5.073-3.465,9.181-9.181,9.181c-5.716,0-9.146-4.107-9.146-9.181
							c0-5.038,3.502-9.181,9.111-9.181S678.097,939.739,678.097,944.777z M664.128,944.777c0,2.679,1.609,5.181,4.788,5.181
							c3.179,0,4.788-2.502,4.788-5.181c0-2.644-1.859-5.216-4.788-5.216C665.772,939.561,664.128,942.133,664.128,944.777z"/>
					</g>
					<g>
						<path style="fill:#FFFFFF;" d="M692.828,953.958v-9.431c0-2.324-1.216-4.43-3.61-4.43c-2.356,0-3.75,2.106-3.75,4.43v9.431
							h-4.36v-17.649h4.038l0.323,2.144c0.928-1.786,2.964-2.429,4.643-2.429c2.109,0,4.218,0.858,5.216,3.287
							c1.574-2.502,3.61-3.217,5.896-3.217c5,0,7.467,3.075,7.467,8.36v9.504h-4.361v-9.504c0-2.321-0.963-4.288-3.322-4.288
							c-2.356,0-3.822,2.036-3.822,4.36v9.431H692.828z"/>
					</g>
				</g>
			</g>
		</g>
		<g style="opacity:0.61;">
			<g>
				<g>
					<path style="fill:#FFFFFF;" d="M708.973,859.493c-0.013-2.665-2.087-4.618-4.766-4.659c-2.011-0.031-1.81,0.261-1.815-1.887
						c-0.006-2.389-0.015-4.778,0.006-7.166c0.007-0.824-0.243-1.505-0.787-2.125c-5.098-5.81-10.184-11.63-15.281-17.441
						c-0.262-0.299-0.599-0.532-0.901-0.796c-13.528,0-27.055,0-40.583,0c-1.729,0.639-2.482,1.889-2.478,3.72
						c0.021,8.159,0.009,16.318,0.008,24.478c0,1.21-0.007,1.281-1.197,1.201c-3.258-0.221-5.477,2.147-5.436,5.426
						c0.096,7.568,0.028,15.137,0.031,22.706c0.001,3.44,1.887,5.32,5.333,5.331c1.267,0.004,1.268,0.004,1.268,1.306
						c0.001,4.831-0.002,9.662,0.002,14.493c0.002,2.595,1.262,3.855,3.85,3.855c17.446,0.001,34.891,0.001,52.337,0
						c2.543,0,3.822-1.268,3.824-3.799c0.005-4.912,0.001-9.823,0.003-14.735c0-1.115,0.005-1.112,1.131-1.121
						c0.589-0.005,1.177,0.017,1.761-0.127c2.169-0.535,3.68-2.273,3.689-4.503C709.007,875.597,709.011,867.545,708.973,859.493z
						 M647.034,828.716c11.619-0.001,23.237-0.001,34.856,0c1.193,0,1.206,0.015,1.207,1.222c0.001,4.884-0.002,9.767,0.002,14.651
						c0.001,1.765,0.543,2.305,2.307,2.306c4.159,0.003,8.318,0,12.477,0.003c0.997,0.001,1.044,0.046,1.046,1.052
						c0.006,1.932,0.005,3.864,0,5.796c-0.003,1.038-0.051,1.085-1.098,1.085c-8.479,0.002-16.958,0.001-25.438,0.001
						c-8.452,0-16.905,0-25.357,0c-1.198,0-1.202-0.003-1.202-1.221c-0.001-7.889-0.001-15.778,0-23.667
						C645.835,828.724,645.844,828.716,647.034,828.716z M697.728,903.645c-8.454,0.001-16.908,0.001-25.362,0.001
						c-8.427,0-16.854,0.001-25.281,0c-1.245,0-1.249-0.003-1.249-1.262c-0.001-4.348-0.003-8.696,0.001-13.043
						c0.001-1.01,0.051-1.059,1.041-1.059c16.989-0.002,33.977-0.002,50.966,0c1.041,0,1.086,0.044,1.087,1.094
						c0.003,4.348,0.003,8.696,0.001,13.043C698.931,903.634,698.92,903.645,697.728,903.645z"/>
				</g>
				<g>
					<g>
						<rect x="668.546" y="828.478" style="fill:#FFFFFF;" width="3.825" height="2.295"/>
					</g>
					<g>
						<rect x="664.722" y="830.773" style="fill:#FFFFFF;" width="3.825" height="2.295"/>
					</g>
					<g>
						<rect x="668.546" y="833.068" style="fill:#FFFFFF;" width="3.825" height="2.295"/>
					</g>
					<g>
						<rect x="664.722" y="835.363" style="fill:#FFFFFF;" width="3.825" height="2.295"/>
					</g>
					<g>
						<rect x="668.546" y="837.658" style="fill:#FFFFFF;" width="3.825" height="2.295"/>
					</g>
					<g>
						<rect x="664.722" y="839.953" style="fill:#FFFFFF;" width="3.825" height="2.295"/>
					</g>
					<g>
						<rect x="668.546" y="842.247" style="fill:#FFFFFF;" width="3.825" height="2.295"/>
					</g>
					<g>
						<rect x="664.722" y="844.542" style="fill:#FFFFFF;" width="3.825" height="2.295"/>
					</g>
					<g>
						<rect x="668.546" y="846.837" style="fill:#FFFFFF;" width="3.825" height="2.295"/>
					</g>
					<g>
						<rect x="664.722" y="849.132" style="fill:#FFFFFF;" width="3.825" height="2.295"/>
					</g>
					<g>
						<rect x="668.546" y="851.427" style="fill:#FFFFFF;" width="3.825" height="2.295"/>
					</g>
					<g>
						<rect x="664.722" y="853.722" style="fill:#FFFFFF;" width="3.825" height="2.295"/>
					</g>
				</g>
			</g>
			<g>
				<path style="fill:#FFFFFF;" d="M364.231,859.493c-0.013-2.665-2.087-4.618-4.766-4.659c-2.011-0.031-1.81,0.261-1.815-1.887
					c-0.006-2.389-0.015-4.778,0.006-7.166c0.007-0.824-0.243-1.505-0.787-2.125c-5.098-5.81-10.184-11.63-15.281-17.441
					c-0.262-0.299-0.599-0.532-0.901-0.796c-13.528,0-27.055,0-40.583,0c-1.729,0.639-2.482,1.889-2.478,3.72
					c0.021,8.159,0.009,16.318,0.008,24.478c0,1.21-0.007,1.281-1.197,1.201c-3.258-0.221-5.477,2.147-5.436,5.426
					c0.096,7.568,0.028,15.137,0.031,22.706c0.001,3.44,1.887,5.32,5.333,5.331c1.267,0.004,1.268,0.004,1.268,1.306
					c0.001,4.831-0.002,9.662,0.002,14.493c0.002,2.595,1.262,3.855,3.85,3.855c17.446,0.001,34.891,0.001,52.337,0
					c2.543,0,3.822-1.268,3.824-3.799c0.005-4.912,0.001-9.823,0.003-14.735c0-1.115,0.004-1.112,1.131-1.121
					c0.589-0.005,1.177,0.017,1.761-0.127c2.169-0.535,3.68-2.273,3.689-4.503C364.264,875.597,364.269,867.545,364.231,859.493z
					 M302.292,828.716c11.619-0.001,23.237-0.001,34.856,0c1.192,0,1.206,0.015,1.207,1.222c0.001,4.884-0.001,9.767,0.002,14.651
					c0.001,1.765,0.543,2.305,2.307,2.306c4.159,0.003,8.318,0,12.477,0.003c0.997,0.001,1.044,0.046,1.046,1.052
					c0.006,1.932,0.005,3.864,0,5.796c-0.003,1.038-0.051,1.085-1.098,1.085c-8.479,0.002-16.958,0.001-25.438,0.001
					c-8.452,0-16.905,0-25.357,0c-1.198,0-1.202-0.003-1.202-1.221c-0.001-7.889-0.001-15.778,0-23.667
					C301.093,828.724,301.102,828.716,302.292,828.716z M352.985,903.645c-8.454,0.001-16.908,0.001-25.362,0.001
					c-8.427,0-16.854,0.001-25.281,0c-1.245,0-1.249-0.003-1.249-1.262c-0.001-4.348-0.003-8.696,0.001-13.043
					c0.001-1.01,0.051-1.059,1.041-1.059c16.989-0.002,33.977-0.002,50.966,0c1.041,0,1.086,0.044,1.087,1.094
					c0.003,4.348,0.003,8.696,0.001,13.043C354.188,903.634,354.177,903.645,352.985,903.645z"/>
			</g>
			<g>
				<path style="fill:#FFFFFF;" d="M303.581,879.891v-17.193h6.051c0.816,0,1.581,0.132,2.293,0.396
					c0.712,0.264,1.333,0.636,1.861,1.117c0.527,0.48,0.944,1.053,1.248,1.717c0.304,0.665,0.456,1.397,0.456,2.198
					c0,0.816-0.152,1.557-0.456,2.221s-0.721,1.236-1.248,1.717c-0.529,0.48-1.149,0.852-1.861,1.117
					c-0.713,0.264-1.477,0.396-2.293,0.396h-2.809v6.315H303.581z M309.68,870.503c0.848,0,1.489-0.241,1.921-0.721
					c0.432-0.48,0.648-1.032,0.648-1.656c0-0.304-0.052-0.601-0.156-0.889c-0.105-0.288-0.264-0.54-0.48-0.756
					c-0.216-0.217-0.484-0.388-0.805-0.516c-0.32-0.129-0.696-0.193-1.128-0.193h-2.857v4.731H309.68z"/>
				<path style="fill:#FFFFFF;" d="M317.796,862.699h3.77l6.916,11.526h0.191l-0.191-3.314v-8.212h3.217v17.193h-3.409l-7.3-12.174
					h-0.191l0.191,3.314v8.86h-3.193V862.699z"/>
				<path style="fill:#FFFFFF;" d="M343.08,870.454h8.429c0.048,0.193,0.087,0.425,0.12,0.697c0.031,0.272,0.048,0.544,0.048,0.816
					c0,1.104-0.167,2.145-0.504,3.121c-0.336,0.977-0.865,1.849-1.585,2.618c-0.768,0.817-1.69,1.449-2.761,1.897
					c-1.073,0.448-2.298,0.672-3.674,0.672c-1.249,0-2.426-0.224-3.53-0.672c-1.104-0.447-2.065-1.072-2.881-1.873
					c-0.816-0.8-1.465-1.749-1.945-2.845c-0.48-1.097-0.72-2.293-0.72-3.59c0-1.296,0.24-2.493,0.72-3.589s1.129-2.045,1.945-2.845
					c0.816-0.8,1.777-1.425,2.881-1.873c1.104-0.448,2.281-0.672,3.53-0.672c1.392,0,2.637,0.24,3.734,0.72
					c1.097,0.48,2.036,1.144,2.821,1.993l-2.232,2.185c-0.562-0.592-1.185-1.044-1.874-1.357s-1.513-0.468-2.473-0.468
					c-0.786,0-1.53,0.14-2.234,0.421c-0.705,0.28-1.321,0.676-1.85,1.188c-0.527,0.512-0.949,1.133-1.259,1.861
					c-0.312,0.728-0.469,1.541-0.469,2.437c0,0.897,0.157,1.709,0.469,2.438c0.311,0.728,0.735,1.349,1.271,1.861
					c0.536,0.512,1.156,0.909,1.862,1.188c0.704,0.281,1.457,0.421,2.258,0.421c0.911,0,1.684-0.132,2.317-0.396
					c0.632-0.264,1.171-0.604,1.62-1.021c0.321-0.288,0.598-0.652,0.829-1.092s0.412-0.932,0.541-1.477h-5.404V870.454z"/>
			</g>
			<g>
				<path style="fill:#FFFFFF;" d="M443.437,859.493c-0.013-2.665-2.087-4.618-4.766-4.659c-2.011-0.031-1.81,0.261-1.815-1.887
					c-0.006-2.389-0.015-4.778,0.006-7.166c0.007-0.824-0.243-1.505-0.787-2.125c-5.098-5.81-10.184-11.63-15.281-17.441
					c-0.262-0.299-0.599-0.532-0.901-0.796c-13.528,0-27.055,0-40.583,0c-1.729,0.639-2.482,1.889-2.478,3.72
					c0.021,8.159,0.009,16.318,0.008,24.478c0,1.21-0.007,1.281-1.197,1.201c-3.258-0.221-5.477,2.147-5.436,5.426
					c0.096,7.568,0.028,15.137,0.031,22.706c0.001,3.44,1.887,5.32,5.333,5.331c1.267,0.004,1.268,0.004,1.268,1.306
					c0.001,4.831-0.002,9.662,0.002,14.493c0.002,2.595,1.262,3.855,3.85,3.855c17.446,0.001,34.891,0.001,52.337,0
					c2.543,0,3.822-1.268,3.824-3.799c0.005-4.912,0.001-9.823,0.003-14.735c0-1.115,0.004-1.112,1.131-1.121
					c0.589-0.005,1.177,0.017,1.761-0.127c2.169-0.535,3.68-2.273,3.689-4.503C443.47,875.597,443.475,867.545,443.437,859.493z
					 M381.498,828.716c11.619-0.001,23.237-0.001,34.856,0c1.192,0,1.206,0.015,1.207,1.222c0.001,4.884-0.001,9.767,0.002,14.651
					c0.001,1.765,0.543,2.305,2.307,2.306c4.159,0.003,8.318,0,12.477,0.003c0.997,0.001,1.044,0.046,1.046,1.052
					c0.006,1.932,0.005,3.864,0,5.796c-0.003,1.038-0.051,1.085-1.098,1.085c-8.479,0.002-16.958,0.001-25.438,0.001
					c-8.452,0-16.905,0-25.357,0c-1.198,0-1.202-0.003-1.202-1.221c-0.001-7.889-0.001-15.778,0-23.667
					C380.299,828.724,380.308,828.716,381.498,828.716z M432.192,903.645c-8.454,0.001-16.908,0.001-25.362,0.001
					c-8.427,0-16.854,0.001-25.281,0c-1.245,0-1.249-0.003-1.249-1.262c-0.001-4.348-0.002-8.696,0.001-13.043
					c0.001-1.01,0.051-1.059,1.041-1.059c16.989-0.002,33.977-0.002,50.966,0c1.041,0,1.086,0.044,1.087,1.094
					c0.003,4.348,0.003,8.696,0.001,13.043C433.394,903.634,433.384,903.645,432.192,903.645z"/>
			</g>
			<g>
				<path style="fill:#FFFFFF;" d="M402.272,862.699h3.698l6.46,17.193h-3.578l-1.416-4.106h-6.628l-1.417,4.106h-3.578
					L402.272,862.699z M406.379,872.808l-1.537-4.298l-0.625-2.089h-0.192l-0.625,2.089l-1.537,4.298H406.379z"/>
				<path style="fill:#FFFFFF;" d="M415.815,866.541c-0.273,0-0.533-0.052-0.781-0.156c-0.248-0.104-0.465-0.248-0.648-0.432
					c-0.184-0.184-0.328-0.396-0.432-0.636c-0.105-0.241-0.156-0.504-0.156-0.793s0.052-0.552,0.156-0.793
					c0.104-0.24,0.248-0.452,0.432-0.636c0.184-0.184,0.4-0.328,0.648-0.432c0.248-0.104,0.508-0.156,0.781-0.156
					c0.56,0,1.041,0.196,1.441,0.588c0.4,0.393,0.601,0.869,0.601,1.429c0,0.56-0.201,1.037-0.601,1.428
					C416.856,866.345,416.375,866.541,415.815,866.541z M414.255,879.891v-11.766h3.145v11.766H414.255z"/>
			</g>
			<g>
				<path style="fill:#FFFFFF;" d="M524.043,859.493c-0.013-2.665-2.087-4.618-4.766-4.659c-2.011-0.031-1.81,0.261-1.815-1.887
					c-0.006-2.389-0.015-4.778,0.006-7.166c0.007-0.824-0.243-1.505-0.787-2.125c-5.098-5.81-10.184-11.63-15.281-17.441
					c-0.262-0.299-0.599-0.532-0.901-0.796c-13.528,0-27.055,0-40.583,0c-1.729,0.639-2.482,1.889-2.478,3.72
					c0.021,8.159,0.009,16.318,0.008,24.478c0,1.21-0.007,1.281-1.197,1.201c-3.258-0.221-5.477,2.147-5.436,5.426
					c0.096,7.568,0.028,15.137,0.031,22.706c0.001,3.44,1.887,5.32,5.333,5.331c1.267,0.004,1.268,0.004,1.268,1.306
					c0.001,4.831-0.002,9.662,0.002,14.493c0.002,2.595,1.262,3.855,3.85,3.855c17.446,0.001,34.891,0.001,52.337,0
					c2.543,0,3.822-1.268,3.824-3.799c0.005-4.912,0.001-9.823,0.003-14.735c0-1.115,0.004-1.112,1.131-1.121
					c0.589-0.005,1.177,0.017,1.761-0.127c2.169-0.535,3.68-2.273,3.689-4.503C524.076,875.597,524.081,867.545,524.043,859.493z
					 M462.104,828.716c11.619-0.001,23.237-0.001,34.856,0c1.192,0,1.206,0.015,1.207,1.222c0.001,4.884-0.001,9.767,0.002,14.651
					c0.001,1.765,0.543,2.305,2.307,2.306c4.159,0.003,8.318,0,12.477,0.003c0.997,0.001,1.044,0.046,1.046,1.052
					c0.006,1.932,0.005,3.864,0,5.796c-0.003,1.038-0.051,1.085-1.098,1.085c-8.479,0.002-16.958,0.001-25.438,0.001
					c-8.452,0-16.905,0-25.357,0c-1.198,0-1.202-0.003-1.202-1.221c-0.001-7.889-0.001-15.778,0-23.667
					C460.905,828.724,460.914,828.716,462.104,828.716z M512.798,903.645c-8.454,0.001-16.908,0.001-25.362,0.001
					c-8.427,0-16.854,0.001-25.281,0c-1.245,0-1.249-0.003-1.249-1.262c-0.001-4.348-0.002-8.696,0.001-13.043
					c0.001-1.01,0.051-1.059,1.041-1.059c16.989-0.002,33.977-0.002,50.966,0c1.041,0,1.086,0.044,1.087,1.094
					c0.003,4.348,0.003,8.696,0.001,13.043C514,903.634,513.989,903.645,512.798,903.645z"/>
			</g>
			<g>
				<path style="fill:#FFFFFF;" d="M470.308,880.275c-0.737,0-1.441-0.104-2.113-0.312c-0.672-0.208-1.289-0.52-1.849-0.936
					c-0.56-0.416-1.048-0.925-1.464-1.525c-0.417-0.601-0.745-1.301-0.985-2.101l3.049-1.2c0.224,0.864,0.616,1.581,1.177,2.149
					s1.297,0.852,2.209,0.852c0.336,0,0.66-0.044,0.973-0.132c0.312-0.087,0.592-0.216,0.84-0.384
					c0.248-0.168,0.444-0.38,0.589-0.636c0.144-0.256,0.216-0.552,0.216-0.888c0-0.32-0.056-0.608-0.168-0.865
					c-0.112-0.255-0.3-0.495-0.564-0.72c-0.264-0.224-0.609-0.44-1.033-0.648c-0.424-0.208-0.948-0.424-1.572-0.648l-1.056-0.384
					c-0.465-0.16-0.933-0.376-1.405-0.648c-0.472-0.272-0.9-0.6-1.284-0.985c-0.385-0.384-0.701-0.836-0.949-1.357
					c-0.249-0.52-0.372-1.108-0.372-1.765c0-0.672,0.132-1.301,0.396-1.885c0.264-0.584,0.64-1.096,1.129-1.537
					c0.488-0.44,1.072-0.784,1.753-1.032c0.681-0.248,1.437-0.372,2.269-0.372c0.864,0,1.612,0.116,2.245,0.348
					c0.633,0.232,1.168,0.528,1.609,0.888c0.44,0.36,0.796,0.757,1.068,1.188c0.272,0.433,0.472,0.84,0.601,1.225l-2.857,1.2
					c-0.161-0.48-0.453-0.913-0.876-1.297c-0.425-0.384-1.005-0.576-1.741-0.576c-0.704,0-1.289,0.164-1.753,0.492
					c-0.465,0.329-0.697,0.757-0.697,1.285c0,0.512,0.224,0.949,0.672,1.309c0.448,0.36,1.161,0.708,2.137,1.044l1.081,0.36
					c0.688,0.241,1.316,0.517,1.885,0.828c0.568,0.312,1.056,0.684,1.465,1.117c0.408,0.433,0.72,0.925,0.936,1.477
					c0.217,0.552,0.324,1.189,0.324,1.909c0,0.897-0.18,1.669-0.54,2.317c-0.36,0.648-0.82,1.181-1.38,1.597
					c-0.561,0.416-1.193,0.728-1.897,0.936C471.668,880.172,470.98,880.275,470.308,880.275z"/>
				<path style="fill:#FFFFFF;" d="M477.175,862.699h3.506l3.554,10.349l0.625,2.209h0.192l0.672-2.209l3.698-10.349h3.506
					l-6.268,17.193h-3.409L477.175,862.699z"/>
				<path style="fill:#FFFFFF;" d="M502.388,870.454h8.428c0.048,0.193,0.088,0.425,0.12,0.697c0.033,0.272,0.049,0.544,0.049,0.816
					c0,1.104-0.169,2.145-0.505,3.121c-0.336,0.977-0.864,1.849-1.585,2.618c-0.768,0.817-1.688,1.449-2.761,1.897
					c-1.073,0.448-2.298,0.672-3.674,0.672c-1.249,0-2.425-0.224-3.529-0.672c-1.105-0.447-2.066-1.072-2.882-1.873
					c-0.816-0.8-1.465-1.749-1.945-2.845c-0.48-1.097-0.72-2.293-0.72-3.59c0-1.296,0.241-2.493,0.72-3.589
					c0.48-1.097,1.129-2.045,1.945-2.845c0.816-0.8,1.777-1.425,2.882-1.873c1.104-0.448,2.28-0.672,3.529-0.672
					c1.392,0,2.637,0.24,3.734,0.72c1.097,0.48,2.038,1.144,2.822,1.993l-2.234,2.185c-0.56-0.592-1.185-1.044-1.874-1.357
					c-0.687-0.312-1.512-0.468-2.473-0.468c-0.784,0-1.528,0.14-2.234,0.421c-0.704,0.28-1.321,0.676-1.848,1.188
					c-0.528,0.512-0.949,1.133-1.261,1.861c-0.312,0.728-0.468,1.541-0.468,2.437c0,0.897,0.156,1.709,0.468,2.438
					c0.312,0.728,0.737,1.349,1.273,1.861c0.536,0.512,1.156,0.909,1.86,1.188c0.705,0.281,1.457,0.421,2.258,0.421
					c0.913,0,1.685-0.132,2.317-0.396c0.632-0.264,1.173-0.604,1.621-1.021c0.32-0.288,0.596-0.652,0.828-1.092
					c0.233-0.44,0.412-0.932,0.541-1.477h-5.402V870.454z"/>
			</g>
			<g>
				<path style="fill:#FFFFFF;" d="M602.976,859.493c-0.013-2.665-2.087-4.618-4.766-4.659c-2.011-0.031-1.81,0.261-1.815-1.887
					c-0.006-2.389-0.015-4.778,0.006-7.166c0.007-0.824-0.243-1.505-0.787-2.125c-5.098-5.81-10.184-11.63-15.281-17.441
					c-0.262-0.299-0.599-0.532-0.901-0.796c-13.528,0-27.055,0-40.583,0c-1.729,0.639-2.482,1.889-2.478,3.72
					c0.021,8.159,0.009,16.318,0.008,24.478c0,1.21-0.007,1.281-1.197,1.201c-3.258-0.221-5.477,2.147-5.436,5.426
					c0.096,7.568,0.028,15.137,0.031,22.706c0.001,3.44,1.887,5.32,5.333,5.331c1.267,0.004,1.268,0.004,1.268,1.306
					c0.001,4.831-0.002,9.662,0.002,14.493c0.002,2.595,1.262,3.855,3.85,3.855c17.446,0.001,34.891,0.001,52.337,0
					c2.543,0,3.822-1.268,3.824-3.799c0.005-4.912,0.001-9.823,0.003-14.735c0-1.115,0.005-1.112,1.131-1.121
					c0.589-0.005,1.178,0.017,1.761-0.127c2.169-0.535,3.68-2.273,3.689-4.503C603.01,875.597,603.015,867.545,602.976,859.493z
					 M541.037,828.716c11.619-0.001,23.237-0.001,34.856,0c1.193,0,1.206,0.015,1.207,1.222c0.001,4.884-0.002,9.767,0.002,14.651
					c0.001,1.765,0.543,2.305,2.307,2.306c4.159,0.003,8.318,0,12.477,0.003c0.997,0.001,1.044,0.046,1.046,1.052
					c0.006,1.932,0.005,3.864,0,5.796c-0.003,1.038-0.051,1.085-1.098,1.085c-8.479,0.002-16.958,0.001-25.438,0.001
					c-8.452,0-16.905,0-25.357,0c-1.198,0-1.202-0.003-1.202-1.221c-0.001-7.889-0.001-15.778,0-23.667
					C539.838,828.724,539.847,828.716,541.037,828.716z M591.731,903.645c-8.454,0.001-16.908,0.001-25.362,0.001
					c-8.427,0-16.854,0.001-25.281,0c-1.245,0-1.249-0.003-1.249-1.262c-0.001-4.348-0.003-8.696,0.001-13.043
					c0.001-1.01,0.051-1.059,1.041-1.059c16.989-0.002,33.977-0.002,50.966,0c1.041,0,1.086,0.044,1.087,1.094
					c0.003,4.348,0.003,8.696,0.001,13.043C592.934,903.634,592.923,903.645,591.731,903.645z"/>
			</g>
			<g>
				<path style="fill:#FFFFFF;" d="M549.998,865.772v3.986h6.891v3.074h-6.891v3.986h7.659v3.073h-10.901v-17.193h10.901v3.073
					H549.998z"/>
				<path style="fill:#FFFFFF;" d="M560.635,879.891v-17.193h6.051c0.816,0,1.581,0.132,2.293,0.396
					c0.712,0.264,1.333,0.636,1.861,1.117c0.528,0.48,0.944,1.053,1.249,1.717c0.304,0.665,0.456,1.397,0.456,2.198
					c0,0.816-0.152,1.557-0.456,2.221c-0.305,0.664-0.721,1.236-1.249,1.717c-0.528,0.48-1.149,0.852-1.861,1.117
					c-0.713,0.264-1.477,0.396-2.293,0.396h-2.809v6.315H560.635z M566.735,870.503c0.848,0,1.489-0.241,1.921-0.721
					c0.432-0.48,0.648-1.032,0.648-1.656c0-0.304-0.052-0.601-0.156-0.889c-0.105-0.288-0.264-0.54-0.48-0.756
					c-0.216-0.217-0.484-0.388-0.805-0.516c-0.32-0.129-0.696-0.193-1.128-0.193h-2.857v4.731H566.735z"/>
				<path style="fill:#FFFFFF;" d="M580.109,880.275c-0.737,0-1.441-0.104-2.113-0.312c-0.672-0.208-1.289-0.52-1.849-0.936
					c-0.56-0.416-1.049-0.925-1.465-1.525c-0.416-0.601-0.744-1.301-0.985-2.101l3.049-1.2c0.224,0.864,0.616,1.581,1.177,2.149
					c0.56,0.568,1.296,0.852,2.209,0.852c0.336,0,0.66-0.044,0.973-0.132c0.312-0.087,0.592-0.216,0.84-0.384
					c0.248-0.168,0.444-0.38,0.588-0.636c0.144-0.256,0.217-0.552,0.217-0.888c0-0.32-0.057-0.608-0.168-0.865
					c-0.112-0.255-0.3-0.495-0.565-0.72c-0.264-0.224-0.608-0.44-1.032-0.648c-0.424-0.208-0.949-0.424-1.573-0.648l-1.056-0.384
					c-0.465-0.16-0.932-0.376-1.404-0.648c-0.473-0.272-0.901-0.6-1.285-0.985c-0.384-0.384-0.701-0.836-0.949-1.357
					c-0.248-0.52-0.372-1.108-0.372-1.765c0-0.672,0.132-1.301,0.396-1.885c0.264-0.584,0.64-1.096,1.129-1.537
					c0.489-0.44,1.073-0.784,1.753-1.032c0.68-0.248,1.437-0.372,2.269-0.372c0.865,0,1.613,0.116,2.246,0.348
					c0.632,0.232,1.168,0.528,1.609,0.888c0.44,0.36,0.796,0.757,1.068,1.188c0.272,0.433,0.472,0.84,0.601,1.225l-2.857,1.2
					c-0.161-0.48-0.453-0.913-0.877-1.297s-1.005-0.576-1.741-0.576c-0.705,0-1.289,0.164-1.753,0.492
					c-0.465,0.329-0.696,0.757-0.696,1.285c0,0.512,0.224,0.949,0.672,1.309c0.448,0.36,1.16,0.708,2.137,1.044l1.08,0.36
					c0.689,0.241,1.317,0.517,1.885,0.828c0.568,0.312,1.056,0.684,1.465,1.117c0.408,0.433,0.72,0.925,0.936,1.477
					c0.216,0.552,0.324,1.189,0.324,1.909c0,0.897-0.18,1.669-0.54,2.317c-0.36,0.648-0.821,1.181-1.38,1.597
					c-0.561,0.416-1.193,0.728-1.897,0.936C581.47,880.172,580.782,880.275,580.109,880.275z"/>
			</g>
			<g>
				<path style="fill:#FFFFFF;" d="M655.431,876.625l8.716-10.854h-8.332v-3.073h12.103v3.266l-8.621,10.854h8.716v3.073h-12.582
					V876.625z"/>
				<path style="fill:#FFFFFF;" d="M670.702,862.699h3.242v17.193h-3.242V862.699z"/>
				<path style="fill:#FFFFFF;" d="M677.402,879.891v-17.193h6.051c0.817,0,1.581,0.132,2.293,0.396
					c0.712,0.264,1.333,0.636,1.861,1.117s0.944,1.053,1.249,1.717c0.304,0.665,0.456,1.397,0.456,2.198
					c0,0.816-0.152,1.557-0.456,2.221c-0.305,0.664-0.721,1.236-1.249,1.717s-1.149,0.852-1.861,1.117
					c-0.713,0.264-1.477,0.396-2.293,0.396h-2.809v6.315H677.402z M683.501,870.503c0.848,0,1.489-0.241,1.921-0.721
					c0.433-0.48,0.648-1.032,0.648-1.656c0-0.304-0.052-0.601-0.156-0.889c-0.105-0.288-0.264-0.54-0.48-0.756
					c-0.216-0.217-0.484-0.388-0.805-0.516c-0.32-0.129-0.696-0.193-1.128-0.193h-2.857v4.731H683.501z"/>
			</g>
		</g>
		<g style="opacity:0.61;">
			<path style="fill:#FFFFFF;" d="M609.144,863.785h19.739v4.881h-19.739V863.785z M609.144,872.201h19.739v4.884h-19.739V872.201z"
				/>
		</g>
	</g>
	<g style="opacity:0.61;">
		<path style="fill:#FFFFFF;" d="M297,963.076h3.498c2.75,0,4.603,1.768,4.603,4.297s-1.854,4.296-4.603,4.296H297V963.076z
			 M300.449,970.883c2.283,0,3.756-1.448,3.756-3.51s-1.473-3.511-3.756-3.511h-2.541v7.021H300.449z"/>
		<path style="fill:#FFFFFF;" d="M315.251,967.373c0-2.504,1.915-4.37,4.517-4.37c2.577,0,4.505,1.853,4.505,4.37
			c0,2.516-1.927,4.369-4.505,4.369C317.166,971.742,315.251,969.877,315.251,967.373z M323.365,967.373
			c0-2.05-1.534-3.56-3.596-3.56c-2.075,0-3.621,1.51-3.621,3.56c0,2.049,1.546,3.559,3.621,3.559
			C321.831,970.932,323.365,969.422,323.365,967.373z"/>
		<path style="fill:#FFFFFF;" d="M346.724,963.076l-2.897,8.593h-0.957l-2.516-7.328l-2.529,7.328h-0.945l-2.897-8.593h0.933
			l2.479,7.389l2.566-7.389h0.847l2.529,7.426l2.516-7.426H346.724z"/>
		<path style="fill:#FFFFFF;" d="M364.435,963.076v8.593h-0.749l-5.524-6.972v6.972h-0.908v-8.593h0.749l5.536,6.973v-6.973H364.435
			z"/>
		<path style="fill:#FFFFFF;" d="M376.108,963.076h0.908v7.807h4.812v0.786h-5.72V963.076z"/>
		<path style="fill:#FFFFFF;" d="M391.279,967.373c0-2.504,1.915-4.37,4.517-4.37c2.577,0,4.505,1.853,4.505,4.37
			c0,2.516-1.927,4.369-4.505,4.369C393.194,971.742,391.279,969.877,391.279,967.373z M399.392,967.373
			c0-2.05-1.534-3.56-3.596-3.56c-2.075,0-3.621,1.51-3.621,3.56c0,2.049,1.546,3.559,3.621,3.559
			C397.858,970.932,399.392,969.422,399.392,967.373z"/>
		<path style="fill:#FFFFFF;" d="M416.478,969.374h-4.787l-1.031,2.295h-0.945l3.928-8.593h0.896l3.928,8.593h-0.957
			L416.478,969.374z M416.147,968.637l-2.062-4.615l-2.062,4.615H416.147z"/>
		<path style="fill:#FFFFFF;" d="M428.765,963.076h3.498c2.75,0,4.603,1.768,4.603,4.297s-1.854,4.296-4.603,4.296h-3.498V963.076z
			 M432.214,970.883c2.283,0,3.756-1.448,3.756-3.51s-1.473-3.511-3.756-3.511h-2.541v7.021H432.214z"/>
		<path style="fill:#FFFFFF;" d="M465.256,969.374h-4.787l-1.031,2.295h-0.945l3.928-8.593h0.896l3.928,8.593h-0.957
			L465.256,969.374z M464.925,968.637l-2.062-4.615l-2.062,4.615H464.925z"/>
		<path style="fill:#FFFFFF;" d="M477.543,963.076h0.908v7.807h4.812v0.786h-5.72V963.076z"/>
		<path style="fill:#FFFFFF;" d="M493.647,963.076h0.908v7.807h4.812v0.786h-5.72V963.076z"/>
		<path style="fill:#FFFFFF;" d="M522.749,963.862v3.376h4.443v0.786h-4.443v3.646h-0.909v-8.593h5.891v0.786H522.749z"/>
		<path style="fill:#FFFFFF;" d="M538.485,963.076h0.909v8.593h-0.909V963.076z"/>
		<path style="fill:#FFFFFF;" d="M551.067,963.076h0.909v7.807h4.811v0.786h-5.72V963.076z"/>
		<path style="fill:#FFFFFF;" d="M573.246,970.883v0.786h-6.076v-8.593h5.891v0.786h-4.983v3.056h4.443v0.774h-4.443v3.191H573.246z
			"/>
		<path style="fill:#FFFFFF;" d="M597.255,963.862v3.376h4.443v0.786h-4.443v3.646h-0.909v-8.593h5.891v0.786H597.255z"/>
		<path style="fill:#FFFFFF;" d="M612.119,967.373c0-2.504,1.915-4.37,4.517-4.37c2.577,0,4.505,1.853,4.505,4.37
			c0,2.516-1.927,4.369-4.505,4.369C614.034,971.742,612.119,969.877,612.119,967.373z M620.232,967.373
			c0-2.05-1.534-3.56-3.596-3.56c-2.075,0-3.622,1.51-3.622,3.56c0,2.049,1.547,3.559,3.622,3.559
			C618.698,970.932,620.232,969.422,620.232,967.373z"/>
		<path style="fill:#FFFFFF;" d="M637.919,971.669l-1.963-2.762c-0.222,0.024-0.442,0.037-0.688,0.037h-2.307v2.725h-0.909v-8.593
			h3.216c2.185,0,3.511,1.105,3.511,2.946c0,1.351-0.712,2.295-1.964,2.7l2.099,2.946H637.919z M637.871,966.022
			c0-1.375-0.909-2.161-2.627-2.161h-2.283v4.309h2.283C636.962,968.17,637.871,967.373,637.871,966.022z"/>
		<path style="fill:#FFFFFF;" d="M658.724,963.076v8.593h-0.871v-6.874l-3.376,5.782h-0.429l-3.376-5.745v6.837h-0.872v-8.593h0.749
			l3.732,6.371l3.695-6.371H658.724z"/>
		<path style="fill:#FFFFFF;" d="M675.787,969.374h-4.788l-1.031,2.295h-0.946l3.928-8.593h0.896l3.928,8.593h-0.957
			L675.787,969.374z M675.455,968.637l-2.062-4.615l-2.062,4.615H675.455z"/>
		<path style="fill:#FFFFFF;" d="M689.312,963.862h-3.02v-0.786h6.948v0.786h-3.02v7.807h-0.908V963.862z"/>
		<path style="fill:#FFFFFF;" d="M702.605,970.626l0.356-0.7c0.614,0.601,1.706,1.043,2.835,1.043c1.608,0,2.308-0.675,2.308-1.522
			c0-2.357-5.29-0.908-5.29-4.087c0-1.265,0.982-2.357,3.167-2.357c0.97,0,1.976,0.282,2.664,0.761l-0.307,0.724
			c-0.737-0.479-1.596-0.712-2.357-0.712c-1.571,0-2.271,0.7-2.271,1.559c0,2.357,5.29,0.933,5.29,4.063
			c0,1.265-1.006,2.344-3.204,2.344C704.508,971.742,703.243,971.288,702.605,970.626z"/>
	</g>
</g>
<g>
</g>
<g>
	<path style="fill:#231F20;" d="M499.997,896c-184.406,0-333.902-149.5-333.902-333.91c0-141.463,87.973-262.381,212.195-311.029
		l-0.091-0.132c-2.853-3.388-5.624-6.992-8.181-10.778c-16.121-23.853-20.349-72.4,15.266-95.761
		c32.286-21.176,71.106-5.989,76.785-3.61l0.016-0.215C462.808,120.249,479.507,104,500.001,104h-0.001
		c20.493,0,37.192,16.249,37.915,36.566l0.016,0.215c5.679-2.379,44.5-17.566,76.785,3.61
		c35.615,23.361,31.387,71.907,15.266,95.761c-2.557,3.785-5.328,7.39-8.181,10.778l-0.091,0.132
		c124.221,48.647,212.195,169.565,212.195,311.029C833.905,746.5,684.409,896,500.003,896H499.997z M500.003,866.023
		c167.585,0,303.925-136.344,303.925-303.933c0-167.587-136.34-303.928-303.925-303.928h-0.006
		c-167.585,0-303.925,136.341-303.925,303.928c0,167.589,136.34,303.933,303.925,303.933H500.003z M500.001,161.627
		c-3.903,0-7.331,3.253-9.288,8.158l-0.104-0.06c-3.77-2.467-22.24-13.305-44.694-5.11l-0.078,0.023
		c-8.895-2.62-27.048-5.728-43.066,5.567c-21.65,15.266-17.001,47.785-6.385,64.673c9.231,14.684,22.425,27.308,28.319,32.598
		l0.107,0.103l0.717,9.429c23.752-6.614,48.718-10.143,74.468-10.143h0.006c25.75,0,50.717,3.529,74.468,10.143l0.717-9.429
		l0.107-0.103c5.894-5.29,19.088-17.913,28.319-32.598c10.616-16.889,15.265-49.407-6.385-64.673
		c-16.018-11.295-34.171-8.187-43.066-5.567l-0.078-0.023c-22.454-8.195-40.924,2.643-44.694,5.11l-0.103,0.06
		c-1.958-4.905-5.386-8.158-9.288-8.158H500.001z"/>
	<path style="fill:#231F20;" d="M452.029,342.342l-3.553-16.747l-4.789,1.016l-0.511-2.411l0.358-0.076
		c2.215-0.47,4.679-1.537,4.708-4.608l-0.097-0.456l2.706-0.574l4.893,23.069L452.029,342.342z"/>
	<path style="fill:#231F20;" d="M477.288,331.614c-0.232-3.49,1.334-5.53,3.63-6.15l-0.004-0.066
		c-2.074-0.563-3.408-2.043-3.596-4.868c-0.242-3.656,2.032-6.078,5.954-6.339c3.921-0.261,6.498,1.838,6.741,5.495
		c0.188,2.823-0.938,4.468-2.918,5.301l0.004,0.067c2.357,0.31,4.181,2.124,4.412,5.615c0.308,4.619-1.823,7.198-6.642,7.519
		C480.05,338.507,477.595,336.233,477.288,331.614z M483.923,323.962c2.359-0.158,2.844-1.892,2.718-3.787
		c-0.124-1.861-0.832-3.482-3.192-3.326c-2.359,0.158-2.847,1.86-2.722,3.72C480.853,322.463,481.562,324.118,483.923,323.962z
		 M484.692,335.527c2.659-0.177,3.191-2.216,3.028-4.675c-0.166-2.492-0.961-4.409-3.62-4.231c-2.658,0.176-3.193,2.181-3.026,4.674
		C481.236,333.754,482.033,335.704,484.692,335.527z"/>
	<path style="fill:#231F20;" d="M514.396,332.38c-0.102,1.361,0.403,3.102,2.297,3.244c3.553,0.264,4.101-4.404,4.356-7.826
		l-0.094-0.074c-1.057,1.625-2.711,2.303-4.769,2.15c-3.223-0.24-5.64-2.758-5.292-7.442c0.404-5.414,2.869-8.471,7.851-8.1
		c5.946,0.444,6.738,5.044,6.236,11.787c-0.524,7.042-2.241,12.625-8.454,12.163c-4.119-0.307-6.205-2.333-5.919-6.186
		L514.396,332.38z M518.248,316.969c-2.325-0.173-3.293,2.059-3.498,4.816c-0.242,3.255,0.585,5.153,2.744,5.314
		c2.758,0.206,3.436-2.182,3.646-5.006C521.343,319.37,520.473,317.135,518.248,316.969z"/>
	<path style="fill:#231F20;" d="M547.563,342.256l3.686-16.719l-4.781-1.054l0.53-2.407l0.358,0.078
		c2.212,0.488,4.896,0.533,6.192-2.249l0.1-0.456l2.699,0.595l-5.077,23.029L547.563,342.256z"/>
	<path style="fill:#FFFFFF;" d="M504.164,149.206v6.763c0,0.519-0.424,0.944-0.944,0.944h-6.439c-0.519,0-0.944-0.425-0.944-0.944
		v-6.869l0.012-0.164h-7.046c-0.519,0-0.944-0.425-0.944-0.944v-6.439c0-0.519,0.425-0.944,0.944-0.944h7.021l0.013-0.174v-6.859
		c0-0.519,0.425-0.944,0.944-0.944h6.439c0.52,0,0.944,0.425,0.944,0.944v6.939l0.014,0.094h7.019c0.52,0,0.944,0.425,0.944,0.944
		v6.439c0,0.519-0.424,0.944-0.944,0.944h-7.019L504.164,149.206z"/>
	<path style="fill:#231F20;" d="M514.337,201.424c0,7.917-6.42,14.335-14.337,14.335s-14.335-6.419-14.335-14.335
		c0-7.917,6.418-14.336,14.335-14.336S514.337,193.507,514.337,201.424z"/>
	<path style="fill:#231F20;" d="M507.885,230.928c0,4.355-3.53,7.885-7.885,7.885c-4.355,0-7.885-3.53-7.885-7.885
		c0-4.354,3.53-7.885,7.885-7.885C504.355,223.043,507.885,226.573,507.885,230.928z"/>
	<path style="fill:#231F20;" d="M505.52,278.136c0,3.047-2.471,5.518-5.52,5.518c-3.049,0-5.518-2.471-5.518-5.518
		c0-3.049,2.47-5.52,5.518-5.52C503.049,272.616,505.52,275.087,505.52,278.136z"/>
	<path style="fill:#231F20;" d="M445.982,283.964c0,3.048-2.471,5.52-5.519,5.52c-3.049,0-5.519-2.471-5.519-5.52
		c0-3.048,2.47-5.519,5.519-5.519C443.511,278.445,445.982,280.916,445.982,283.964z"/>
	<path style="fill:#231F20;" d="M275.502,670.543l-3.543-8.771c0.513-0.171,0.888-0.304,1.126-0.4
		c6.274-2.534,8.514-6.027,6.717-10.475c-0.978-2.421-2.563-3.802-4.756-4.144c-1.367-0.192-2.71-0.102-4.031,0.271
		c-1.258,0.378-2.678,0.887-4.26,1.526l-17.785,7.184c-3.749,1.515-6.293,2.912-7.634,4.195c-1.928,1.872-2.314,4.235-1.16,7.088
		c1.822,4.512,6.244,5.351,13.268,2.513c0.316-0.12,0.764-0.296,1.341-0.529l3.542,8.769c-0.913,0.37-1.579,0.641-1.997,0.809
		c-5.173,2.09-9.722,2.64-13.643,1.653c-4.577-1.174-7.988-4.54-10.233-10.098c-2.379-5.889-2.103-10.921,0.83-15.096
		c1.516-2.187,3.476-3.913,5.885-5.175c2-1.066,4.463-2.189,7.389-3.371l14.925-6.029c5.134-2.075,8.837-3.169,11.11-3.28
		c4.054-0.22,7.477,0.973,10.27,3.583c1.941,1.793,3.496,4.129,4.66,7.011c1.947,4.82,2.06,9.138,0.343,12.957
		c-1.807,3.984-5.343,7.04-10.61,9.168C276.838,670.073,276.252,670.286,275.502,670.543z"/>
	<path style="fill:#231F20;" d="M304.553,683.104l-41.647,26.646l10.152,15.871l-7.014,4.486l-15.257-23.848l48.661-31.134
		L304.553,683.104z"/>
	<path style="fill:#231F20;" d="M336.507,723.714l6.462,6.925l-28.624,26.705c-3.403,3.174-6.224,5.212-8.464,6.118
		c-6.024,2.43-11.624,0.868-16.803-4.682c-3.854-4.132-5.461-8.395-4.82-12.793c0.361-2.547,1.316-4.808,2.867-6.784
		c1.384-1.782,3.097-3.625,5.138-5.529l28.624-26.703l6.462,6.925l-29.677,27.686c-2.402,2.243-3.825,4.186-4.267,5.829
		c-0.526,1.97,0.063,3.866,1.763,5.69c1.7,1.822,3.55,2.539,5.554,2.152c1.649-0.306,3.687-1.591,6.111-3.852L336.507,723.714z"/>
	<path style="fill:#231F20;" d="M321.06,787.805l33.347-47.172l11.541,8.159c4.391,3.104,7.186,6.498,8.383,10.187
		c1.326,4.126,0.578,8.188-2.246,12.182c-2.204,3.118-4.936,4.964-8.193,5.535c-2.118,0.409-4.597,0.112-7.435-0.89
		c2.11,2.562,3.435,4.86,3.977,6.896c0.947,3.636,0.09,7.339-2.574,11.108c-2.957,4.182-6.699,6.519-11.221,7.011
		c-4.158,0.439-8.507-0.947-13.049-4.158L321.06,787.805z M333.602,786.472l3.88,2.743c2.601,1.838,4.965,2.604,7.096,2.298
		c2.169-0.313,3.94-1.438,5.309-3.375c1.548-2.189,2.09-4.542,1.626-7.059c-0.451-2.642-2.096-4.969-4.939-6.979l-2.818-1.992
		L333.602,786.472z M348.562,765.309l2.818,1.992c2.404,1.7,4.736,2.419,6.997,2.155c2.22-0.256,4.021-1.361,5.402-3.314
		c1.267-1.793,1.649-3.676,1.152-5.648c-0.442-1.795-1.987-3.628-4.632-5.497l-2.965-2.097L348.562,765.309z"/>
	<path style="fill:#231F20;" d="M390.278,828.551l19.002-54.553l13.348,4.648c5.077,1.769,8.701,4.259,10.874,7.472
		c2.414,3.598,2.818,7.709,1.208,12.328c-1.255,3.607-3.371,6.135-6.342,7.584c-1.921,0.979-4.386,1.38-7.391,1.201
		c2.737,1.878,4.645,3.72,5.727,5.527c1.916,3.231,2.117,7.026,0.599,11.385c-1.685,4.838-4.634,8.118-8.845,9.842
		c-3.875,1.571-8.438,1.441-13.69-0.387L390.278,828.551z M401.962,823.802l4.488,1.564c3.007,1.047,5.491,1.129,7.454,0.245
		c1.998-0.9,3.389-2.47,4.169-4.712c0.882-2.531,0.752-4.942-0.39-7.232c-1.163-2.415-3.388-4.196-6.676-5.341l-3.259-1.135
		L401.962,823.802z M410.487,799.327l3.259,1.135c2.781,0.968,5.22,1.014,7.32,0.135c2.064-0.859,3.489-2.419,4.275-4.678
		c0.722-2.074,0.57-3.989-0.454-5.748c-0.921-1.602-2.913-2.936-5.972-4.002l-3.43-1.195L410.487,799.327z"/>
	<path style="fill:#231F20;" d="M458.598,822.995l-3.154,23.417l-9.387-1.265l7.713-57.251l14.719,1.984
		c5.227,0.704,9.082,2.393,11.567,5.065c3.223,3.457,4.451,8.028,3.685,13.714c-0.981,7.282-4.392,11.883-10.234,13.804
		l5.438,27.115l-9.862-1.328l-4.887-24.5L458.598,822.995z M459.711,814.743l3.42,0.461c2.615,0.352,4.51,0.38,5.681,0.084
		c2.946-0.736,4.703-3.22,5.273-7.453c0.42-3.116-0.056-5.491-1.428-7.121c-0.786-0.984-1.811-1.66-3.077-2.031
		c-1.119-0.321-2.49-0.59-4.114-0.809l-3.42-0.46L459.711,814.743z"/>
	<path style="fill:#231F20;" d="M523.898,790.894l9.446-0.699l2.889,39.04c0.344,4.641,0.166,8.117-0.53,10.429
		c-1.878,6.219-6.603,9.607-14.174,10.167c-5.635,0.418-9.966-1.001-12.993-4.255c-1.758-1.876-2.923-4.036-3.492-6.484
		c-0.522-2.195-0.887-4.685-1.092-7.468l-2.89-39.04l9.446-0.7l2.996,40.476c0.243,3.278,0.866,5.603,1.871,6.976
		c1.207,1.644,3.053,2.374,5.54,2.19c2.484-0.185,4.203-1.178,5.156-2.982c0.794-1.477,1.069-3.871,0.824-7.176L523.898,790.894z"/>
	<path style="fill:#231F20;" d="M571.813,811.049l16.592-4.821l7.987,27.487l-4.72,1.37l-2.951-4.231
		c-0.78,1.92-1.659,3.446-2.636,4.576c-1.713,1.928-3.989,3.305-6.828,4.13c-3.644,1.059-7.007,0.94-10.092-0.357
		c-3.186-1.326-5.727-3.92-7.628-7.783c-0.952-1.886-2.004-4.81-3.156-8.774l-4.452-15.322c-1.546-5.32-2.261-9.116-2.143-11.387
		c0.169-4.022,1.702-7.308,4.599-9.857c2.005-1.76,4.485-3.07,7.44-3.928c6.537-1.9,11.872-0.771,16.003,3.386
		c2.189,2.19,4.004,5.813,5.443,10.868l-9.097,2.644c-0.959-3.304-2.003-5.607-3.13-6.908c-1.864-2.123-4.177-2.784-6.938-1.982
		c-2.561,0.744-4.095,2.226-4.603,4.447c-0.301,1.331-0.317,2.668-0.051,4.011c0.242,1.263,0.605,2.727,1.088,4.393l4.937,16.992
		c1.2,4.129,2.399,7.027,3.602,8.697c1.793,2.522,4.258,3.327,7.394,2.416c2.646-0.769,4.166-2.409,4.558-4.923
		c0.312-1.934-0.026-4.601-1.013-8.001l-0.648-2.226l-7.496,2.179L571.813,811.049z"/>
	<path style="fill:#231F20;" d="M619.09,792.135l15.318-7.994l13.244,25.376l-4.357,2.273l-3.726-3.568
		c-0.388,2.036-0.949,3.706-1.685,5.007c-1.299,2.226-3.259,4.025-5.881,5.393c-3.363,1.756-6.685,2.302-9.963,1.638
		c-3.386-0.671-6.389-2.714-9.012-6.128c-1.306-1.661-2.913-4.321-4.823-7.981l-7.383-14.145c-2.563-4.911-4.011-8.493-4.344-10.742
		c-0.626-3.977,0.23-7.501,2.569-10.57c1.619-2.12,3.793-3.893,6.521-5.316c6.036-3.15,11.487-3.093,16.356,0.168
		c2.577,1.715,5.07,4.911,7.477,9.583l-8.398,4.384c-1.592-3.049-3.068-5.103-4.43-6.157c-2.246-1.713-4.643-1.906-7.193-0.575
		c-2.364,1.234-3.576,2.989-3.637,5.266c-0.034,1.364,0.214,2.679,0.74,3.943c0.485,1.19,1.129,2.555,1.931,4.091l8.187,15.687
		c1.99,3.812,3.736,6.417,5.245,7.817c2.254,2.12,4.829,2.423,7.725,0.912c2.442-1.275,3.61-3.183,3.499-5.725
		c-0.075-1.956-0.932-4.506-2.57-7.645l-1.072-2.054l-6.92,3.612L619.09,792.135z"/>
	<path style="fill:#231F20;" d="M653.887,733.431l5.15,6.542l-14.313,11.267l9.399,11.942l10.551-8.306l5.151,6.543l-10.551,8.305
		l10.881,13.823l14.312-11.267l5.151,6.542l-21.756,17.126l-35.73-45.394L653.887,733.431z"/>
	<path style="fill:#231F20;" d="M678.183,707.382l4.387-6.231l23.088,16.254l0.1-0.142l-10.773-33.744l4.886-6.94l9.116,29.295
		l39.424,2.972l-4.886,6.94l-32.575-2.493l3.051,9.984l16.213,11.416l-4.387,6.231L678.183,707.382z"/>
	<path style="fill:#231F20;" d="M703.44,669.996l3.115-7.334l50.782,8.395l0.068-0.159l-41.303-30.714l3.115-7.333l47.535,37.124
		l-3.792,8.928L703.44,669.996z"/>
	<path style="fill:#231F20;" d="M500.001,301.713c21.431,0,41.92-1.439,60.744-4.061c5.566-0.776,4.582-2.175-0.335-3.032
		c-19.541-3.404-39.74-5.19-60.408-5.19h-0.005c-20.667,0-40.867,1.786-60.408,5.19c-4.917,0.856-5.901,2.256-0.335,3.032
		c18.825,2.622,39.313,4.061,60.745,4.061H500.001z"/>
	<path style="fill:#231F20;" d="M712.524,562.091c0,117.374-95.155,212.525-212.526,212.525
		c-117.37,0-212.522-95.152-212.522-212.525c0-117.372,95.152-212.524,212.522-212.524
		C617.369,349.568,712.524,444.719,712.524,562.091z M499.999,748.802c102.953,0,186.712-83.758,186.712-186.711
		c0-102.953-83.759-186.71-186.712-186.71c-102.951,0-186.708,83.758-186.708,186.71
		C313.29,665.045,397.047,748.802,499.999,748.802z"/>
	<circle style="fill:#0078BE;" cx="500" cy="562.091" r="178.839"/>
	<path style="fill:#231F20;" d="M544.63,735.317c-14.266,3.666-29.221,5.614-44.631,5.614c-14.799,0-29.179-1.797-42.932-5.186
		l0.164-0.166L673.497,519.31l0.157-0.147c3.388,13.753,5.185,28.13,5.185,42.928c0,15.408-1.948,30.363-5.613,44.628l-0.081,0.086
		L544.779,735.172L544.63,735.317z"/>
	<path style="fill:#231F20;" d="M397.211,708.46c-16.916-11.902-31.677-26.663-43.579-43.58l0.088-0.077L602.591,415.93l0.191-0.208
		c16.913,11.898,31.67,26.653,43.572,43.564l-0.125,0.149l-248.82,248.821L397.211,708.46z"/>
	<path style="fill:#231F20;" d="M326.351,605.036c-3.391-13.757-5.19-28.141-5.19-42.944c0-15.421,1.952-30.386,5.622-44.663
		l0.074-0.048l128.339-128.34l0.111-0.157c14.285-3.676,29.26-5.631,44.693-5.631c14.797,0,29.174,1.798,42.924,5.185l-0.141,0.158
		L326.489,604.886L326.351,605.036z"/>
	<path style="fill:#231F20;" d="M475.984,279.593c0,2.488-2.015,4.504-4.503,4.504c-2.489,0-4.503-2.016-4.503-4.504
		c0-2.489,2.015-4.503,4.503-4.503C473.969,275.089,475.984,277.104,475.984,279.593z"/>
	<path style="fill:#231F20;" d="M440.683,252.094c-3.216,0.614-6.416,1.277-9.599,1.988l-0.055-0.036
		c-6.081-5.751-15.735-15.688-22.658-26.702c-6.842-10.884-11.839-35.42,2.558-45.571c5.278-3.722,11.07-5.13,16.381-5.383
		l-0.048,0.093c-18.611,20.156-4.767,51.572,1.878,61.169c4.289,6.195,8.311,10.962,11.414,14.31L440.683,252.094z"/>
	<path style="fill:#231F20;" d="M452.396,243.87c-2.777-2.858-7.016-7.627-11.617-14.273c-2.777-4.012-7.989-14.056-8.52-24.225
		c-0.553-10.602,4.235-19.762,11.165-23.899c15.224-9.09,28.896-5.097,35.494-2.05l0.182,0.066
		c-7.043,1.956-20.185,7.556-22.204,22.359c-2.724,19.98,13.31,39.218,19.236,45.558l-0.136,0.001
		c-6.046,0.457-12.045,1.084-17.992,1.879C458.004,249.286,454.434,245.967,452.396,243.87z"/>
	<path style="fill:#231F20;" d="M554.018,283.964c0,3.048,2.471,5.52,5.519,5.52c3.049,0,5.518-2.471,5.518-5.52
		c0-3.048-2.47-5.519-5.518-5.519C556.489,278.445,554.018,280.916,554.018,283.964z"/>
	<path style="fill:#231F20;" d="M524.016,279.593c0,2.488,2.015,4.504,4.503,4.504c2.488,0,4.503-2.016,4.503-4.504
		c0-2.489-2.015-4.503-4.503-4.503C526.031,275.089,524.016,277.104,524.016,279.593z"/>
	<path style="fill:#231F20;" d="M559.317,252.094c3.216,0.614,6.416,1.277,9.599,1.988l0.055-0.036
		c6.081-5.751,15.735-15.688,22.658-26.702c6.842-10.884,11.839-35.42-2.557-45.571c-5.278-3.722-11.07-5.13-16.38-5.383
		l0.047,0.093c18.611,20.156,4.767,51.572-1.878,61.169c-4.289,6.195-8.311,10.962-11.414,14.31L559.317,252.094z"/>
	<path style="fill:#231F20;" d="M547.604,243.87c2.777-2.858,7.016-7.627,11.617-14.273c2.777-4.012,7.989-14.056,8.52-24.225
		c0.553-10.602-4.235-19.762-11.165-23.899c-15.225-9.09-28.896-5.097-35.494-2.05l-0.182,0.066
		c7.043,1.956,20.185,7.556,22.204,22.359c2.724,19.98-13.31,39.218-19.236,45.558l0.136,0.001
		c6.046,0.457,12.045,1.084,17.992,1.879C541.996,249.286,545.566,245.967,547.604,243.87z"/>
	<path style="fill:#B48A13;" d="M371.884,352.673c0.224,0.112,0.247,0.279,0.062,0.463c-1.372,1.353-7.722,7.075-17.837,8.073
		c-9.865,0.972-14.903-2.002-16.127-2.862c-0.201-0.141-0.178-0.333,0.053-0.521c1.615-1.327,8.586-6.7,16.683-7.752
		C363.62,348.919,370.328,351.901,371.884,352.673z"/>
	<path style="fill:#B48A13;" d="M263.236,584.372c0.236-0.12,0.392-0.033,0.43,0.239c0.281,2.006,1.131,10.957-4.368,20.122
		c-5.363,8.941-11.035,11.329-12.529,11.824c-0.245,0.081-0.392-0.058-0.407-0.372c-0.107-2.195-0.273-11.452,3.915-18.946
		C254.884,588.996,261.609,585.201,263.236,584.372z"/>
	<path style="fill:#B48A13;" d="M218.248,592.127c-0.254-0.051-0.378,0.073-0.342,0.341c0.27,1.987,1.858,10.738,9.508,18.009
		c7.464,7.093,13.468,7.863,15.013,7.939c0.254,0.012,0.313-0.154,0.286-0.463c-0.279-3.192-0.695-9.124-8.766-17.008
		C227.276,594.428,220.01,592.485,218.248,592.127z"/>
	<path style="fill:#B48A13;" d="M216.02,563.152c-0.244-0.07-0.375,0.041-0.361,0.307c0.107,1.961,0.969,10.634,7.871,18.34
		c6.733,7.516,12.536,8.741,14.04,8.936c0.248,0.032,0.319-0.125,0.316-0.429c-0.022-3.141,0.038-8.968-7.224-17.306
		C224.658,566.111,217.713,563.641,216.02,563.152z"/>
	<path style="fill:#B48A13;" d="M261.642,560.376c0.241-0.092,0.385,0.009,0.394,0.279c0.067,1.983-0.033,10.793-6.341,19.156
		c-6.153,8.157-11.927,9.896-13.434,10.225c-0.248,0.055-0.377-0.097-0.361-0.406c0.125-2.15,0.922-11.186,5.781-18.056
		C253.023,564.018,259.97,561.014,261.642,560.376z"/>
	<path style="fill:#B48A13;" d="M260.644,533.881c0.24-0.075,0.372,0.033,0.363,0.293c-0.068,1.925-0.748,10.441-7.406,18.117
		c-6.493,7.483-12.195,8.784-13.677,9.002c-0.243,0.035-0.356-0.12-0.32-0.417c0.263-2.073,1.633-10.763,6.79-17.086
		C252.063,536.832,258.984,534.387,260.644,533.881z"/>
	<path style="fill:#B48A13;" d="M265.228,509.492c0.246-0.041,0.361,0.08,0.32,0.335c-0.309,1.879-2.049,10.149-9.547,16.838
		c-7.314,6.524-13.071,7.082-14.551,7.108c-0.243,0.004-0.336-0.163-0.262-0.449c0.518-1.999,2.956-10.352,8.811-15.909
		C256.44,511.307,263.536,509.78,265.228,509.492z"/>
	<path style="fill:#B48A13;" d="M273.505,486.755c0.245-0.013,0.343,0.121,0.27,0.369c-0.536,1.827-3.267,9.824-11.41,15.617
		c-7.943,5.65-13.622,5.565-15.067,5.427c-0.238-0.024-0.307-0.198-0.198-0.474c0.756-1.924,4.176-9.926,10.577-14.778
		C264.716,487.579,271.821,486.855,273.505,486.755z"/>
	<path style="fill:#B48A13;" d="M285.008,464.684c0.247,0.031,0.323,0.181,0.211,0.413c-0.834,1.713-4.867,9.149-13.971,13.419
		c-8.88,4.166-14.561,3.054-15.988,2.659c-0.235-0.067-0.275-0.252-0.123-0.505c1.069-1.771,5.797-9.085,13-12.739
		C276.06,463.913,283.304,464.477,285.008,464.684z"/>
	<path style="fill:#B48A13;" d="M295.579,446.055c0.249,0.053,0.312,0.212,0.177,0.437c-1.003,1.667-5.78,8.855-15.423,12.366
		c-9.405,3.423-15.078,1.777-16.49,1.244c-0.234-0.089-0.258-0.281-0.08-0.524c1.248-1.702,6.718-8.705,14.374-11.763
		C286.556,444.453,293.865,445.688,295.579,446.055z"/>
	<path style="fill:#B48A13;" d="M308.839,425.766c0.242,0.078,0.289,0.243,0.131,0.454c-1.166,1.557-6.648,8.224-16.595,10.74
		c-9.704,2.455-15.181,0.241-16.533-0.432c-0.222-0.11-0.228-0.305-0.026-0.53c1.415-1.565,7.566-7.979,15.493-10.246
		C300.023,423.259,307.171,425.228,308.839,425.766z"/>
	<path style="fill:#B48A13;" d="M321.369,404.486c0.242,0.079,0.291,0.245,0.131,0.458c-1.179,1.572-6.722,8.308-16.777,10.844
		c-9.809,2.473-15.343,0.234-16.708-0.449c-0.225-0.112-0.23-0.308-0.026-0.535c1.43-1.582,7.651-8.059,15.663-10.345
		C312.461,401.946,319.682,403.942,321.369,404.486z"/>
	<path style="fill:#B48A13;" d="M339.34,386.432c0.233,0.097,0.269,0.264,0.094,0.462c-1.286,1.459-7.284,7.672-17.407,9.39
		c-9.873,1.673-15.16-0.97-16.454-1.75c-0.213-0.127-0.203-0.322,0.016-0.529c1.535-1.45,8.181-7.355,16.267-8.986
		C330.748,383.229,337.718,385.764,339.34,386.432z"/>
	<path style="fill:#B48A13;" d="M357.457,369.364c0.223,0.112,0.245,0.28,0.06,0.462c-1.374,1.35-7.737,7.059-17.853,8.037
		c-9.868,0.952-14.9-2.033-16.122-2.896c-0.201-0.14-0.178-0.332,0.053-0.52c1.618-1.323,8.6-6.682,16.699-7.718
		C349.199,365.591,355.903,368.589,357.457,369.364z"/>
	<path style="fill:#B48A13;" d="M350.885,345.069c-0.101,0.446,0.114,0.7,0.562,0.679c2.232-0.103,9.535-0.818,16.934-5.673
		c7.654-5.024,10.464-11.387,11.096-13.05c0.1-0.267-0.05-0.441-0.41-0.472c-2.199-0.186-10.549-0.461-18.319,5.056
		C353.294,336.901,351.346,343.033,350.885,345.069z"/>
	<path style="fill:#B48A13;" d="M218.159,531.289c-0.22-0.116-0.369-0.037-0.407,0.221c-0.296,1.901-1.228,10.389,3.825,19.172
		c4.929,8.567,10.244,10.918,11.646,11.41c0.23,0.082,0.329-0.054,0.388-0.346c0.617-3.013,1.855-8.587-3.415-18.049
		C225.837,535.874,219.683,532.1,218.159,531.289z"/>
	<path style="fill:#B48A13;" d="M223.466,501.765c-0.208-0.134-0.363-0.067-0.425,0.185c-0.461,1.869-2.129,10.243,2.138,19.433
		c4.162,8.965,9.252,11.77,10.606,12.383c0.221,0.101,0.333-0.026,0.418-0.312c0.877-2.948,2.597-8.392-1.828-18.279
		C230.715,507.003,224.913,502.708,223.466,501.765z"/>
	<path style="fill:#B48A13;" d="M233.178,474.408c-0.185-0.158-0.345-0.112-0.436,0.125c-0.685,1.758-3.373,9.683-0.397,19.156
		c2.904,9.24,7.491,12.614,8.73,13.382c0.203,0.126,0.326,0.017,0.446-0.251c1.227-2.753,3.592-7.824,0.55-17.993
		C239.555,480.421,234.464,475.508,233.178,474.408z"/>
	<path style="fill:#B48A13;" d="M244.068,446.92c-0.171-0.172-0.336-0.137-0.444,0.1c-0.818,1.746-4.099,9.651-1.854,19.489
		c2.191,9.599,6.509,13.325,7.684,14.185c0.191,0.143,0.324,0.038,0.464-0.226c1.432-2.728,4.176-7.745,1.917-18.299
		C249.967,453.448,245.267,448.12,244.068,446.92z"/>
	<path style="fill:#B48A13;" d="M258.419,423.009c-0.144-0.196-0.312-0.186-0.454,0.032c-1.07,1.604-5.5,8.928-4.757,18.991
		c0.727,9.818,4.435,14.15,5.468,15.177c0.168,0.169,0.315,0.086,0.493-0.154c1.825-2.483,5.29-7.032,4.641-17.805
		C263.271,430.348,259.424,424.375,258.419,423.009z"/>
	<path style="fill:#B48A13;" d="M272.844,399.696c-0.136-0.201-0.304-0.198-0.454,0.013c-1.141,1.556-5.884,8.68-5.577,18.767
		c0.3,9.842,3.817,14.329,4.806,15.401c0.159,0.176,0.309,0.1,0.498-0.134c1.931-2.399,5.591-6.795,5.409-17.586
		C277.374,407.24,273.79,401.106,272.844,399.696z"/>
	<path style="fill:#B48A13;" d="M288.078,376.645c-0.127-0.207-0.296-0.209-0.456-0.003c-1.192,1.516-6.182,8.469-6.231,18.56
		c-0.044,9.847,3.314,14.455,4.264,15.56c0.156,0.182,0.307,0.111,0.503-0.115c2.015-2.332,5.825-6.596,6.022-17.387
		C292.341,384.343,288.974,378.087,288.078,376.645z"/>
	<path style="fill:#B48A13;" d="M306.703,355.75c-0.111-0.22-0.28-0.239-0.459-0.045c-1.333,1.419-6.965,7.971-7.888,18.125
		c-0.899,9.905,2.086,14.846,2.946,16.042c0.14,0.198,0.301,0.141,0.517-0.07c2.232-2.167,6.443-6.116,7.578-16.961
		C310.333,363.88,307.482,357.281,306.703,355.75z"/>
	<path style="fill:#B48A13;" d="M324.942,337.474c-0.109-0.221-0.276-0.243-0.459-0.052c-1.355,1.397-7.092,7.858-8.178,17.995
		c-1.059,9.89,1.847,14.878,2.687,16.089c0.137,0.2,0.299,0.146,0.518-0.062c2.268-2.13,6.541-6.013,7.85-16.836
		C328.44,345.662,325.696,339.018,324.942,337.474z"/>
	<path style="fill:#B48A13;" d="M347.739,322.773c-0.063-0.238-0.223-0.292-0.439-0.141c-1.602,1.106-8.49,6.322-11.534,16.052
		c-2.969,9.491-1.094,14.951-0.505,16.302c0.095,0.223,0.264,0.201,0.52,0.041c2.64-1.647,7.588-4.619,10.985-14.979
		C349.572,331.486,348.178,324.434,347.739,322.773z"/>
	<path style="fill:#B48A13;" d="M628.116,352.673c-0.224,0.112-0.247,0.279-0.061,0.463c1.371,1.353,7.721,7.075,17.837,8.073
		c9.865,0.972,14.903-2.002,16.127-2.862c0.202-0.141,0.178-0.333-0.053-0.521c-1.614-1.327-8.585-6.7-16.683-7.752
		C636.38,348.919,629.672,351.901,628.116,352.673z"/>
	<path style="fill:#B48A13;" d="M736.764,584.372c-0.236-0.12-0.392-0.033-0.43,0.239c-0.281,2.006-1.131,10.957,4.368,20.122
		c5.363,8.941,11.035,11.329,12.529,11.824c0.245,0.081,0.392-0.058,0.407-0.372c0.107-2.195,0.274-11.452-3.915-18.946
		C745.116,588.996,738.391,585.201,736.764,584.372z"/>
	<path style="fill:#B48A13;" d="M781.751,592.127c0.254-0.051,0.378,0.073,0.341,0.341c-0.269,1.987-1.857,10.738-9.508,18.009
		c-7.464,7.093-13.468,7.863-15.013,7.939c-0.254,0.012-0.313-0.154-0.286-0.463c0.279-3.192,0.695-9.124,8.766-17.008
		C772.724,594.428,779.99,592.485,781.751,592.127z"/>
	<path style="fill:#B48A13;" d="M783.98,563.152c0.244-0.07,0.376,0.041,0.361,0.307c-0.107,1.961-0.969,10.634-7.871,18.34
		c-6.733,7.516-12.537,8.741-14.041,8.936c-0.248,0.032-0.318-0.125-0.316-0.429c0.022-3.141-0.038-8.968,7.225-17.306
		C775.343,566.111,782.287,563.641,783.98,563.152z"/>
	<path style="fill:#B48A13;" d="M738.358,560.376c-0.242-0.092-0.385,0.009-0.394,0.279c-0.067,1.983,0.033,10.793,6.341,19.156
		c6.153,8.157,11.927,9.896,13.434,10.225c0.249,0.055,0.377-0.097,0.361-0.406c-0.126-2.15-0.922-11.186-5.78-18.056
		C746.977,564.018,740.03,561.014,738.358,560.376z"/>
	<path style="fill:#B48A13;" d="M739.356,533.881c-0.24-0.075-0.372,0.033-0.363,0.293c0.068,1.925,0.748,10.441,7.406,18.117
		c6.493,7.483,12.195,8.784,13.677,9.002c0.243,0.035,0.356-0.12,0.32-0.417c-0.264-2.073-1.633-10.763-6.789-17.086
		C747.937,536.832,741.016,534.387,739.356,533.881z"/>
	<path style="fill:#B48A13;" d="M734.772,509.492c-0.246-0.041-0.361,0.08-0.32,0.335c0.309,1.879,2.049,10.149,9.547,16.838
		c7.314,6.524,13.071,7.082,14.551,7.108c0.243,0.004,0.336-0.163,0.262-0.449c-0.518-1.999-2.957-10.352-8.811-15.909
		C743.56,511.307,736.464,509.78,734.772,509.492z"/>
	<path style="fill:#B48A13;" d="M726.495,486.755c-0.245-0.013-0.343,0.121-0.271,0.369c0.536,1.827,3.267,9.824,11.41,15.617
		c7.943,5.65,13.622,5.565,15.067,5.427c0.238-0.024,0.307-0.198,0.198-0.474c-0.756-1.924-4.176-9.926-10.577-14.778
		C735.284,487.579,728.179,486.855,726.495,486.755z"/>
	<path style="fill:#B48A13;" d="M714.992,464.684c-0.247,0.031-0.323,0.181-0.211,0.413c0.834,1.713,4.867,9.149,13.972,13.419
		c8.88,4.166,14.561,3.054,15.988,2.659c0.235-0.067,0.275-0.252,0.123-0.505c-1.069-1.771-5.797-9.085-13-12.739
		C723.94,463.913,716.696,464.477,714.992,464.684z"/>
	<path style="fill:#B48A13;" d="M704.421,446.055c-0.248,0.053-0.312,0.212-0.177,0.437c1.003,1.667,5.78,8.855,15.424,12.366
		c9.405,3.423,15.078,1.777,16.49,1.244c0.233-0.089,0.258-0.281,0.08-0.524c-1.248-1.702-6.718-8.705-14.374-11.763
		C713.444,444.453,706.134,445.688,704.421,446.055z"/>
	<path style="fill:#B48A13;" d="M691.162,425.766c-0.242,0.078-0.289,0.243-0.132,0.454c1.166,1.557,6.648,8.224,16.596,10.74
		c9.704,2.455,15.181,0.241,16.533-0.432c0.222-0.11,0.228-0.305,0.026-0.53c-1.415-1.565-7.566-7.979-15.492-10.246
		C699.977,423.259,692.829,425.228,691.162,425.766z"/>
	<path style="fill:#B48A13;" d="M678.631,404.486c-0.242,0.079-0.291,0.245-0.131,0.458c1.179,1.572,6.722,8.308,16.778,10.844
		c9.809,2.473,15.342,0.234,16.707-0.449c0.225-0.112,0.23-0.308,0.026-0.535c-1.43-1.582-7.651-8.059-15.663-10.345
		C687.539,401.946,680.318,403.942,678.631,404.486z"/>
	<path style="fill:#B48A13;" d="M660.66,386.432c-0.233,0.097-0.268,0.264-0.093,0.462c1.286,1.459,7.284,7.672,17.407,9.39
		c9.873,1.673,15.16-0.97,16.454-1.75c0.213-0.127,0.203-0.322-0.016-0.529c-1.535-1.45-8.181-7.355-16.267-8.986
		C669.252,383.229,662.282,385.764,660.66,386.432z"/>
	<path style="fill:#B48A13;" d="M642.543,369.364c-0.223,0.112-0.245,0.28-0.06,0.462c1.374,1.35,7.737,7.059,17.853,8.037
		c9.868,0.952,14.901-2.033,16.122-2.896c0.201-0.14,0.178-0.332-0.053-0.52c-1.618-1.323-8.6-6.682-16.699-7.718
		C650.801,365.591,644.097,368.589,642.543,369.364z"/>
	<path style="fill:#B48A13;" d="M649.115,345.069c0.101,0.446-0.114,0.7-0.562,0.679c-2.232-0.103-9.535-0.818-16.934-5.673
		c-7.654-5.024-10.464-11.387-11.096-13.05c-0.1-0.267,0.05-0.441,0.41-0.472c2.199-0.186,10.549-0.461,18.319,5.056
		C646.706,336.901,648.654,343.033,649.115,345.069z"/>
	<path style="fill:#B48A13;" d="M781.841,531.289c0.22-0.116,0.368-0.037,0.407,0.221c0.295,1.901,1.228,10.389-3.825,19.172
		c-4.929,8.567-10.244,10.918-11.646,11.41c-0.23,0.082-0.329-0.054-0.388-0.346c-0.617-3.013-1.855-8.587,3.415-18.049
		C774.163,535.874,780.317,532.1,781.841,531.289z"/>
	<path style="fill:#B48A13;" d="M776.534,501.765c0.208-0.134,0.363-0.067,0.425,0.185c0.461,1.869,2.129,10.243-2.138,19.433
		c-4.163,8.965-9.252,11.77-10.606,12.383c-0.222,0.101-0.333-0.026-0.418-0.312c-0.877-2.948-2.597-8.392,1.828-18.279
		C769.285,507.003,775.087,502.708,776.534,501.765z"/>
	<path style="fill:#B48A13;" d="M766.823,474.408c0.185-0.158,0.344-0.112,0.436,0.125c0.685,1.758,3.373,9.683,0.397,19.156
		c-2.904,9.24-7.491,12.614-8.73,13.382c-0.202,0.126-0.326,0.017-0.446-0.251c-1.227-2.753-3.591-7.824-0.55-17.993
		C760.445,480.421,765.536,475.508,766.823,474.408z"/>
	<path style="fill:#B48A13;" d="M755.932,446.92c0.171-0.172,0.336-0.137,0.444,0.1c0.818,1.746,4.099,9.651,1.854,19.489
		c-2.191,9.599-6.509,13.325-7.684,14.185c-0.191,0.143-0.324,0.038-0.464-0.226c-1.432-2.728-4.176-7.745-1.917-18.299
		C750.033,453.448,754.733,448.12,755.932,446.92z"/>
	<path style="fill:#B48A13;" d="M741.581,423.009c0.144-0.196,0.312-0.186,0.455,0.032c1.07,1.604,5.5,8.928,4.756,18.991
		c-0.727,9.818-4.436,14.15-5.468,15.177c-0.169,0.169-0.316,0.086-0.494-0.154c-1.825-2.483-5.29-7.032-4.641-17.805
		C736.728,430.348,740.576,424.375,741.581,423.009z"/>
	<path style="fill:#B48A13;" d="M727.155,399.696c0.136-0.201,0.304-0.198,0.454,0.013c1.141,1.556,5.884,8.68,5.578,18.767
		c-0.299,9.842-3.817,14.329-4.806,15.401c-0.159,0.176-0.31,0.1-0.499-0.134c-1.931-2.399-5.591-6.795-5.409-17.586
		C722.626,407.24,726.21,401.106,727.155,399.696z"/>
	<path style="fill:#B48A13;" d="M711.922,376.645c0.128-0.207,0.296-0.209,0.456-0.003c1.192,1.516,6.182,8.469,6.231,18.56
		c0.044,9.847-3.314,14.455-4.264,15.56c-0.156,0.182-0.308,0.111-0.503-0.115c-2.015-2.332-5.825-6.596-6.022-17.387
		C707.659,384.343,711.026,378.087,711.922,376.645z"/>
	<path style="fill:#B48A13;" d="M693.297,355.75c0.111-0.22,0.28-0.239,0.459-0.045c1.333,1.419,6.965,7.971,7.888,18.125
		c0.899,9.905-2.086,14.846-2.947,16.042c-0.14,0.198-0.301,0.141-0.517-0.07c-2.232-2.167-6.443-6.116-7.578-16.961
		C689.667,363.88,692.518,357.281,693.297,355.75z"/>
	<path style="fill:#B48A13;" d="M675.058,337.474c0.109-0.221,0.276-0.243,0.459-0.052c1.355,1.397,7.091,7.858,8.178,17.995
		c1.059,9.89-1.847,14.878-2.687,16.089c-0.137,0.2-0.299,0.146-0.518-0.062c-2.268-2.13-6.541-6.013-7.85-16.836
		C671.56,345.662,674.305,339.018,675.058,337.474z"/>
	<path style="fill:#B48A13;" d="M652.261,322.773c0.063-0.238,0.223-0.292,0.439-0.141c1.602,1.106,8.49,6.322,11.535,16.052
		c2.969,9.491,1.094,14.951,0.505,16.302c-0.095,0.223-0.264,0.201-0.52,0.041c-2.64-1.647-7.589-4.619-10.985-14.979
		C650.428,331.486,651.822,324.434,652.261,322.773z"/>
</g>
</svg>
