<?xml version="1.0" encoding="iso-8859-1"?>
<!-- Generator: Adobe Illustrator 26.0.1, SVG Export Plug-In . SVG Version: 6.00 Build 0)  -->
<svg version="1.1" id="Layer_1" xmlns="http://www.w3.org/2000/svg" xmlns:xlink="http://www.w3.org/1999/xlink" x="0px" y="0px"
	 viewBox="0 0 1000 1000" style="enable-background:new 0 0 1000 1000;" xml:space="preserve">
<g id="watermark_1_">
	<g>
		<g id="watermark" style="opacity:0.61;">
			<g>
				<g>
					<g>
						<g>
							<polygon style="fill:#FFFFFF;" points="421.112,924.528 409.007,952.493 402.615,952.493 390.55,924.528 397.541,924.528 
								406.051,944.503 414.68,924.528 							"/>
						</g>
						<g>
							<path style="fill:#FFFFFF;" d="M442.323,943.185h-16.26c0.599,2.677,2.876,4.315,6.153,4.315
								c2.277,0,3.915-0.679,5.393-2.077l3.316,3.595c-1.997,2.278-4.994,3.476-8.868,3.476c-7.431,0-12.265-4.674-12.265-11.067
								c0-6.432,4.914-11.066,11.466-11.066c6.312,0,11.186,4.235,11.186,11.146C442.443,941.987,442.363,942.666,442.323,943.185
								 M425.983,939.55h10.587c-0.44-2.717-2.478-4.475-5.274-4.475C428.46,935.075,426.422,936.793,425.983,939.55"/>
						</g>
						<g>
							<path style="fill:#FFFFFF;" d="M444.997,941.427c0-6.471,4.994-11.066,11.985-11.066c4.514,0,8.07,1.958,9.628,5.473
								l-4.834,2.597c-1.159-2.038-2.877-2.956-4.834-2.956c-3.156,0-5.633,2.198-5.633,5.952c0,3.756,2.477,5.953,5.633,5.953
								c1.958,0,3.675-0.879,4.834-2.956l4.834,2.637c-1.558,3.436-5.114,5.433-9.628,5.433
								C449.991,952.493,444.997,947.899,444.997,941.427"/>
						</g>
						<g>
							<path style="fill:#FFFFFF;" d="M484.386,951.135c-1.279,0.919-3.157,1.358-5.074,1.358c-5.073,0-8.03-2.597-8.03-7.711
								v-8.829h-3.316v-4.794h3.316v-5.233h6.232v5.233h5.353v4.794h-5.353v8.749c0,1.837,0.998,2.836,2.677,2.836
								c0.918,0,1.837-0.279,2.517-0.799L484.386,951.135z"/>
						</g>
					</g>
					<g>
						<path style="fill:#FFFFFF;" d="M527.157,930.68v5.753c-0.519-0.04-0.918-0.08-1.398-0.08c-3.435,0-5.713,1.877-5.713,5.993
							v10.147h-6.232V931h5.953v2.836C521.284,931.759,523.841,930.68,527.157,930.68"/>
					</g>
					<g>
						<path style="fill:#FFFFFF;" d="M528.954,949.257l2.197-4.874c2.357,1.718,5.873,2.916,9.229,2.916
							c3.836,0,5.393-1.278,5.393-2.996c0-5.233-16.26-1.638-16.26-12.025c0-4.754,3.835-8.709,11.785-8.709
							c3.516,0,7.112,0.839,9.708,2.477l-1.998,4.914c-2.597-1.478-5.273-2.197-7.75-2.197c-3.835,0-5.313,1.438-5.313,3.196
							c0,5.154,16.259,1.598,16.259,11.865c0,4.675-3.875,8.67-11.865,8.67C535.905,952.493,531.43,951.175,528.954,949.257"/>
					</g>
					<g>
						<path style="fill:#FFFFFF;" d="M577.131,943.185h-16.26c0.599,2.677,2.876,4.315,6.153,4.315c2.277,0,3.915-0.679,5.393-2.077
							l3.316,3.595c-1.998,2.278-4.994,3.476-8.869,3.476c-7.431,0-12.265-4.674-12.265-11.067c0-6.432,4.914-11.066,11.466-11.066
							c6.312,0,11.187,4.235,11.187,11.146C577.251,941.987,577.171,942.666,577.131,943.185 M560.791,939.55h10.587
							c-0.439-2.717-2.477-4.475-5.273-4.475C563.268,935.075,561.231,936.793,560.791,939.55"/>
					</g>
					<g>
						<path style="fill:#FFFFFF;" d="M602.337,943.185h-16.26c0.599,2.677,2.876,4.315,6.152,4.315c2.277,0,3.915-0.679,5.393-2.077
							l3.316,3.595c-1.998,2.278-4.994,3.476-8.869,3.476c-7.431,0-12.265-4.674-12.265-11.067c0-6.432,4.914-11.066,11.466-11.066
							c6.312,0,11.186,4.235,11.186,11.146C602.457,941.987,602.377,942.666,602.337,943.185 M585.997,939.55h10.587
							c-0.439-2.717-2.477-4.475-5.273-4.475C588.474,935.075,586.437,936.793,585.997,939.55"/>
					</g>
					<g>
						<polygon style="fill:#FFFFFF;" points="615.838,944.064 612.841,947.02 612.841,952.493 606.61,952.493 606.61,922.85 
							612.841,922.85 612.841,939.629 621.95,931 629.381,931 620.432,940.108 630.18,952.493 622.63,952.493 						"/>
					</g>
					<g>
						<path style="fill:#FFFFFF;" d="M514.371,955.416L514.371,955.416l-6.226-6.226c-0.947,1.107-2.075,2.054-3.339,2.796
							c-0.201,0.15-0.406,0.296-0.616,0.433l6.589,6.589c0.992,0.992,2.601,0.992,3.592,0
							C515.363,958.017,515.363,956.408,514.371,955.416"/>
					</g>
					<g>
						<path style="fill:#FFFFFF;" d="M499.965,929.04c0.48-0.377,1.077-0.612,1.735-0.612c0.091,0,0.181,0.005,0.27,0.013
							c-0.466-0.34-1.041-0.542-1.663-0.542c-0.859,0-1.619,0.392-2.137,0.998c-0.111,0-0.218,0.013-0.328,0.016
							c0.086-0.167,0.139-0.354,0.139-0.555c0-0.509-0.311-0.945-0.752-1.13c0.19,0.275,0.301,0.608,0.301,0.968
							c0,0.267-0.066,0.517-0.176,0.742c-6.119,0.437-10.95,5.527-10.95,11.757c0,6.516,5.283,11.799,11.799,11.799
							c6.517,0,11.8-5.283,11.8-11.799C510.004,934.777,505.644,929.892,499.965,929.04 M495.61,932.114
							c0.947,0,1.837,0.244,2.611,0.674c0.813-0.532,1.785-0.842,2.828-0.842c1.547,0,2.934,0.68,3.883,1.756
							c-0.948-0.826-2.186-1.328-3.541-1.328c-0.977,0-1.895,0.261-2.686,0.716c-0.172,0.1-0.34,0.208-0.499,0.326
							c-0.142-0.104-0.29-0.203-0.444-0.292c-0.803-0.476-1.741-0.749-2.743-0.749c-0.653,0-1.279,0.117-1.86,0.331
							C493.895,932.328,494.727,932.114,495.61,932.114 M503.858,941.785c0.25,0.664,0.394,1.38,0.394,2.131
							c0,3.34-2.707,6.047-6.047,6.047c-3.339,0-6.047-2.707-6.047-6.047c0-0.751,0.143-1.467,0.394-2.131
							c-1.35-0.831-2.253-2.317-2.253-4.019c0-2.607,2.114-4.72,4.72-4.72c1.23,0,2.346,0.474,3.186,1.244
							c0.84-0.77,1.956-1.244,3.186-1.244c2.607,0,4.72,2.113,4.72,4.72C506.111,939.467,505.208,940.954,503.858,941.785"/>
					</g>
					<g>
						<path style="fill:#FFFFFF;" d="M503.627,937.351c0,1.082-0.879,1.961-1.961,1.961c-1.082,0-1.961-0.879-1.961-1.961
							s0.879-1.961,1.961-1.961c0.22,0,0.428,0.037,0.625,0.102c-0.065,0.135-0.099,0.287-0.099,0.445
							c0,0.595,0.482,1.076,1.077,1.076c0.11,0,0.217-0.017,0.318-0.048C503.613,937.089,503.627,937.218,503.627,937.351"/>
					</g>
					<g>
						<path style="fill:#FFFFFF;" d="M496.201,937.351c0,0.818-0.665,1.482-1.483,1.482c-0.818,0-1.483-0.664-1.483-1.482
							s0.665-1.483,1.483-1.483c0.166,0,0.324,0.027,0.473,0.077c-0.049,0.102-0.075,0.217-0.075,0.337
							c0,0.449,0.364,0.814,0.814,0.814c0.083,0,0.164-0.013,0.241-0.036C496.191,937.153,496.201,937.251,496.201,937.351"/>
					</g>
					<g>
						<g>
							<g>
								<rect x="484.56" y="939.024" style="fill:#FFFFFF;" width="1.34" height="1.34"/>
							</g>
							<g>
								<rect x="510.51" y="939.024" style="fill:#FFFFFF;" width="1.34" height="1.34"/>
							</g>
							<g>
								<path style="fill:#FFFFFF;" d="M511.332,939.572h-0.304c0-7.07-5.752-12.823-12.823-12.823
									c-7.07,0-12.823,5.753-12.823,12.823h-0.305c0-3.506,1.365-6.803,3.845-9.282c2.479-2.48,5.776-3.845,9.282-3.845
									c3.507,0,6.803,1.365,9.283,3.845C509.966,932.769,511.332,936.065,511.332,939.572"/>
							</g>
						</g>
						<g>
							<rect x="497.534" y="925.927" style="fill:#FFFFFF;" width="1.34" height="1.34"/>
						</g>
						<g>
							<rect x="489.006" y="926.445" style="fill:#FFFFFF;" width="18.397" height="0.304"/>
						</g>
						<g>
							<path style="fill:#FFFFFF;" d="M489.494,926.658c0,0.235-0.191,0.427-0.427,0.427c-0.235,0-0.426-0.191-0.426-0.427
								s0.191-0.427,0.426-0.427C489.303,926.231,489.494,926.422,489.494,926.658"/>
						</g>
						<g>
							<path style="fill:#FFFFFF;" d="M507.829,926.658c0,0.235-0.191,0.427-0.427,0.427c-0.235,0-0.426-0.191-0.426-0.427
								s0.191-0.427,0.426-0.427C507.639,926.231,507.829,926.422,507.829,926.658"/>
						</g>
					</g>
				</g>
				<g>
					<path style="fill:#FFFFFF;" d="M640.109,951.171c0,3.395-5.146,3.395-5.146,0C634.963,947.779,640.109,947.779,640.109,951.171
						z"/>
				</g>
				<g>
					<g>
						<g>
							<path style="fill:#FFFFFF;" d="M307.849,936.236l3.859,13.253l4.038-13.253h4.823l-6.145,17.721h-5.073l-1.822-5.216
								l-1.572-5.896l-1.571,5.896l-1.822,5.216h-5.073l-6.18-17.721h4.858l4.038,13.253l3.822-13.253H307.849z"/>
						</g>
						<g>
							<path style="fill:#FFFFFF;" d="M340.449,936.236l3.859,13.253l4.038-13.253h4.823l-6.145,17.721h-5.073l-1.822-5.216
								l-1.571-5.896l-1.572,5.896l-1.822,5.216h-5.073l-6.18-17.721h4.858l4.038,13.253l3.822-13.253H340.449z"/>
						</g>
						<g>
							<path style="fill:#FFFFFF;" d="M373.048,936.236l3.859,13.253l4.038-13.253h4.823l-6.145,17.721h-5.073l-1.822-5.216
								l-1.572-5.896l-1.571,5.896l-1.822,5.216h-5.073l-6.18-17.721h4.858l4.038,13.253l3.822-13.253H373.048z"/>
						</g>
					</g>
					<g>
						<path style="fill:#FFFFFF;" d="M393.123,951.412c0,3.395-5.146,3.395-5.146,0C387.977,948.02,393.123,948.02,393.123,951.412z
							"/>
					</g>
					<g>
						<path style="fill:#FFFFFF;" d="M658.296,951.171c-2.036,2.001-4.177,2.787-6.787,2.787c-5.108,0-9.361-3.072-9.361-9.323
							c0-6.251,4.253-9.326,9.361-9.326c2.502,0,4.43,0.716,6.359,2.609l-2.752,2.894c-1.036-0.931-2.321-1.393-3.534-1.393
							c-2.929,0-5.073,2.144-5.073,5.216c0,3.357,2.286,5.143,5,5.143c1.393,0,2.787-0.393,3.857-1.463L658.296,951.171z"/>
					</g>
					<g>
						<path style="fill:#FFFFFF;" d="M678.097,944.777c0,5.073-3.465,9.181-9.181,9.181c-5.716,0-9.146-4.107-9.146-9.181
							c0-5.038,3.502-9.181,9.111-9.181S678.097,939.739,678.097,944.777z M664.128,944.777c0,2.679,1.609,5.181,4.788,5.181
							c3.179,0,4.788-2.502,4.788-5.181c0-2.644-1.859-5.216-4.788-5.216C665.772,939.561,664.128,942.133,664.128,944.777z"/>
					</g>
					<g>
						<path style="fill:#FFFFFF;" d="M692.828,953.958v-9.431c0-2.324-1.216-4.43-3.61-4.43c-2.356,0-3.75,2.106-3.75,4.43v9.431
							h-4.36v-17.649h4.038l0.323,2.144c0.928-1.786,2.964-2.429,4.643-2.429c2.109,0,4.218,0.858,5.216,3.287
							c1.574-2.502,3.61-3.217,5.896-3.217c5,0,7.467,3.075,7.467,8.36v9.504h-4.361v-9.504c0-2.321-0.963-4.288-3.322-4.288
							c-2.356,0-3.822,2.036-3.822,4.36v9.431H692.828z"/>
					</g>
				</g>
			</g>
		</g>
		<g style="opacity:0.61;">
			<g>
				<g>
					<path style="fill:#FFFFFF;" d="M708.973,859.493c-0.013-2.665-2.087-4.618-4.766-4.659c-2.011-0.031-1.81,0.261-1.815-1.887
						c-0.006-2.389-0.015-4.778,0.006-7.166c0.007-0.824-0.243-1.505-0.787-2.125c-5.098-5.81-10.184-11.63-15.281-17.441
						c-0.262-0.299-0.599-0.532-0.901-0.796c-13.528,0-27.055,0-40.583,0c-1.729,0.639-2.482,1.889-2.478,3.72
						c0.021,8.159,0.009,16.318,0.008,24.478c0,1.21-0.007,1.281-1.197,1.201c-3.258-0.221-5.477,2.147-5.436,5.426
						c0.096,7.568,0.028,15.137,0.031,22.706c0.001,3.44,1.887,5.32,5.333,5.331c1.267,0.004,1.268,0.004,1.268,1.306
						c0.001,4.831-0.002,9.662,0.002,14.493c0.002,2.595,1.262,3.855,3.85,3.855c17.446,0.001,34.891,0.001,52.337,0
						c2.543,0,3.822-1.268,3.824-3.799c0.005-4.912,0.001-9.823,0.003-14.735c0-1.115,0.005-1.112,1.131-1.121
						c0.589-0.005,1.177,0.017,1.761-0.127c2.169-0.535,3.68-2.273,3.689-4.503C709.007,875.597,709.011,867.545,708.973,859.493z
						 M647.034,828.716c11.619-0.001,23.237-0.001,34.856,0c1.193,0,1.206,0.015,1.207,1.222c0.001,4.884-0.002,9.767,0.002,14.651
						c0.001,1.765,0.543,2.305,2.307,2.306c4.159,0.003,8.318,0,12.477,0.003c0.997,0.001,1.044,0.046,1.046,1.052
						c0.006,1.932,0.005,3.864,0,5.796c-0.003,1.038-0.051,1.085-1.098,1.085c-8.479,0.002-16.958,0.001-25.438,0.001
						c-8.452,0-16.905,0-25.357,0c-1.198,0-1.202-0.003-1.202-1.221c-0.001-7.889-0.001-15.778,0-23.667
						C645.835,828.724,645.844,828.716,647.034,828.716z M697.728,903.645c-8.454,0.001-16.908,0.001-25.362,0.001
						c-8.427,0-16.854,0.001-25.281,0c-1.245,0-1.249-0.003-1.249-1.262c-0.001-4.348-0.003-8.696,0.001-13.043
						c0.001-1.01,0.051-1.059,1.041-1.059c16.989-0.002,33.977-0.002,50.966,0c1.041,0,1.086,0.044,1.087,1.094
						c0.003,4.348,0.003,8.696,0.001,13.043C698.931,903.634,698.92,903.645,697.728,903.645z"/>
				</g>
				<g>
					<g>
						<rect x="668.546" y="828.478" style="fill:#FFFFFF;" width="3.825" height="2.295"/>
					</g>
					<g>
						<rect x="664.722" y="830.773" style="fill:#FFFFFF;" width="3.825" height="2.295"/>
					</g>
					<g>
						<rect x="668.546" y="833.068" style="fill:#FFFFFF;" width="3.825" height="2.295"/>
					</g>
					<g>
						<rect x="664.722" y="835.363" style="fill:#FFFFFF;" width="3.825" height="2.295"/>
					</g>
					<g>
						<rect x="668.546" y="837.658" style="fill:#FFFFFF;" width="3.825" height="2.295"/>
					</g>
					<g>
						<rect x="664.722" y="839.953" style="fill:#FFFFFF;" width="3.825" height="2.295"/>
					</g>
					<g>
						<rect x="668.546" y="842.247" style="fill:#FFFFFF;" width="3.825" height="2.295"/>
					</g>
					<g>
						<rect x="664.722" y="844.542" style="fill:#FFFFFF;" width="3.825" height="2.295"/>
					</g>
					<g>
						<rect x="668.546" y="846.837" style="fill:#FFFFFF;" width="3.825" height="2.295"/>
					</g>
					<g>
						<rect x="664.722" y="849.132" style="fill:#FFFFFF;" width="3.825" height="2.295"/>
					</g>
					<g>
						<rect x="668.546" y="851.427" style="fill:#FFFFFF;" width="3.825" height="2.295"/>
					</g>
					<g>
						<rect x="664.722" y="853.722" style="fill:#FFFFFF;" width="3.825" height="2.295"/>
					</g>
				</g>
			</g>
			<g>
				<path style="fill:#FFFFFF;" d="M364.231,859.493c-0.013-2.665-2.087-4.618-4.766-4.659c-2.011-0.031-1.81,0.261-1.815-1.887
					c-0.006-2.389-0.015-4.778,0.006-7.166c0.007-0.824-0.243-1.505-0.787-2.125c-5.098-5.81-10.184-11.63-15.281-17.441
					c-0.262-0.299-0.599-0.532-0.901-0.796c-13.528,0-27.055,0-40.583,0c-1.729,0.639-2.482,1.889-2.478,3.72
					c0.021,8.159,0.009,16.318,0.008,24.478c0,1.21-0.007,1.281-1.197,1.201c-3.258-0.221-5.477,2.147-5.436,5.426
					c0.096,7.568,0.028,15.137,0.031,22.706c0.001,3.44,1.887,5.32,5.333,5.331c1.267,0.004,1.268,0.004,1.268,1.306
					c0.001,4.831-0.002,9.662,0.002,14.493c0.002,2.595,1.262,3.855,3.85,3.855c17.446,0.001,34.891,0.001,52.337,0
					c2.543,0,3.822-1.268,3.824-3.799c0.005-4.912,0.001-9.823,0.003-14.735c0-1.115,0.004-1.112,1.131-1.121
					c0.589-0.005,1.177,0.017,1.761-0.127c2.169-0.535,3.68-2.273,3.689-4.503C364.264,875.597,364.269,867.545,364.231,859.493z
					 M302.292,828.716c11.619-0.001,23.237-0.001,34.856,0c1.192,0,1.206,0.015,1.207,1.222c0.001,4.884-0.001,9.767,0.002,14.651
					c0.001,1.765,0.543,2.305,2.307,2.306c4.159,0.003,8.318,0,12.477,0.003c0.997,0.001,1.044,0.046,1.046,1.052
					c0.006,1.932,0.005,3.864,0,5.796c-0.003,1.038-0.051,1.085-1.098,1.085c-8.479,0.002-16.958,0.001-25.438,0.001
					c-8.452,0-16.905,0-25.357,0c-1.198,0-1.202-0.003-1.202-1.221c-0.001-7.889-0.001-15.778,0-23.667
					C301.093,828.724,301.102,828.716,302.292,828.716z M352.985,903.645c-8.454,0.001-16.908,0.001-25.362,0.001
					c-8.427,0-16.854,0.001-25.281,0c-1.245,0-1.249-0.003-1.249-1.262c-0.001-4.348-0.003-8.696,0.001-13.043
					c0.001-1.01,0.051-1.059,1.041-1.059c16.989-0.002,33.977-0.002,50.966,0c1.041,0,1.086,0.044,1.087,1.094
					c0.003,4.348,0.003,8.696,0.001,13.043C354.188,903.634,354.177,903.645,352.985,903.645z"/>
			</g>
			<g>
				<path style="fill:#FFFFFF;" d="M303.581,879.891v-17.193h6.051c0.816,0,1.581,0.132,2.293,0.396
					c0.712,0.264,1.333,0.636,1.861,1.117c0.527,0.48,0.944,1.053,1.248,1.717c0.304,0.665,0.456,1.397,0.456,2.198
					c0,0.816-0.152,1.557-0.456,2.221s-0.721,1.236-1.248,1.717c-0.529,0.48-1.149,0.852-1.861,1.117
					c-0.713,0.264-1.477,0.396-2.293,0.396h-2.809v6.315H303.581z M309.68,870.503c0.848,0,1.489-0.241,1.921-0.721
					c0.432-0.48,0.648-1.032,0.648-1.656c0-0.304-0.052-0.601-0.156-0.889c-0.105-0.288-0.264-0.54-0.48-0.756
					c-0.216-0.217-0.484-0.388-0.805-0.516c-0.32-0.129-0.696-0.193-1.128-0.193h-2.857v4.731H309.68z"/>
				<path style="fill:#FFFFFF;" d="M317.796,862.699h3.77l6.916,11.526h0.191l-0.191-3.314v-8.212h3.217v17.193h-3.409l-7.3-12.174
					h-0.191l0.191,3.314v8.86h-3.193V862.699z"/>
				<path style="fill:#FFFFFF;" d="M343.08,870.454h8.429c0.048,0.193,0.087,0.425,0.12,0.697c0.031,0.272,0.048,0.544,0.048,0.816
					c0,1.104-0.167,2.145-0.504,3.121c-0.336,0.977-0.865,1.849-1.585,2.618c-0.768,0.817-1.69,1.449-2.761,1.897
					c-1.073,0.448-2.298,0.672-3.674,0.672c-1.249,0-2.426-0.224-3.53-0.672c-1.104-0.447-2.065-1.072-2.881-1.873
					c-0.816-0.8-1.465-1.749-1.945-2.845c-0.48-1.097-0.72-2.293-0.72-3.59c0-1.296,0.24-2.493,0.72-3.589s1.129-2.045,1.945-2.845
					c0.816-0.8,1.777-1.425,2.881-1.873c1.104-0.448,2.281-0.672,3.53-0.672c1.392,0,2.637,0.24,3.734,0.72
					c1.097,0.48,2.036,1.144,2.821,1.993l-2.232,2.185c-0.562-0.592-1.185-1.044-1.874-1.357s-1.513-0.468-2.473-0.468
					c-0.786,0-1.53,0.14-2.234,0.421c-0.705,0.28-1.321,0.676-1.85,1.188c-0.527,0.512-0.949,1.133-1.259,1.861
					c-0.312,0.728-0.469,1.541-0.469,2.437c0,0.897,0.157,1.709,0.469,2.438c0.311,0.728,0.735,1.349,1.271,1.861
					c0.536,0.512,1.156,0.909,1.862,1.188c0.704,0.281,1.457,0.421,2.258,0.421c0.911,0,1.684-0.132,2.317-0.396
					c0.632-0.264,1.171-0.604,1.62-1.021c0.321-0.288,0.598-0.652,0.829-1.092s0.412-0.932,0.541-1.477h-5.404V870.454z"/>
			</g>
			<g>
				<path style="fill:#FFFFFF;" d="M443.437,859.493c-0.013-2.665-2.087-4.618-4.766-4.659c-2.011-0.031-1.81,0.261-1.815-1.887
					c-0.006-2.389-0.015-4.778,0.006-7.166c0.007-0.824-0.243-1.505-0.787-2.125c-5.098-5.81-10.184-11.63-15.281-17.441
					c-0.262-0.299-0.599-0.532-0.901-0.796c-13.528,0-27.055,0-40.583,0c-1.729,0.639-2.482,1.889-2.478,3.72
					c0.021,8.159,0.009,16.318,0.008,24.478c0,1.21-0.007,1.281-1.197,1.201c-3.258-0.221-5.477,2.147-5.436,5.426
					c0.096,7.568,0.028,15.137,0.031,22.706c0.001,3.44,1.887,5.32,5.333,5.331c1.267,0.004,1.268,0.004,1.268,1.306
					c0.001,4.831-0.002,9.662,0.002,14.493c0.002,2.595,1.262,3.855,3.85,3.855c17.446,0.001,34.891,0.001,52.337,0
					c2.543,0,3.822-1.268,3.824-3.799c0.005-4.912,0.001-9.823,0.003-14.735c0-1.115,0.004-1.112,1.131-1.121
					c0.589-0.005,1.177,0.017,1.761-0.127c2.169-0.535,3.68-2.273,3.689-4.503C443.47,875.597,443.475,867.545,443.437,859.493z
					 M381.498,828.716c11.619-0.001,23.237-0.001,34.856,0c1.192,0,1.206,0.015,1.207,1.222c0.001,4.884-0.001,9.767,0.002,14.651
					c0.001,1.765,0.543,2.305,2.307,2.306c4.159,0.003,8.318,0,12.477,0.003c0.997,0.001,1.044,0.046,1.046,1.052
					c0.006,1.932,0.005,3.864,0,5.796c-0.003,1.038-0.051,1.085-1.098,1.085c-8.479,0.002-16.958,0.001-25.438,0.001
					c-8.452,0-16.905,0-25.357,0c-1.198,0-1.202-0.003-1.202-1.221c-0.001-7.889-0.001-15.778,0-23.667
					C380.299,828.724,380.308,828.716,381.498,828.716z M432.192,903.645c-8.454,0.001-16.908,0.001-25.362,0.001
					c-8.427,0-16.854,0.001-25.281,0c-1.245,0-1.249-0.003-1.249-1.262c-0.001-4.348-0.002-8.696,0.001-13.043
					c0.001-1.01,0.051-1.059,1.041-1.059c16.989-0.002,33.977-0.002,50.966,0c1.041,0,1.086,0.044,1.087,1.094
					c0.003,4.348,0.003,8.696,0.001,13.043C433.394,903.634,433.384,903.645,432.192,903.645z"/>
			</g>
			<g>
				<path style="fill:#FFFFFF;" d="M402.272,862.699h3.698l6.46,17.193h-3.578l-1.416-4.106h-6.628l-1.417,4.106h-3.578
					L402.272,862.699z M406.379,872.808l-1.537-4.298l-0.625-2.089h-0.192l-0.625,2.089l-1.537,4.298H406.379z"/>
				<path style="fill:#FFFFFF;" d="M415.815,866.541c-0.273,0-0.533-0.052-0.781-0.156c-0.248-0.104-0.465-0.248-0.648-0.432
					c-0.184-0.184-0.328-0.396-0.432-0.636c-0.105-0.241-0.156-0.504-0.156-0.793s0.052-0.552,0.156-0.793
					c0.104-0.24,0.248-0.452,0.432-0.636c0.184-0.184,0.4-0.328,0.648-0.432c0.248-0.104,0.508-0.156,0.781-0.156
					c0.56,0,1.041,0.196,1.441,0.588c0.4,0.393,0.601,0.869,0.601,1.429c0,0.56-0.201,1.037-0.601,1.428
					C416.856,866.345,416.375,866.541,415.815,866.541z M414.255,879.891v-11.766h3.145v11.766H414.255z"/>
			</g>
			<g>
				<path style="fill:#FFFFFF;" d="M524.043,859.493c-0.013-2.665-2.087-4.618-4.766-4.659c-2.011-0.031-1.81,0.261-1.815-1.887
					c-0.006-2.389-0.015-4.778,0.006-7.166c0.007-0.824-0.243-1.505-0.787-2.125c-5.098-5.81-10.184-11.63-15.281-17.441
					c-0.262-0.299-0.599-0.532-0.901-0.796c-13.528,0-27.055,0-40.583,0c-1.729,0.639-2.482,1.889-2.478,3.72
					c0.021,8.159,0.009,16.318,0.008,24.478c0,1.21-0.007,1.281-1.197,1.201c-3.258-0.221-5.477,2.147-5.436,5.426
					c0.096,7.568,0.028,15.137,0.031,22.706c0.001,3.44,1.887,5.32,5.333,5.331c1.267,0.004,1.268,0.004,1.268,1.306
					c0.001,4.831-0.002,9.662,0.002,14.493c0.002,2.595,1.262,3.855,3.85,3.855c17.446,0.001,34.891,0.001,52.337,0
					c2.543,0,3.822-1.268,3.824-3.799c0.005-4.912,0.001-9.823,0.003-14.735c0-1.115,0.004-1.112,1.131-1.121
					c0.589-0.005,1.177,0.017,1.761-0.127c2.169-0.535,3.68-2.273,3.689-4.503C524.076,875.597,524.081,867.545,524.043,859.493z
					 M462.104,828.716c11.619-0.001,23.237-0.001,34.856,0c1.192,0,1.206,0.015,1.207,1.222c0.001,4.884-0.001,9.767,0.002,14.651
					c0.001,1.765,0.543,2.305,2.307,2.306c4.159,0.003,8.318,0,12.477,0.003c0.997,0.001,1.044,0.046,1.046,1.052
					c0.006,1.932,0.005,3.864,0,5.796c-0.003,1.038-0.051,1.085-1.098,1.085c-8.479,0.002-16.958,0.001-25.438,0.001
					c-8.452,0-16.905,0-25.357,0c-1.198,0-1.202-0.003-1.202-1.221c-0.001-7.889-0.001-15.778,0-23.667
					C460.905,828.724,460.914,828.716,462.104,828.716z M512.798,903.645c-8.454,0.001-16.908,0.001-25.362,0.001
					c-8.427,0-16.854,0.001-25.281,0c-1.245,0-1.249-0.003-1.249-1.262c-0.001-4.348-0.002-8.696,0.001-13.043
					c0.001-1.01,0.051-1.059,1.041-1.059c16.989-0.002,33.977-0.002,50.966,0c1.041,0,1.086,0.044,1.087,1.094
					c0.003,4.348,0.003,8.696,0.001,13.043C514,903.634,513.989,903.645,512.798,903.645z"/>
			</g>
			<g>
				<path style="fill:#FFFFFF;" d="M470.308,880.275c-0.737,0-1.441-0.104-2.113-0.312c-0.672-0.208-1.289-0.52-1.849-0.936
					c-0.56-0.416-1.048-0.925-1.464-1.525c-0.417-0.601-0.745-1.301-0.985-2.101l3.049-1.2c0.224,0.864,0.616,1.581,1.177,2.149
					s1.297,0.852,2.209,0.852c0.336,0,0.66-0.044,0.973-0.132c0.312-0.087,0.592-0.216,0.84-0.384
					c0.248-0.168,0.444-0.38,0.589-0.636c0.144-0.256,0.216-0.552,0.216-0.888c0-0.32-0.056-0.608-0.168-0.865
					c-0.112-0.255-0.3-0.495-0.564-0.72c-0.264-0.224-0.609-0.44-1.033-0.648c-0.424-0.208-0.948-0.424-1.572-0.648l-1.056-0.384
					c-0.465-0.16-0.933-0.376-1.405-0.648c-0.472-0.272-0.9-0.6-1.284-0.985c-0.385-0.384-0.701-0.836-0.949-1.357
					c-0.249-0.52-0.372-1.108-0.372-1.765c0-0.672,0.132-1.301,0.396-1.885c0.264-0.584,0.64-1.096,1.129-1.537
					c0.488-0.44,1.072-0.784,1.753-1.032c0.681-0.248,1.437-0.372,2.269-0.372c0.864,0,1.612,0.116,2.245,0.348
					c0.633,0.232,1.168,0.528,1.609,0.888c0.44,0.36,0.796,0.757,1.068,1.188c0.272,0.433,0.472,0.84,0.601,1.225l-2.857,1.2
					c-0.161-0.48-0.453-0.913-0.876-1.297c-0.425-0.384-1.005-0.576-1.741-0.576c-0.704,0-1.289,0.164-1.753,0.492
					c-0.465,0.329-0.697,0.757-0.697,1.285c0,0.512,0.224,0.949,0.672,1.309c0.448,0.36,1.161,0.708,2.137,1.044l1.081,0.36
					c0.688,0.241,1.316,0.517,1.885,0.828c0.568,0.312,1.056,0.684,1.465,1.117c0.408,0.433,0.72,0.925,0.936,1.477
					c0.217,0.552,0.324,1.189,0.324,1.909c0,0.897-0.18,1.669-0.54,2.317c-0.36,0.648-0.82,1.181-1.38,1.597
					c-0.561,0.416-1.193,0.728-1.897,0.936C471.668,880.172,470.98,880.275,470.308,880.275z"/>
				<path style="fill:#FFFFFF;" d="M477.175,862.699h3.506l3.554,10.349l0.625,2.209h0.192l0.672-2.209l3.698-10.349h3.506
					l-6.268,17.193h-3.409L477.175,862.699z"/>
				<path style="fill:#FFFFFF;" d="M502.388,870.454h8.428c0.048,0.193,0.088,0.425,0.12,0.697c0.033,0.272,0.049,0.544,0.049,0.816
					c0,1.104-0.169,2.145-0.505,3.121c-0.336,0.977-0.864,1.849-1.585,2.618c-0.768,0.817-1.688,1.449-2.761,1.897
					c-1.073,0.448-2.298,0.672-3.674,0.672c-1.249,0-2.425-0.224-3.529-0.672c-1.105-0.447-2.066-1.072-2.882-1.873
					c-0.816-0.8-1.465-1.749-1.945-2.845c-0.48-1.097-0.72-2.293-0.72-3.59c0-1.296,0.241-2.493,0.72-3.589
					c0.48-1.097,1.129-2.045,1.945-2.845c0.816-0.8,1.777-1.425,2.882-1.873c1.104-0.448,2.28-0.672,3.529-0.672
					c1.392,0,2.637,0.24,3.734,0.72c1.097,0.48,2.038,1.144,2.822,1.993l-2.234,2.185c-0.56-0.592-1.185-1.044-1.874-1.357
					c-0.687-0.312-1.512-0.468-2.473-0.468c-0.784,0-1.528,0.14-2.234,0.421c-0.704,0.28-1.321,0.676-1.848,1.188
					c-0.528,0.512-0.949,1.133-1.261,1.861c-0.312,0.728-0.468,1.541-0.468,2.437c0,0.897,0.156,1.709,0.468,2.438
					c0.312,0.728,0.737,1.349,1.273,1.861c0.536,0.512,1.156,0.909,1.86,1.188c0.705,0.281,1.457,0.421,2.258,0.421
					c0.913,0,1.685-0.132,2.317-0.396c0.632-0.264,1.173-0.604,1.621-1.021c0.32-0.288,0.596-0.652,0.828-1.092
					c0.233-0.44,0.412-0.932,0.541-1.477h-5.402V870.454z"/>
			</g>
			<g>
				<path style="fill:#FFFFFF;" d="M602.976,859.493c-0.013-2.665-2.087-4.618-4.766-4.659c-2.011-0.031-1.81,0.261-1.815-1.887
					c-0.006-2.389-0.015-4.778,0.006-7.166c0.007-0.824-0.243-1.505-0.787-2.125c-5.098-5.81-10.184-11.63-15.281-17.441
					c-0.262-0.299-0.599-0.532-0.901-0.796c-13.528,0-27.055,0-40.583,0c-1.729,0.639-2.482,1.889-2.478,3.72
					c0.021,8.159,0.009,16.318,0.008,24.478c0,1.21-0.007,1.281-1.197,1.201c-3.258-0.221-5.477,2.147-5.436,5.426
					c0.096,7.568,0.028,15.137,0.031,22.706c0.001,3.44,1.887,5.32,5.333,5.331c1.267,0.004,1.268,0.004,1.268,1.306
					c0.001,4.831-0.002,9.662,0.002,14.493c0.002,2.595,1.262,3.855,3.85,3.855c17.446,0.001,34.891,0.001,52.337,0
					c2.543,0,3.822-1.268,3.824-3.799c0.005-4.912,0.001-9.823,0.003-14.735c0-1.115,0.005-1.112,1.131-1.121
					c0.589-0.005,1.178,0.017,1.761-0.127c2.169-0.535,3.68-2.273,3.689-4.503C603.01,875.597,603.015,867.545,602.976,859.493z
					 M541.037,828.716c11.619-0.001,23.237-0.001,34.856,0c1.193,0,1.206,0.015,1.207,1.222c0.001,4.884-0.002,9.767,0.002,14.651
					c0.001,1.765,0.543,2.305,2.307,2.306c4.159,0.003,8.318,0,12.477,0.003c0.997,0.001,1.044,0.046,1.046,1.052
					c0.006,1.932,0.005,3.864,0,5.796c-0.003,1.038-0.051,1.085-1.098,1.085c-8.479,0.002-16.958,0.001-25.438,0.001
					c-8.452,0-16.905,0-25.357,0c-1.198,0-1.202-0.003-1.202-1.221c-0.001-7.889-0.001-15.778,0-23.667
					C539.838,828.724,539.847,828.716,541.037,828.716z M591.731,903.645c-8.454,0.001-16.908,0.001-25.362,0.001
					c-8.427,0-16.854,0.001-25.281,0c-1.245,0-1.249-0.003-1.249-1.262c-0.001-4.348-0.003-8.696,0.001-13.043
					c0.001-1.01,0.051-1.059,1.041-1.059c16.989-0.002,33.977-0.002,50.966,0c1.041,0,1.086,0.044,1.087,1.094
					c0.003,4.348,0.003,8.696,0.001,13.043C592.934,903.634,592.923,903.645,591.731,903.645z"/>
			</g>
			<g>
				<path style="fill:#FFFFFF;" d="M549.998,865.772v3.986h6.891v3.074h-6.891v3.986h7.659v3.073h-10.901v-17.193h10.901v3.073
					H549.998z"/>
				<path style="fill:#FFFFFF;" d="M560.635,879.891v-17.193h6.051c0.816,0,1.581,0.132,2.293,0.396
					c0.712,0.264,1.333,0.636,1.861,1.117c0.528,0.48,0.944,1.053,1.249,1.717c0.304,0.665,0.456,1.397,0.456,2.198
					c0,0.816-0.152,1.557-0.456,2.221c-0.305,0.664-0.721,1.236-1.249,1.717c-0.528,0.48-1.149,0.852-1.861,1.117
					c-0.713,0.264-1.477,0.396-2.293,0.396h-2.809v6.315H560.635z M566.735,870.503c0.848,0,1.489-0.241,1.921-0.721
					c0.432-0.48,0.648-1.032,0.648-1.656c0-0.304-0.052-0.601-0.156-0.889c-0.105-0.288-0.264-0.54-0.48-0.756
					c-0.216-0.217-0.484-0.388-0.805-0.516c-0.32-0.129-0.696-0.193-1.128-0.193h-2.857v4.731H566.735z"/>
				<path style="fill:#FFFFFF;" d="M580.109,880.275c-0.737,0-1.441-0.104-2.113-0.312c-0.672-0.208-1.289-0.52-1.849-0.936
					c-0.56-0.416-1.049-0.925-1.465-1.525c-0.416-0.601-0.744-1.301-0.985-2.101l3.049-1.2c0.224,0.864,0.616,1.581,1.177,2.149
					c0.56,0.568,1.296,0.852,2.209,0.852c0.336,0,0.66-0.044,0.973-0.132c0.312-0.087,0.592-0.216,0.84-0.384
					c0.248-0.168,0.444-0.38,0.588-0.636c0.144-0.256,0.217-0.552,0.217-0.888c0-0.32-0.057-0.608-0.168-0.865
					c-0.112-0.255-0.3-0.495-0.565-0.72c-0.264-0.224-0.608-0.44-1.032-0.648c-0.424-0.208-0.949-0.424-1.573-0.648l-1.056-0.384
					c-0.465-0.16-0.932-0.376-1.404-0.648c-0.473-0.272-0.901-0.6-1.285-0.985c-0.384-0.384-0.701-0.836-0.949-1.357
					c-0.248-0.52-0.372-1.108-0.372-1.765c0-0.672,0.132-1.301,0.396-1.885c0.264-0.584,0.64-1.096,1.129-1.537
					c0.489-0.44,1.073-0.784,1.753-1.032c0.68-0.248,1.437-0.372,2.269-0.372c0.865,0,1.613,0.116,2.246,0.348
					c0.632,0.232,1.168,0.528,1.609,0.888c0.44,0.36,0.796,0.757,1.068,1.188c0.272,0.433,0.472,0.84,0.601,1.225l-2.857,1.2
					c-0.161-0.48-0.453-0.913-0.877-1.297s-1.005-0.576-1.741-0.576c-0.705,0-1.289,0.164-1.753,0.492
					c-0.465,0.329-0.696,0.757-0.696,1.285c0,0.512,0.224,0.949,0.672,1.309c0.448,0.36,1.16,0.708,2.137,1.044l1.08,0.36
					c0.689,0.241,1.317,0.517,1.885,0.828c0.568,0.312,1.056,0.684,1.465,1.117c0.408,0.433,0.72,0.925,0.936,1.477
					c0.216,0.552,0.324,1.189,0.324,1.909c0,0.897-0.18,1.669-0.54,2.317c-0.36,0.648-0.821,1.181-1.38,1.597
					c-0.561,0.416-1.193,0.728-1.897,0.936C581.47,880.172,580.782,880.275,580.109,880.275z"/>
			</g>
			<g>
				<path style="fill:#FFFFFF;" d="M655.431,876.625l8.716-10.854h-8.332v-3.073h12.103v3.266l-8.621,10.854h8.716v3.073h-12.582
					V876.625z"/>
				<path style="fill:#FFFFFF;" d="M670.702,862.699h3.242v17.193h-3.242V862.699z"/>
				<path style="fill:#FFFFFF;" d="M677.402,879.891v-17.193h6.051c0.817,0,1.581,0.132,2.293,0.396
					c0.712,0.264,1.333,0.636,1.861,1.117s0.944,1.053,1.249,1.717c0.304,0.665,0.456,1.397,0.456,2.198
					c0,0.816-0.152,1.557-0.456,2.221c-0.305,0.664-0.721,1.236-1.249,1.717s-1.149,0.852-1.861,1.117
					c-0.713,0.264-1.477,0.396-2.293,0.396h-2.809v6.315H677.402z M683.501,870.503c0.848,0,1.489-0.241,1.921-0.721
					c0.433-0.48,0.648-1.032,0.648-1.656c0-0.304-0.052-0.601-0.156-0.889c-0.105-0.288-0.264-0.54-0.48-0.756
					c-0.216-0.217-0.484-0.388-0.805-0.516c-0.32-0.129-0.696-0.193-1.128-0.193h-2.857v4.731H683.501z"/>
			</g>
		</g>
		<g style="opacity:0.61;">
			<path style="fill:#FFFFFF;" d="M609.144,863.785h19.739v4.881h-19.739V863.785z M609.144,872.201h19.739v4.884h-19.739V872.201z"
				/>
		</g>
	</g>
	<g style="opacity:0.61;">
		<path style="fill:#FFFFFF;" d="M297,963.076h3.498c2.75,0,4.603,1.768,4.603,4.297s-1.854,4.296-4.603,4.296H297V963.076z
			 M300.449,970.883c2.283,0,3.756-1.448,3.756-3.51s-1.473-3.511-3.756-3.511h-2.541v7.021H300.449z"/>
		<path style="fill:#FFFFFF;" d="M315.251,967.373c0-2.504,1.915-4.37,4.517-4.37c2.577,0,4.505,1.853,4.505,4.37
			c0,2.516-1.927,4.369-4.505,4.369C317.166,971.742,315.251,969.877,315.251,967.373z M323.365,967.373
			c0-2.05-1.534-3.56-3.596-3.56c-2.075,0-3.621,1.51-3.621,3.56c0,2.049,1.546,3.559,3.621,3.559
			C321.831,970.932,323.365,969.422,323.365,967.373z"/>
		<path style="fill:#FFFFFF;" d="M346.724,963.076l-2.897,8.593h-0.957l-2.516-7.328l-2.529,7.328h-0.945l-2.897-8.593h0.933
			l2.479,7.389l2.566-7.389h0.847l2.529,7.426l2.516-7.426H346.724z"/>
		<path style="fill:#FFFFFF;" d="M364.435,963.076v8.593h-0.749l-5.524-6.972v6.972h-0.908v-8.593h0.749l5.536,6.973v-6.973H364.435
			z"/>
		<path style="fill:#FFFFFF;" d="M376.108,963.076h0.908v7.807h4.812v0.786h-5.72V963.076z"/>
		<path style="fill:#FFFFFF;" d="M391.279,967.373c0-2.504,1.915-4.37,4.517-4.37c2.577,0,4.505,1.853,4.505,4.37
			c0,2.516-1.927,4.369-4.505,4.369C393.194,971.742,391.279,969.877,391.279,967.373z M399.392,967.373
			c0-2.05-1.534-3.56-3.596-3.56c-2.075,0-3.621,1.51-3.621,3.56c0,2.049,1.546,3.559,3.621,3.559
			C397.858,970.932,399.392,969.422,399.392,967.373z"/>
		<path style="fill:#FFFFFF;" d="M416.478,969.374h-4.787l-1.031,2.295h-0.945l3.928-8.593h0.896l3.928,8.593h-0.957
			L416.478,969.374z M416.147,968.637l-2.062-4.615l-2.062,4.615H416.147z"/>
		<path style="fill:#FFFFFF;" d="M428.765,963.076h3.498c2.75,0,4.603,1.768,4.603,4.297s-1.854,4.296-4.603,4.296h-3.498V963.076z
			 M432.214,970.883c2.283,0,3.756-1.448,3.756-3.51s-1.473-3.511-3.756-3.511h-2.541v7.021H432.214z"/>
		<path style="fill:#FFFFFF;" d="M465.256,969.374h-4.787l-1.031,2.295h-0.945l3.928-8.593h0.896l3.928,8.593h-0.957
			L465.256,969.374z M464.925,968.637l-2.062-4.615l-2.062,4.615H464.925z"/>
		<path style="fill:#FFFFFF;" d="M477.543,963.076h0.908v7.807h4.812v0.786h-5.72V963.076z"/>
		<path style="fill:#FFFFFF;" d="M493.647,963.076h0.908v7.807h4.812v0.786h-5.72V963.076z"/>
		<path style="fill:#FFFFFF;" d="M522.749,963.862v3.376h4.443v0.786h-4.443v3.646h-0.909v-8.593h5.891v0.786H522.749z"/>
		<path style="fill:#FFFFFF;" d="M538.485,963.076h0.909v8.593h-0.909V963.076z"/>
		<path style="fill:#FFFFFF;" d="M551.067,963.076h0.909v7.807h4.811v0.786h-5.72V963.076z"/>
		<path style="fill:#FFFFFF;" d="M573.246,970.883v0.786h-6.076v-8.593h5.891v0.786h-4.983v3.056h4.443v0.774h-4.443v3.191H573.246z
			"/>
		<path style="fill:#FFFFFF;" d="M597.255,963.862v3.376h4.443v0.786h-4.443v3.646h-0.909v-8.593h5.891v0.786H597.255z"/>
		<path style="fill:#FFFFFF;" d="M612.119,967.373c0-2.504,1.915-4.37,4.517-4.37c2.577,0,4.505,1.853,4.505,4.37
			c0,2.516-1.927,4.369-4.505,4.369C614.034,971.742,612.119,969.877,612.119,967.373z M620.232,967.373
			c0-2.05-1.534-3.56-3.596-3.56c-2.075,0-3.622,1.51-3.622,3.56c0,2.049,1.547,3.559,3.622,3.559
			C618.698,970.932,620.232,969.422,620.232,967.373z"/>
		<path style="fill:#FFFFFF;" d="M637.919,971.669l-1.963-2.762c-0.222,0.024-0.442,0.037-0.688,0.037h-2.307v2.725h-0.909v-8.593
			h3.216c2.185,0,3.511,1.105,3.511,2.946c0,1.351-0.712,2.295-1.964,2.7l2.099,2.946H637.919z M637.871,966.022
			c0-1.375-0.909-2.161-2.627-2.161h-2.283v4.309h2.283C636.962,968.17,637.871,967.373,637.871,966.022z"/>
		<path style="fill:#FFFFFF;" d="M658.724,963.076v8.593h-0.871v-6.874l-3.376,5.782h-0.429l-3.376-5.745v6.837h-0.872v-8.593h0.749
			l3.732,6.371l3.695-6.371H658.724z"/>
		<path style="fill:#FFFFFF;" d="M675.787,969.374h-4.788l-1.031,2.295h-0.946l3.928-8.593h0.896l3.928,8.593h-0.957
			L675.787,969.374z M675.455,968.637l-2.062-4.615l-2.062,4.615H675.455z"/>
		<path style="fill:#FFFFFF;" d="M689.312,963.862h-3.02v-0.786h6.948v0.786h-3.02v7.807h-0.908V963.862z"/>
		<path style="fill:#FFFFFF;" d="M702.605,970.626l0.356-0.7c0.614,0.601,1.706,1.043,2.835,1.043c1.608,0,2.308-0.675,2.308-1.522
			c0-2.357-5.29-0.908-5.29-4.087c0-1.265,0.982-2.357,3.167-2.357c0.97,0,1.976,0.282,2.664,0.761l-0.307,0.724
			c-0.737-0.479-1.596-0.712-2.357-0.712c-1.571,0-2.271,0.7-2.271,1.559c0,2.357,5.29,0.933,5.29,4.063
			c0,1.265-1.006,2.344-3.204,2.344C704.508,971.742,703.243,971.288,702.605,970.626z"/>
	</g>
</g>
<g>
</g>
<g id="XMLID_1_">
	<g id="XMLID_97_">
		<path id="XMLID_98_" style="fill:#FFFFFF;" d="M627.136,365v80.513c3.37,1.498,7.864,3.745,11.234,5.243v-1.123
			c0-12.358,3.745-10.86,11.983-14.605c2.247-0.749,2.621-4.868,5.992-5.243c4.119-0.374,13.107,1.123,16.852,2.996
			c2.247,1.123,2.621,2.621,3.745,4.868c0.749,2.247,4.868,3.745,5.992,6.366c1.872,5.243,0,12.358-5.617,14.23
			c-1.872,0.749-10.485,0.374-10.485,0.374c0,1.872,0,4.494,0,5.992c0,0.749,0,2.247,0,2.247s1.872,0.749,2.621,0.749
			c14.23,3.745,92.497,27.337,94.369,31.456c0.375,1.123-0.749,1.123-0.749,1.123c-1.872,0.374-51.304-11.234-60.291-12.732
			c-10.485-1.872-18.724-3.745-32.205-5.617v0.749c0,4.119-0.749,4.119-4.494,5.617v0.749c4.494,0.749,18.724,2.996,21.72,5.243
			c3.37,2.247,11.234-0.374,16.852,7.115c1.498,1.872,1.498,10.111,0,12.358c-2.247,3.37-4.868,1.872-7.864,2.247
			c-1.872,0.374-2.996,2.247-4.494,2.996c-1.498,0.749-3.745,0.374-5.617,0.749c-4.119,0-5.617-3.745-8.613-5.617
			c-1.498-1.123-2.996-0.374-4.868-0.749c-2.247-0.749-4.119-3.37-5.992-4.494c-1.123-0.749-4.119-0.374-5.243,0.374
			c-7.49,4.494-26.963,0-34.827-4.868l0.374,48.682c0,0,0,8.239-4.868,16.477C598.675,610.659,548.121,635,500.562,635h-0.749
			c-47.559,0-98.114-23.592-122.08-64.785c-5.243-8.239-5.243-17.226-5.243-17.226l0.374-48.682
			c-7.49,4.868-27.337,9.362-34.827,4.868c-1.123-0.749-4.119-0.749-5.243-0.374c-2.247,1.123-3.745,3.745-5.992,4.494
			c-1.498,0.374-3.37-0.375-4.868,0.749c-2.996,1.872-4.494,5.992-8.613,5.617c-1.872,0-4.119,0.374-5.617-0.749
			c-1.498-0.749-2.621-2.621-4.494-2.996c-3.37-0.374-5.617,1.123-7.864-2.247c-1.498-1.872-1.498-10.111,0-12.358
			c5.617-7.49,13.481-4.868,16.852-7.115c2.996-2.247,17.226-4.119,21.72-5.243v-0.749c-3.745-1.123-4.494-1.123-4.494-5.617v-0.749
			c-13.481,1.872-21.72,3.745-32.205,5.617c-9.362,1.872-58.419,13.107-60.291,12.732c0,0-1.123-0.374-0.749-1.123
			c1.872-4.494,80.139-27.712,94.369-31.456c0.749-0.374,2.621-0.749,2.621-0.749s0-1.498,0-2.247c0-1.872,0-4.494,0-5.992
			c0,0-8.613,0.374-10.485-0.374c-5.243-2.247-7.49-9.362-5.617-14.23c1.123-2.621,5.243-4.494,5.992-6.366
			c0.749-2.247,1.498-3.745,3.745-4.868c3.745-1.872,12.732-3.37,16.852-2.996c3.37,0.374,4.119,4.119,5.992,5.243
			c8.239,3.745,11.983,1.872,11.983,14.605v1.123c3.37-1.498,7.864-3.745,11.234-5.243V365H627.136z"/>
	</g>
	<g id="XMLID_86_">
		<g id="XMLID_87_">
			<path id="XMLID_88_" style="fill:#001F47;" d="M504.307,556.734l3.745,41.567l4.868-0.374l-3.745-41.567L504.307,556.734z
				 M471.352,550.742l-13.481,39.695l12.732,4.494l4.494-12.732l-4.494-1.498l-2.621,8.239l-3.37-1.123l11.983-34.827
				L471.352,550.742z M485.208,559.73l-3.745,32.58c-0.374,2.621,1.498,4.868,4.119,4.868l8.613,1.123l0.749-4.868l-8.613-1.123
				l1.498-13.481l6.366,0.749l0.749-4.868l-6.366-0.374l1.498-13.481l8.613,1.123l0.749-4.868l-8.613-1.123
				C487.829,555.61,485.583,557.483,485.208,559.73z M552.614,535.014l-3.37,3.37l29.209,29.584l0,0l3.37-3.37L552.614,535.014
				L552.614,535.014z M529.397,555.985c-0.749-1.872-2.247-3.37-4.494-3.37c-0.374,0-0.749,0-1.498,0.374l-8.239,2.621
				l11.983,39.695v0.375l4.494-1.498l-5.243-17.601l3.745-1.123c1.123-0.375,2.247-1.123,2.621-2.247
				c0.749-1.123,0.749-2.247,0.374-3.37L529.397,555.985z M525.277,571.713l-4.119-13.107l3.745-1.123l4.119,13.107L525.277,571.713
				z M594.182,538.01l-14.23-8.987l-3.37,5.617l4.119,2.621l1.123-1.498l11.609,7.49l-1.872,2.996l-28.086-17.226l1.872-2.996
				l5.617,3.37l2.621-4.119l-4.119-2.621c-1.123-0.749-2.247-1.123-3.37-1.123c-2.247,0-4.494,1.123-5.617,2.996
				c-1.872,2.996-1.123,7.115,2.247,9.362l24.716,15.728c1.123,0.749,2.247,1.123,3.37,1.123c2.247,0,4.494-1.123,5.617-2.996
				C598.301,544.376,597.178,540.257,594.182,538.01z M554.487,569.092l4.494,7.115l-2.996,2.247l-10.111-31.831l-2.621-3.745
				l-11.234,7.115l7.115,11.234l4.119-2.621l-4.494-7.115l2.996-1.872l10.111,31.831l2.621,3.745l11.234-7.115l-7.115-11.234
				L554.487,569.092z"/>
		</g>
	</g>
	<g id="XMLID_84_">
		<path id="XMLID_85_" style="fill:#001F47;" d="M391.214,567.219L391.214,567.219c24.716,36.699,65.159,54.674,108.974,54.674
			c43.44,0,84.258-17.975,108.599-54.674l0,0v-0.375c3.745-6.366,5.243-10.485,5.243-23.967v-35.576h-6.741v35.576
			c0,12.732-1.498,15.354-4.494,20.596c-22.469,33.329-60.291,51.678-103.356,51.678c-43.065,0-80.888-18.349-103.356-51.678
			c-2.996-5.243-4.494-8.239-4.494-20.596v-35.576h-6.741v35.576C385.971,556.359,387.469,560.853,391.214,567.219L391.214,567.219z
			"/>
	</g>
	<g id="XMLID_82_">
		<polygon id="XMLID_83_" style="fill:#001F47;" points="384.098,440.27 384.098,376.234 615.902,376.234 615.902,440.27 
			619.646,442.143 619.646,372.49 380.728,372.49 380.728,442.143 		"/>
	</g>
	<g id="XMLID_80_">
		<polygon id="XMLID_81_" style="fill:#001F47;" points="385.971,377.732 385.971,439.522 392.337,436.526 392.337,384.473 
			607.663,384.473 607.663,436.526 614.404,439.522 614.404,377.732 		"/>
	</g>
	<g id="XMLID_78_">
		<path id="XMLID_79_" style="fill:#001F47;" d="M615.902,507.677v35.576c0,13.856-1.498,17.975-5.617,24.716v0.374v0.374
			c-24.716,37.074-65.908,55.423-110.097,55.423s-85.381-18.349-110.097-55.423v-0.374v-0.374
			c-3.745-6.741-5.617-10.86-5.617-24.716v-35.576h-3.745v35.576c0,14.605,1.872,19.473,5.992,26.588l0.374,0.374l0.374,0.375
			c25.465,37.822,67.781,56.921,113.093,56.921c45.312,0,87.628-19.098,113.093-56.921l0.374-0.375l0.375-0.374
			c4.119-7.115,5.992-11.983,5.992-26.588v-35.576H615.902z"/>
	</g>
	<g id="XMLID_76_">
		<path id="XMLID_77_" style="fill:#001F47;" d="M499.813,407.691c7.864,0,15.728,1.498,22.843,4.494
			c-0.375,1.123-1.123,4.494-3.37,8.613c-12.732-1.498-26.963-0.374-26.963-0.374l-11.609-9.736
			C486.706,408.814,493.072,407.691,499.813,407.691L499.813,407.691z"/>
	</g>
	<g id="XMLID_74_">
		<path id="XMLID_75_" style="fill:#DADADA;" d="M553.738,496.817c-4.868-1.123-8.988-3.37-13.856-4.868
			c-1.498,0.749-2.621,1.498-3.37,1.872c-5.243,5.992-11.609,10.86-18.724,14.605c-17.601,9.362-38.946,9.362-56.546,1.498
			c-3.745-1.872-7.49-3.745-10.86-6.366c10.485,14.23,26.963,23.967,45.687,25.465c0.749,0,1.498,0,1.872,0h0.374
			c11.983,0,23.218-3.37,32.954-9.362C541.006,514.792,548.495,506.928,553.738,496.817h0.374
			C554.112,496.817,554.112,496.817,553.738,496.817z"/>
	</g>
	<g id="XMLID_72_">
		<path id="XMLID_73_" style="fill:#001F47;" d="M522.282,459.369c2.996,6.741,7.115,13.481,9.737,17.975
			c3.37-5.243,4.119-8.988,7.115-17.975c1.123-3.37,5.617-8.239,9.736-12.358c-6.366-4.119-14.605-7.864-14.605-7.864
			C527.899,448.135,522.282,459.369,522.282,459.369z"/>
	</g>
	<g id="XMLID_70_">
		<path id="XMLID_71_" style="fill:#001F47;" d="M458.62,423.793c-5.617,4.868-9.736,11.234-13.107,17.975
			c0.749,0.749,1.498,1.123,2.247,1.872c0.374-0.749,1.123-1.123,1.498-1.872C453.003,433.155,457.122,426.04,458.62,423.793z"/>
	</g>
	<g id="XMLID_68_">
		<path id="XMLID_69_" style="fill:#001F47;" d="M496.068,459.743c0,0-7.49-11.983-15.354-20.971c0,0-16.852,7.49-22.843,10.86
			c0,0-0.374,2.247-0.374,5.617c3.745,6.366,5.617,13.107,10.111,22.843c1.123,0.749,1.872,1.872,2.996,2.621
			c3.37,0.749,7.115,1.872,11.234,2.996C481.838,483.71,492.323,466.859,496.068,459.743z"/>
	</g>
	<g id="XMLID_66_">
		<path id="XMLID_67_" style="fill:#001F47;" d="M494.57,505.055l26.214-0.749l5.243,14.23c-10.111,5.992-22.094,8.987-22.094,8.987
			c-12.732-2.621-19.847-8.239-19.847-8.239L494.57,505.055L494.57,505.055z"/>
	</g>
	<g id="XMLID_64_">
		<path id="XMLID_65_" style="fill:#001F47;" d="M451.505,494.57c-2.247,0.749-4.494,1.872-5.617,2.247h-0.374
			c2.247,3.745,4.494,7.49,7.49,10.485c2.621,2.996,5.617,5.243,8.613,7.49c0.749-0.375,1.123-1.123,1.872-1.498
			C463.488,513.294,455.999,502.434,451.505,494.57z"/>
	</g>
	<g id="XMLID_11_">
		<path id="XMLID_12_" style="fill:#DD0741;" d="M302.836,503.932c-2.996,0.749-1.872,4.119-2.621,6.366
			c0,0,0.374,0.374,0.749,0.374c1.123-0.374,2.996,0,3.745-1.123c0.374-1.123,0.749-1.872,0.749-3.37
			C305.083,505.43,303.96,503.932,302.836,503.932z M599.799,491.2c-1.498,0.374-2.996,1.123-4.868,0.749
			c-1.498,0-4.494-1.498-4.868,0.749c-0.375,1.498-1.123,2.621-1.498,4.119c0,0.749,0.749,1.498,1.498,1.872
			c1.123,0.374,2.247,0.749,3.37,0.749c1.872-1.123,1.498-3.37,3.37-4.494c0.749,0.374,1.123,1.498,1.872,1.498
			s1.872-0.749,2.621-1.872c0.374-0.749,0.374-1.498,0-2.247C600.548,491.574,600.548,491.574,599.799,491.2z M654.473,459.743
			c0.374,0.749,1.498,1.872,0.749,2.247c-1.498,1.123-10.111-0.374-10.485,0.749c0.374,1.872,5.617,2.996,7.115,3.745
			c1.872,0.749,3.745,1.123,5.617,0.374c2.247-1.123,3.745-4.119,3.37-6.366c0-1.123-1.498-3.745-2.247-4.868
			c-0.749-0.749-5.992-5.243-4.494-5.617c1.872,0.749,4.494,0,5.617,1.872c3.37,1.123,7.115,1.498,10.86,2.247
			c2.247,0.374,4.868-0.374,6.366-2.247c0.749-1.123,0.749-2.996,0-4.119c-0.749-1.498-2.621-1.872-3.745-2.247
			c-1.498,0.374,0,1.872-1.123,2.247l-2.996-0.374c-1.872-1.872,2.247-1.872,2.247-2.621c0.374-1.498-1.123-2.996,0-4.494
			c0-0.374-0.375-0.749-0.749-0.749c-1.498-0.749-10.86-2.996-12.358-2.621l-0.374,0.374c0.374,0.374,1.872,1.872,1.872,2.247
			c0.749,1.123-3.745,1.872-4.494,2.247c-3.37,0.749-12.358,1.872-11.234,7.115C644.362,450.381,653.35,456.748,654.473,459.743z
			 M329.799,453.752c3.37-0.749,7.115-1.123,10.86-2.247c1.123-1.872,3.745-1.123,5.617-1.872c1.498,0.749-4.119,4.868-4.494,5.617
			c-0.749,0.749-1.872,3.745-2.247,4.868c-0.749,2.621,0.749,5.617,2.996,6.741c1.872,1.123,3.745,0.374,5.617-0.374
			c1.498-0.749,6.741-1.872,7.115-3.745c-0.374-1.123-8.613,0.374-10.485-0.749c-0.749-0.374,0.374-1.872,0.749-2.247
			c1.123-2.621,10.111-9.362,10.86-11.609c1.498-5.243-7.864-6.366-11.234-7.115c-0.749,0-4.868-1.123-4.494-2.247
			c0,0,1.498-1.498,1.872-2.247l0-0.375c-1.123,0-10.86,2.247-12.358,2.621c-0.374,0-0.749,0.374-0.749,0.749
			c1.123,1.498-0.374,2.996,0,4.494c0.374,1.123,4.119,0.749,2.247,2.621l-2.996,0.374c-1.498-0.749,0.374-1.872-1.123-2.247
			c-1.123,0.374-3.37,0.749-3.745,2.247c-0.749,1.123-0.749,2.996,0,4.119C324.931,453.377,327.178,454.126,329.799,453.752z
			 M310.7,501.685c-0.374-0.749-4.119,0-4.119,0.749C306.207,503.558,309.577,504.307,310.7,501.685z M689.3,501.685
			c1.123,2.247,4.494,1.872,4.119,0.749C693.419,502.06,689.674,501.311,689.3,501.685z M697.164,503.932
			c-1.123,0-2.247,1.498-2.621,2.247c0,1.498,0.749,2.247,0.749,3.37c0.749,1.123,2.621,0.749,3.745,1.123
			c0.375,0,0.375-0.374,0.749-0.374C699.036,508.051,699.785,504.681,697.164,503.932z M739.105,492.323
			c-17.601-5.243-35.201-9.736-52.802-14.23c-5.243-1.498-10.485-2.621-16.103-3.745c-8.613-1.872-17.226-4.119-25.839-5.617
			c-0.749,0-1.872,0-2.247-0.749c0.375-1.498-1.498-1.872-2.621-2.247c-2.621-0.749-5.243-1.498-7.864-2.247
			c-1.872-0.374-3.745-1.498-5.992-1.872c-2.621-0.374-4.494-0.374-5.992-2.621l0.374-0.374c2.247,0.749,5.992,2.996,8.613,1.123
			c1.123-0.749,2.247-2.996,1.872-4.119c-0.374-1.123-1.872-1.123-2.621-1.498c-3.745-1.498-7.49-3.745-11.234-5.617
			c-7.864-4.119-15.728-7.864-23.592-11.983c-3.745-1.872-7.49-3.745-11.609-4.868c-3.37-0.749-6.741,0.374-9.736,1.872
			c-2.621,1.498-2.621,5.617-4.868,5.243c-0.375-0.374-0.375-0.749-0.375-1.123c-0.749-1.498-3.37,2.247-5.617,3.37
			c-4.868,2.247-13.107,11.609-16.477,15.728c-2.247,2.621-2.996,6.366-3.745,9.362l0.374,0.749c1.123,0.374,1.872,0,2.996-0.749
			c0.749,0.374,0.749,1.123,1.123,1.872c3.37,4.494,12.732,1.872,17.601,3.745c0,0.374,0,0.749-0.374,0.749
			c-2.247,0.374-5.243,0-7.49-0.374c-5.243,0-10.485-0.374-15.728-0.374l-0.749,0.374c-0.375,1.123-3.37,7.49-3.745,7.864
			c-0.749,0.749-1.872,1.498-2.621,2.247c-1.872,2.247-3.37,5.243-5.992,6.741c-0.749,0.374-2.247,0.749-2.621,1.872l0.374,0.374
			c7.864,0.749,8.613-7.49,13.856-9.362c0.374,0,0.374,0.374,0.374,0.749c-1.123,1.123-2.621,2.996-3.37,4.868
			c-2.996,6.366-5.243,4.494-8.239,7.115l0.374,0.749c8.613-0.374,10.111-5.243,13.107-5.617c2.247-0.374,11.609,3.745,14.605,4.868
			c1.498,0.374,2.996,0.749,4.494,0.749c0.374,0,1.123-0.374,1.872-0.374c1.123,0,1.498,2.247,3.745,0.749
			c1.498-0.749,1.498-2.996,1.872-4.494c0.374-1.872-1.872-3.37-1.872-4.119c0.375-1.498,1.872,0.374,2.247-0.749
			c0.374-0.749-0.749-2.247-1.123-2.621c-1.123-1.498-4.494-4.119-3.745-5.992c0-0.374,0.749-0.749,0.749-0.749l10.485,1.123
			c0.374,0,1.872,3.745,1.872,4.119c0,0.749-1.498,4.494-1.872,5.243c-0.749,2.247-2.247,3.745-2.247,5.992
			c0,2.996,1.872,5.617,3.37,8.239s4.494,1.498,6.741,2.247c1.123,0.374,1.872,1.123,2.996,1.498
			c2.996,1.498,6.366,2.621,9.737,3.37c1.872,0.374,4.494,0,5.617-1.872c0.749-1.123-1.872-1.498-0.749-2.996
			c0.749-0.749,1.498-0.749,2.247-0.749c1.872,0.374,11.234,1.498,11.983,0.374c0.374-0.374,0-0.749-0.374-1.123
			c-1.872-0.749-4.868-1.498-6.741-1.872c-2.621-0.749-5.243-0.749-7.49-1.498c-2.247-0.749-1.872,1.498-3.37,2.621
			c-2.247,1.498-8.613-1.498-9.362-4.119c-0.749-2.621,1.498-5.617,3.37-7.49c1.123-1.498,2.996-1.498,4.119-2.621
			c0.749-0.749,0.374-1.872,0.374-2.621c1.123-1.498,5.992,0.749,7.864,0.374c2.247-0.749,0.374-3.37,2.247-3.745
			c1.498,0.374,2.996,1.498,4.494,2.247c1.123,0.374,2.996,0.749,3.745,1.498c0.749,0.749,0,1.872,0,2.621
			c0.374,1.123,2.247,1.498,3.37,1.498c1.872,0.374,3.745,0,5.617,0.374c1.872,0,3.745,0.749,5.243,0.749l5.992,0.749
			c1.498,0.749-0.374,1.872,1.123,4.494c-1.498-0.374-7.115-1.872-7.864,0c5.243,4.868,16.852,8.239,23.592,8.988
			c4.119,0.749,8.613,0.374,12.732,0c2.621-0.374,2.996-2.621,4.868-2.996c1.872-0.374,3.745,2.996,5.243,3.745
			c1.123,0.749,2.621,1.498,4.119,2.247c2.247,1.498,4.494-1.123,6.366,0c2.247,1.123,3.745,7.49,7.115,6.741
			c0.749-0.374,1.123-0.749,1.498-1.498c0.749-1.872-0.374-3.37-0.749-5.243c0.749-1.498,2.996,0.749,2.996-0.749
			c-0.374-0.374-0.749-0.749-1.123-0.749c-4.119-1.123-3.37-5.617-9.362-6.741c-2.621-0.374-5.243-1.123-7.864-1.498
			c-0.749,0-2.621,0.374-2.621-0.749l0.375-0.374h4.868v-0.749c-7.49-1.123-14.979-2.996-22.469-4.119
			c-0.749-0.374-1.123-2.247-1.123-2.621c0.374-1.498,2.247,1.123,3.37-1.498c0.749-1.498-0.749-2.996,0.375-3.745
			c3.37,0.374,6.741,0.749,10.111,1.123c-18.724-4.494-37.448-8.239-56.172-12.732c-4.119-1.123-8.239-1.498-12.358-2.996v-0.374
			c16.477,2.247,32.954,6.366,49.431,8.239v-0.374c-9.362-1.872-18.35-4.119-27.337-5.617c-13.856-2.621-27.337-4.494-41.193-6.741
			c-8.988-1.498-17.975-2.996-26.963-3.745l-0.374,0.749c0.749,0.749,1.498,1.123,2.247,1.498c0,0,0,0.374,0,0.749
			c-1.123,0-6.366,0.374-6.366-1.123c1.872-1.872,2.247-2.621,5.243-2.621c4.494,0.374,8.613,1.123,13.107,1.498
			c24.716,3.37,49.806,6.366,74.522,10.86c26.214,4.494,52.053,8.988,77.892,15.354c4.119,1.123,31.456,8.613,32.58,8.239
			C749.965,495.693,740.603,493.072,739.105,492.323z M551.865,487.455c-0.749,0.374-1.872,0.374-2.621,0
			c-1.123-0.749-1.123-1.872-1.498-2.996c0-0.374,0-0.749,0.375-0.749c1.123,0,2.621,0.374,3.37,1.123
			C551.491,485.583,552.24,486.331,551.865,487.455z M639.868,497.191c2.621,0.749,5.617,0.749,8.239,1.498
			c0.375,0,1.123,0.749,1.123,1.123s-0.749,0.374-0.749,0.374l-11.234-2.996l-1.123-0.749
			C637.621,497.191,637.996,496.817,639.868,497.191z M578.079,485.208c0-0.374,0.749-1.123,1.123-1.123
			c0.749,0.374,1.498,0.374,1.872,1.123l-2.621,5.617c-1.872,2.247-0.374,5.617,0,8.239c0,0.374-0.374,0.374-0.749,0.749
			c-1.872-1.872-3.37-4.494-2.621-7.115L578.079,485.208z M557.108,453.752c-0.374,0-1.872-0.374-1.498-1.123
			c0.375,0,0.749-0.374,1.123-0.374l32.58,5.243l1.498,0.749C590.437,458.62,567.968,455.25,557.108,453.752z M594.556,448.135
			c-5.617-1.123-11.609-2.621-17.226-4.119c-0.374,0-1.498-0.374-1.123-0.749c1.872-0.374,11.609,2.247,13.856,2.996
			c1.123,0.374,1.498,0,2.621,0C593.433,446.637,594.182,447.011,594.556,448.135L594.556,448.135z M401.699,495.693
			c1.123,0,1.123-1.123,1.872-1.498c1.872,1.123,1.498,3.37,3.37,4.494c0.749,0,2.247-0.374,2.996-0.749
			c0.749-0.374,1.498-1.123,1.498-1.872c-0.374-1.498-1.123-2.621-1.498-4.119c-0.749-2.247-3.37-0.749-5.243-0.749
			c-1.872,0.374-3.37-0.374-4.868-0.749c-0.374,0-0.749,0.374-1.123,0.749c-0.374,0.749-0.374,1.498,0,2.247
			C399.452,494.945,400.576,495.693,401.699,495.693z M473.974,488.578c-2.621-1.872-4.119-4.494-5.992-6.741
			c-0.749-0.749-1.872-1.498-2.621-2.247c-0.374-0.374-3.37-6.741-3.745-7.864l-0.749-0.374c-5.243,0.374-10.485,0.374-15.728,0.374
			c-2.247,0-5.243,0.374-7.49,0.374c-0.374,0-0.374-0.374-0.374-0.749c4.868-1.872,14.23,1.123,17.601-3.745
			c0.374-0.749,0.374-1.872,1.123-1.872c0.749,0.374,1.872,0.749,2.996,0.749l0.374-0.749c-0.749-3.37-1.498-6.741-3.745-9.362
			c-3.745-4.494-11.983-13.481-16.477-15.728c-2.247-1.123-4.868-4.868-5.617-3.37c0,0.374-0.374,0.749-0.374,1.123
			c-2.247,0.374-1.872-3.37-4.868-5.243c-2.621-1.498-6.366-2.621-9.736-1.872c-4.119,0.749-7.864,2.996-11.609,4.868
			c-7.864,4.119-15.728,7.864-23.592,11.983c-3.745,1.872-7.49,3.745-11.234,5.617c-0.749,0.374-2.247,0.374-2.621,1.498
			c-0.374,1.498,0.749,3.37,1.872,4.119c2.621,1.498,6.366-0.374,8.613-1.123l0.374,0.374c-1.872,2.247-3.745,2.247-5.992,2.621
			c-1.872,0.374-3.745,1.498-5.992,1.872c-2.621,0.749-5.243,1.498-7.864,2.247c-1.123,0.374-2.996,0.749-2.621,2.247
			c-0.374,0.749-1.498,0.749-2.247,0.749c-8.613,1.498-17.226,3.745-25.839,5.617c-5.243,1.123-10.485,2.247-16.103,3.745
			c-17.601,4.494-35.201,8.988-52.802,14.23c-1.872,0.374-10.86,2.996-11.609,3.745c1.123,0.374,28.835-7.115,32.58-8.239
			c25.839-6.366,51.678-10.86,77.892-15.354c24.716-4.119,49.806-7.49,74.522-10.86c4.494-0.374,8.613-1.123,13.107-1.498
			c2.621-0.374,3.37,0.749,5.243,2.621c0,1.123-5.243,0.749-6.366,1.123c0,0,0-0.374,0-0.749c0.749-0.374,1.498-0.749,2.247-1.498
			l-0.374-0.749c-8.988,0.749-18.35,2.621-26.963,3.745c-13.856,2.247-27.712,4.119-41.193,6.741
			c-9.362,1.498-18.35,4.119-27.337,5.617v0.374c16.477-1.872,32.954-5.617,49.431-8.239v0.374
			c-4.119,1.123-8.239,1.872-12.358,2.996c-18.724,4.494-37.448,8.239-56.172,12.732c3.37-0.374,6.741-0.749,10.111-1.123
			c1.123,0.749-0.374,2.247,0.374,3.745c1.123,2.621,3.37,0,3.37,1.498c0,0.374-0.749,2.247-1.123,2.621
			c-7.49,0.749-14.979,2.996-22.469,4.119v0.749h4.868l0.374,0.374c0,1.123-1.872,0.749-2.621,0.749
			c-2.621,0.374-5.243,1.123-7.864,1.498c-5.992,1.123-5.243,5.617-9.362,6.741c-0.374,0-0.749,0.374-1.123,0.749
			c0,1.498,2.247-0.749,2.996,0.749c-0.374,1.872-1.498,3.37-0.749,5.243c0.374,0.749,0.749,1.498,1.498,1.498
			c3.37,1.123,4.868-5.243,7.115-6.741c1.872-1.123,4.119,1.123,6.366,0c1.498-0.749,2.621-1.498,4.119-2.247
			c1.498-0.749,3.37-4.119,5.243-3.745c1.498,0.374,2.247,2.621,4.868,2.996c4.119,0.374,8.613,0.374,12.732,0
			c6.741-1.123,18.35-4.494,23.592-8.988c-0.749-1.872-6.366-0.374-7.864,0c1.123-2.621-0.374-4.119,1.123-4.494l5.992-0.749
			c1.872,0,3.37-0.749,5.243-0.749s3.745,0,5.617-0.374c1.123,0,2.996-0.374,3.37-1.498c0-0.749-0.749-1.872,0-2.621
			c0.749-1.123,2.621-1.123,3.745-1.498c1.498-0.749,2.621-1.872,4.494-2.247c1.872,0.374,0.374,3.37,2.247,3.745
			s6.741-1.872,7.864-0.374c0,0.749-0.749,2.247,0.374,2.621c1.123,1.123,2.996,1.123,4.119,2.621
			c1.498,1.872,4.119,4.868,3.37,7.49c-0.749,2.621-6.741,5.617-9.362,4.119c-1.498-1.123-1.498-2.996-3.37-2.621
			c-2.621,0.749-5.243,1.123-7.49,1.498c-2.247,0.749-4.868,1.123-6.741,1.872c-0.374,0-0.749,0.749-0.374,1.123
			c1.123,1.123,10.485,0,11.983-0.374c0.749,0,1.498,0,2.247,0.749c1.123,1.498-1.498,1.872-0.749,2.996
			c1.123,1.498,3.745,2.247,5.617,1.872c3.37-0.749,6.741-2.247,9.736-3.37c1.123-0.374,1.872-1.123,2.996-1.498
			c2.247-0.749,4.868,0.374,6.741-2.247c1.498-2.621,3.37-5.243,3.37-8.239c0-2.247-1.498-4.119-2.247-5.992
			c-1.498-0.749-2.996-4.494-2.996-5.243c0-0.374,1.498-4.119,1.872-4.119l10.485-1.123c0.374,0,0.749,0.374,0.749,0.749
			c0.374,2.247-2.621,4.494-3.745,5.992c-0.374,0.374-1.498,1.872-1.123,2.621c0.374,1.123,2.247-0.749,2.247,0.749
			c0,1.123-1.872,2.621-1.872,4.119c0.374,1.498,0.374,3.745,1.872,4.494c2.621,1.123,2.621-0.749,3.745-0.749
			c0.374,0,1.123,0.374,1.872,0.374c1.498,0,2.996-0.374,4.494-0.749c2.996-0.749,11.983-4.868,14.605-4.868
			c2.996,0.374,4.494,5.243,13.107,5.617l0.374-0.749c-2.996-2.996-5.243-1.123-8.239-7.115c-0.749-1.498-2.247-3.37-3.37-4.868
			c0-0.374,0-0.749,0.374-0.749c5.243,1.872,5.992,10.111,13.856,9.362l0.374-0.374
			C476.221,489.327,474.723,488.953,473.974,488.578z M405.069,447.76c0.749-0.749,1.498-1.123,2.247-1.872
			c1.123,0,1.498,0.374,2.621,0c2.247-0.749,11.983-3.37,13.856-2.996c0,0.749-0.749,0.749-1.123,0.749
			C417.053,445.513,411.061,447.011,405.069,447.76L405.069,447.76z M442.892,453.752c-10.86,1.498-33.329,4.868-33.329,4.868
			l1.498-0.749l32.58-5.243c0.374,0,0.749,0,1.123,0.374C444.764,453.752,443.266,453.752,442.892,453.752z M362.379,497.566
			l-11.234,2.996c-0.374,0-0.749,0-0.749-0.374s0.374-1.123,1.123-1.123c2.996-0.749,5.617-1.123,8.239-1.498
			c1.872-0.374,2.247-0.374,3.745-0.374L362.379,497.566z M421.921,499.438c-0.374,0-0.749-0.374-0.749-0.749
			c0.749-2.247,1.872-5.617,0-8.239l-2.621-5.617c0.374-0.749,1.123-0.749,1.872-1.123c0.374,0,1.123,0.374,1.123,1.123l2.996,7.115
			C425.666,495.319,423.793,497.94,421.921,499.438z M451.13,487.455c-0.749,0-2.247,0.374-2.621,0
			c-0.374-0.749,0.374-1.498,0.749-2.247c0.749-1.123,1.872-1.123,3.37-1.123c0.374,0.374,0.374,0.374,0.374,0.749
			C452.254,485.583,451.879,486.706,451.13,487.455z"/>
	</g>
	<g id="XMLID_9_">
		<path id="XMLID_10_" style="fill:#DADADA;" d="M552.24,443.641c0.749-0.749,1.498-1.123,1.872-1.498c-0.374-0.374,0.375,0,0,0
			l0.375-0.374c-1.123-2.247-2.621-4.868-4.119-6.741C551.491,437.649,551.865,440.645,552.24,443.641z"/>
	</g>
	<path id="XMLID_6_" style="fill:#001F47;" d="M443.266,529.397l-4.868-7.115l-34.078,23.967l2.621,3.745l14.979-10.485l2.247,2.996
		l-12.358,8.613c-1.123,0.749-1.498,1.872-2.247,2.621l0,0l2.996,4.119l0.374-0.374c0.374-1.123,0.749-1.872,1.872-2.621
		l11.234-7.864c1.498-1.123,2.247-2.247,2.247-3.37c0.374,0,0.749,0.374,1.498,0.374s1.498-0.374,2.247-0.749l10.86-7.49
		c1.123-0.749,1.498-1.872,1.872-2.996C444.39,531.644,444.015,530.146,443.266,529.397z M439.522,532.018l-11.234,7.864
		l-2.247-3.37l0,0l11.234-7.864L439.522,532.018L439.522,532.018z"/>
	<path id="XMLID_2_" style="fill:#001F47;" d="M456.373,544.376c0-1.123-0.749-2.247-1.498-2.996l-6.741-5.617l-27.337,31.831
		l6.741,5.617c0.749,0.749,1.872,1.123,2.996,1.123c1.498,0,2.621-0.749,3.37-1.498l8.239-9.362
		c1.123-1.498,1.872-2.621,1.123-4.119c0.374,0,0.374,0,0.749,0c1.123,0,1.872-0.374,2.621-1.498l8.613-9.736
		C456.373,546.623,456.748,545.499,456.373,544.376z M439.522,558.981l-8.988,10.485l-2.996-2.621l9.362-10.485L439.522,558.981
		L439.522,558.981z M442.517,555.236l-2.621-2.621l8.988-10.485l2.996,2.621L442.517,555.236z"/>
</g>
</svg>
