<?xml version="1.0" encoding="iso-8859-1"?>
<!-- Generator: Adobe Illustrator 26.0.1, SVG Export Plug-In . SVG Version: 6.00 Build 0)  -->
<svg version="1.1" id="Layer_1" xmlns="http://www.w3.org/2000/svg" xmlns:xlink="http://www.w3.org/1999/xlink" x="0px" y="0px"
	 viewBox="0 0 1000 1000" style="enable-background:new 0 0 1000 1000;" xml:space="preserve">
<g id="watermark_1_">
	<g>
		<g id="watermark" style="opacity:0.61;">
			<g>
				<g>
					<g>
						<g>
							<polygon style="fill:#FFFFFF;" points="421.112,924.528 409.007,952.493 402.615,952.493 390.55,924.528 397.541,924.528 
								406.051,944.503 414.68,924.528 							"/>
						</g>
						<g>
							<path style="fill:#FFFFFF;" d="M442.323,943.185h-16.26c0.599,2.677,2.876,4.315,6.153,4.315
								c2.277,0,3.915-0.679,5.393-2.077l3.316,3.595c-1.997,2.278-4.994,3.476-8.868,3.476c-7.431,0-12.265-4.674-12.265-11.067
								c0-6.432,4.914-11.066,11.466-11.066c6.312,0,11.186,4.235,11.186,11.146C442.443,941.987,442.363,942.666,442.323,943.185
								 M425.983,939.55h10.587c-0.44-2.717-2.478-4.475-5.274-4.475C428.46,935.075,426.422,936.793,425.983,939.55"/>
						</g>
						<g>
							<path style="fill:#FFFFFF;" d="M444.997,941.427c0-6.471,4.994-11.066,11.985-11.066c4.514,0,8.07,1.958,9.628,5.473
								l-4.834,2.597c-1.159-2.038-2.877-2.956-4.834-2.956c-3.156,0-5.633,2.198-5.633,5.952c0,3.756,2.477,5.953,5.633,5.953
								c1.958,0,3.675-0.879,4.834-2.956l4.834,2.637c-1.558,3.436-5.114,5.433-9.628,5.433
								C449.991,952.493,444.997,947.899,444.997,941.427"/>
						</g>
						<g>
							<path style="fill:#FFFFFF;" d="M484.386,951.135c-1.279,0.919-3.157,1.358-5.074,1.358c-5.073,0-8.03-2.597-8.03-7.711
								v-8.829h-3.316v-4.794h3.316v-5.233h6.232v5.233h5.353v4.794h-5.353v8.749c0,1.837,0.998,2.836,2.677,2.836
								c0.918,0,1.837-0.279,2.517-0.799L484.386,951.135z"/>
						</g>
					</g>
					<g>
						<path style="fill:#FFFFFF;" d="M527.157,930.68v5.753c-0.519-0.04-0.918-0.08-1.398-0.08c-3.435,0-5.713,1.877-5.713,5.993
							v10.147h-6.232V931h5.953v2.836C521.284,931.759,523.841,930.68,527.157,930.68"/>
					</g>
					<g>
						<path style="fill:#FFFFFF;" d="M528.954,949.257l2.197-4.874c2.357,1.718,5.873,2.916,9.229,2.916
							c3.836,0,5.393-1.278,5.393-2.996c0-5.233-16.26-1.638-16.26-12.025c0-4.754,3.835-8.709,11.785-8.709
							c3.516,0,7.112,0.839,9.708,2.477l-1.998,4.914c-2.597-1.478-5.273-2.197-7.75-2.197c-3.835,0-5.313,1.438-5.313,3.196
							c0,5.154,16.259,1.598,16.259,11.865c0,4.675-3.875,8.67-11.865,8.67C535.905,952.493,531.43,951.175,528.954,949.257"/>
					</g>
					<g>
						<path style="fill:#FFFFFF;" d="M577.131,943.185h-16.26c0.599,2.677,2.876,4.315,6.153,4.315c2.277,0,3.915-0.679,5.393-2.077
							l3.316,3.595c-1.998,2.278-4.994,3.476-8.869,3.476c-7.431,0-12.265-4.674-12.265-11.067c0-6.432,4.914-11.066,11.466-11.066
							c6.312,0,11.187,4.235,11.187,11.146C577.251,941.987,577.171,942.666,577.131,943.185 M560.791,939.55h10.587
							c-0.439-2.717-2.477-4.475-5.273-4.475C563.268,935.075,561.231,936.793,560.791,939.55"/>
					</g>
					<g>
						<path style="fill:#FFFFFF;" d="M602.337,943.185h-16.26c0.599,2.677,2.876,4.315,6.152,4.315c2.277,0,3.915-0.679,5.393-2.077
							l3.316,3.595c-1.998,2.278-4.994,3.476-8.869,3.476c-7.431,0-12.265-4.674-12.265-11.067c0-6.432,4.914-11.066,11.466-11.066
							c6.312,0,11.186,4.235,11.186,11.146C602.457,941.987,602.377,942.666,602.337,943.185 M585.997,939.55h10.587
							c-0.439-2.717-2.477-4.475-5.273-4.475C588.474,935.075,586.437,936.793,585.997,939.55"/>
					</g>
					<g>
						<polygon style="fill:#FFFFFF;" points="615.838,944.064 612.841,947.02 612.841,952.493 606.61,952.493 606.61,922.85 
							612.841,922.85 612.841,939.629 621.95,931 629.381,931 620.432,940.108 630.18,952.493 622.63,952.493 						"/>
					</g>
					<g>
						<path style="fill:#FFFFFF;" d="M514.371,955.416L514.371,955.416l-6.226-6.226c-0.947,1.107-2.075,2.054-3.339,2.796
							c-0.201,0.15-0.406,0.296-0.616,0.433l6.589,6.589c0.992,0.992,2.601,0.992,3.592,0
							C515.363,958.017,515.363,956.408,514.371,955.416"/>
					</g>
					<g>
						<path style="fill:#FFFFFF;" d="M499.965,929.04c0.48-0.377,1.077-0.612,1.735-0.612c0.091,0,0.181,0.005,0.27,0.013
							c-0.466-0.34-1.041-0.542-1.663-0.542c-0.859,0-1.619,0.392-2.137,0.998c-0.111,0-0.218,0.013-0.328,0.016
							c0.086-0.167,0.139-0.354,0.139-0.555c0-0.509-0.311-0.945-0.752-1.13c0.19,0.275,0.301,0.608,0.301,0.968
							c0,0.267-0.066,0.517-0.176,0.742c-6.119,0.437-10.95,5.527-10.95,11.757c0,6.516,5.283,11.799,11.799,11.799
							c6.517,0,11.8-5.283,11.8-11.799C510.004,934.777,505.644,929.892,499.965,929.04 M495.61,932.114
							c0.947,0,1.837,0.244,2.611,0.674c0.813-0.532,1.785-0.842,2.828-0.842c1.547,0,2.934,0.68,3.883,1.756
							c-0.948-0.826-2.186-1.328-3.541-1.328c-0.977,0-1.895,0.261-2.686,0.716c-0.172,0.1-0.34,0.208-0.499,0.326
							c-0.142-0.104-0.29-0.203-0.444-0.292c-0.803-0.476-1.741-0.749-2.743-0.749c-0.653,0-1.279,0.117-1.86,0.331
							C493.895,932.328,494.727,932.114,495.61,932.114 M503.858,941.785c0.25,0.664,0.394,1.38,0.394,2.131
							c0,3.34-2.707,6.047-6.047,6.047c-3.339,0-6.047-2.707-6.047-6.047c0-0.751,0.143-1.467,0.394-2.131
							c-1.35-0.831-2.253-2.317-2.253-4.019c0-2.607,2.114-4.72,4.72-4.72c1.23,0,2.346,0.474,3.186,1.244
							c0.84-0.77,1.956-1.244,3.186-1.244c2.607,0,4.72,2.113,4.72,4.72C506.111,939.467,505.208,940.954,503.858,941.785"/>
					</g>
					<g>
						<path style="fill:#FFFFFF;" d="M503.627,937.351c0,1.082-0.879,1.961-1.961,1.961c-1.082,0-1.961-0.879-1.961-1.961
							s0.879-1.961,1.961-1.961c0.22,0,0.428,0.037,0.625,0.102c-0.065,0.135-0.099,0.287-0.099,0.445
							c0,0.595,0.482,1.076,1.077,1.076c0.11,0,0.217-0.017,0.318-0.048C503.613,937.089,503.627,937.218,503.627,937.351"/>
					</g>
					<g>
						<path style="fill:#FFFFFF;" d="M496.201,937.351c0,0.818-0.665,1.482-1.483,1.482c-0.818,0-1.483-0.664-1.483-1.482
							s0.665-1.483,1.483-1.483c0.166,0,0.324,0.027,0.473,0.077c-0.049,0.102-0.075,0.217-0.075,0.337
							c0,0.449,0.364,0.814,0.814,0.814c0.083,0,0.164-0.013,0.241-0.036C496.191,937.153,496.201,937.251,496.201,937.351"/>
					</g>
					<g>
						<g>
							<g>
								<rect x="484.56" y="939.024" style="fill:#FFFFFF;" width="1.34" height="1.34"/>
							</g>
							<g>
								<rect x="510.51" y="939.024" style="fill:#FFFFFF;" width="1.34" height="1.34"/>
							</g>
							<g>
								<path style="fill:#FFFFFF;" d="M511.332,939.572h-0.304c0-7.07-5.752-12.823-12.823-12.823
									c-7.07,0-12.823,5.753-12.823,12.823h-0.305c0-3.506,1.365-6.803,3.845-9.282c2.479-2.48,5.776-3.845,9.282-3.845
									c3.507,0,6.803,1.365,9.283,3.845C509.966,932.769,511.332,936.065,511.332,939.572"/>
							</g>
						</g>
						<g>
							<rect x="497.534" y="925.927" style="fill:#FFFFFF;" width="1.34" height="1.34"/>
						</g>
						<g>
							<rect x="489.006" y="926.445" style="fill:#FFFFFF;" width="18.397" height="0.304"/>
						</g>
						<g>
							<path style="fill:#FFFFFF;" d="M489.494,926.658c0,0.235-0.191,0.427-0.427,0.427c-0.235,0-0.426-0.191-0.426-0.427
								s0.191-0.427,0.426-0.427C489.303,926.231,489.494,926.422,489.494,926.658"/>
						</g>
						<g>
							<path style="fill:#FFFFFF;" d="M507.829,926.658c0,0.235-0.191,0.427-0.427,0.427c-0.235,0-0.426-0.191-0.426-0.427
								s0.191-0.427,0.426-0.427C507.639,926.231,507.829,926.422,507.829,926.658"/>
						</g>
					</g>
				</g>
				<g>
					<path style="fill:#FFFFFF;" d="M640.109,951.171c0,3.395-5.146,3.395-5.146,0C634.963,947.779,640.109,947.779,640.109,951.171
						z"/>
				</g>
				<g>
					<g>
						<g>
							<path style="fill:#FFFFFF;" d="M307.849,936.236l3.859,13.253l4.038-13.253h4.823l-6.145,17.721h-5.073l-1.822-5.216
								l-1.572-5.896l-1.571,5.896l-1.822,5.216h-5.073l-6.18-17.721h4.858l4.038,13.253l3.822-13.253H307.849z"/>
						</g>
						<g>
							<path style="fill:#FFFFFF;" d="M340.449,936.236l3.859,13.253l4.038-13.253h4.823l-6.145,17.721h-5.073l-1.822-5.216
								l-1.571-5.896l-1.572,5.896l-1.822,5.216h-5.073l-6.18-17.721h4.858l4.038,13.253l3.822-13.253H340.449z"/>
						</g>
						<g>
							<path style="fill:#FFFFFF;" d="M373.048,936.236l3.859,13.253l4.038-13.253h4.823l-6.145,17.721h-5.073l-1.822-5.216
								l-1.572-5.896l-1.571,5.896l-1.822,5.216h-5.073l-6.18-17.721h4.858l4.038,13.253l3.822-13.253H373.048z"/>
						</g>
					</g>
					<g>
						<path style="fill:#FFFFFF;" d="M393.123,951.412c0,3.395-5.146,3.395-5.146,0C387.977,948.02,393.123,948.02,393.123,951.412z
							"/>
					</g>
					<g>
						<path style="fill:#FFFFFF;" d="M658.296,951.171c-2.036,2.001-4.177,2.787-6.787,2.787c-5.108,0-9.361-3.072-9.361-9.323
							c0-6.251,4.253-9.326,9.361-9.326c2.502,0,4.43,0.716,6.359,2.609l-2.752,2.894c-1.036-0.931-2.321-1.393-3.534-1.393
							c-2.929,0-5.073,2.144-5.073,5.216c0,3.357,2.286,5.143,5,5.143c1.393,0,2.787-0.393,3.857-1.463L658.296,951.171z"/>
					</g>
					<g>
						<path style="fill:#FFFFFF;" d="M678.097,944.777c0,5.073-3.465,9.181-9.181,9.181c-5.716,0-9.146-4.107-9.146-9.181
							c0-5.038,3.502-9.181,9.111-9.181S678.097,939.739,678.097,944.777z M664.128,944.777c0,2.679,1.609,5.181,4.788,5.181
							c3.179,0,4.788-2.502,4.788-5.181c0-2.644-1.859-5.216-4.788-5.216C665.772,939.561,664.128,942.133,664.128,944.777z"/>
					</g>
					<g>
						<path style="fill:#FFFFFF;" d="M692.828,953.958v-9.431c0-2.324-1.216-4.43-3.61-4.43c-2.356,0-3.75,2.106-3.75,4.43v9.431
							h-4.36v-17.649h4.038l0.323,2.144c0.928-1.786,2.964-2.429,4.643-2.429c2.109,0,4.218,0.858,5.216,3.287
							c1.574-2.502,3.61-3.217,5.896-3.217c5,0,7.467,3.075,7.467,8.36v9.504h-4.361v-9.504c0-2.321-0.963-4.288-3.322-4.288
							c-2.356,0-3.822,2.036-3.822,4.36v9.431H692.828z"/>
					</g>
				</g>
			</g>
		</g>
		<g style="opacity:0.61;">
			<g>
				<g>
					<path style="fill:#FFFFFF;" d="M708.973,859.493c-0.013-2.665-2.087-4.618-4.766-4.659c-2.011-0.031-1.81,0.261-1.815-1.887
						c-0.006-2.389-0.015-4.778,0.006-7.166c0.007-0.824-0.243-1.505-0.787-2.125c-5.098-5.81-10.184-11.63-15.281-17.441
						c-0.262-0.299-0.599-0.532-0.901-0.796c-13.528,0-27.055,0-40.583,0c-1.729,0.639-2.482,1.889-2.478,3.72
						c0.021,8.159,0.009,16.318,0.008,24.478c0,1.21-0.007,1.281-1.197,1.201c-3.258-0.221-5.477,2.147-5.436,5.426
						c0.096,7.568,0.028,15.137,0.031,22.706c0.001,3.44,1.887,5.32,5.333,5.331c1.267,0.004,1.268,0.004,1.268,1.306
						c0.001,4.831-0.002,9.662,0.002,14.493c0.002,2.595,1.262,3.855,3.85,3.855c17.446,0.001,34.891,0.001,52.337,0
						c2.543,0,3.822-1.268,3.824-3.799c0.005-4.912,0.001-9.823,0.003-14.735c0-1.115,0.005-1.112,1.131-1.121
						c0.589-0.005,1.177,0.017,1.761-0.127c2.169-0.535,3.68-2.273,3.689-4.503C709.007,875.597,709.011,867.545,708.973,859.493z
						 M647.034,828.716c11.619-0.001,23.237-0.001,34.856,0c1.193,0,1.206,0.015,1.207,1.222c0.001,4.884-0.002,9.767,0.002,14.651
						c0.001,1.765,0.543,2.305,2.307,2.306c4.159,0.003,8.318,0,12.477,0.003c0.997,0.001,1.044,0.046,1.046,1.052
						c0.006,1.932,0.005,3.864,0,5.796c-0.003,1.038-0.051,1.085-1.098,1.085c-8.479,0.002-16.958,0.001-25.438,0.001
						c-8.452,0-16.905,0-25.357,0c-1.198,0-1.202-0.003-1.202-1.221c-0.001-7.889-0.001-15.778,0-23.667
						C645.835,828.724,645.844,828.716,647.034,828.716z M697.728,903.645c-8.454,0.001-16.908,0.001-25.362,0.001
						c-8.427,0-16.854,0.001-25.281,0c-1.245,0-1.249-0.003-1.249-1.262c-0.001-4.348-0.003-8.696,0.001-13.043
						c0.001-1.01,0.051-1.059,1.041-1.059c16.989-0.002,33.977-0.002,50.966,0c1.041,0,1.086,0.044,1.087,1.094
						c0.003,4.348,0.003,8.696,0.001,13.043C698.931,903.634,698.92,903.645,697.728,903.645z"/>
				</g>
				<g>
					<g>
						<rect x="668.546" y="828.478" style="fill:#FFFFFF;" width="3.825" height="2.295"/>
					</g>
					<g>
						<rect x="664.722" y="830.773" style="fill:#FFFFFF;" width="3.825" height="2.295"/>
					</g>
					<g>
						<rect x="668.546" y="833.068" style="fill:#FFFFFF;" width="3.825" height="2.295"/>
					</g>
					<g>
						<rect x="664.722" y="835.363" style="fill:#FFFFFF;" width="3.825" height="2.295"/>
					</g>
					<g>
						<rect x="668.546" y="837.658" style="fill:#FFFFFF;" width="3.825" height="2.295"/>
					</g>
					<g>
						<rect x="664.722" y="839.953" style="fill:#FFFFFF;" width="3.825" height="2.295"/>
					</g>
					<g>
						<rect x="668.546" y="842.247" style="fill:#FFFFFF;" width="3.825" height="2.295"/>
					</g>
					<g>
						<rect x="664.722" y="844.542" style="fill:#FFFFFF;" width="3.825" height="2.295"/>
					</g>
					<g>
						<rect x="668.546" y="846.837" style="fill:#FFFFFF;" width="3.825" height="2.295"/>
					</g>
					<g>
						<rect x="664.722" y="849.132" style="fill:#FFFFFF;" width="3.825" height="2.295"/>
					</g>
					<g>
						<rect x="668.546" y="851.427" style="fill:#FFFFFF;" width="3.825" height="2.295"/>
					</g>
					<g>
						<rect x="664.722" y="853.722" style="fill:#FFFFFF;" width="3.825" height="2.295"/>
					</g>
				</g>
			</g>
			<g>
				<path style="fill:#FFFFFF;" d="M364.231,859.493c-0.013-2.665-2.087-4.618-4.766-4.659c-2.011-0.031-1.81,0.261-1.815-1.887
					c-0.006-2.389-0.015-4.778,0.006-7.166c0.007-0.824-0.243-1.505-0.787-2.125c-5.098-5.81-10.184-11.63-15.281-17.441
					c-0.262-0.299-0.599-0.532-0.901-0.796c-13.528,0-27.055,0-40.583,0c-1.729,0.639-2.482,1.889-2.478,3.72
					c0.021,8.159,0.009,16.318,0.008,24.478c0,1.21-0.007,1.281-1.197,1.201c-3.258-0.221-5.477,2.147-5.436,5.426
					c0.096,7.568,0.028,15.137,0.031,22.706c0.001,3.44,1.887,5.32,5.333,5.331c1.267,0.004,1.268,0.004,1.268,1.306
					c0.001,4.831-0.002,9.662,0.002,14.493c0.002,2.595,1.262,3.855,3.85,3.855c17.446,0.001,34.891,0.001,52.337,0
					c2.543,0,3.822-1.268,3.824-3.799c0.005-4.912,0.001-9.823,0.003-14.735c0-1.115,0.004-1.112,1.131-1.121
					c0.589-0.005,1.177,0.017,1.761-0.127c2.169-0.535,3.68-2.273,3.689-4.503C364.264,875.597,364.269,867.545,364.231,859.493z
					 M302.292,828.716c11.619-0.001,23.237-0.001,34.856,0c1.192,0,1.206,0.015,1.207,1.222c0.001,4.884-0.001,9.767,0.002,14.651
					c0.001,1.765,0.543,2.305,2.307,2.306c4.159,0.003,8.318,0,12.477,0.003c0.997,0.001,1.044,0.046,1.046,1.052
					c0.006,1.932,0.005,3.864,0,5.796c-0.003,1.038-0.051,1.085-1.098,1.085c-8.479,0.002-16.958,0.001-25.438,0.001
					c-8.452,0-16.905,0-25.357,0c-1.198,0-1.202-0.003-1.202-1.221c-0.001-7.889-0.001-15.778,0-23.667
					C301.093,828.724,301.102,828.716,302.292,828.716z M352.985,903.645c-8.454,0.001-16.908,0.001-25.362,0.001
					c-8.427,0-16.854,0.001-25.281,0c-1.245,0-1.249-0.003-1.249-1.262c-0.001-4.348-0.003-8.696,0.001-13.043
					c0.001-1.01,0.051-1.059,1.041-1.059c16.989-0.002,33.977-0.002,50.966,0c1.041,0,1.086,0.044,1.087,1.094
					c0.003,4.348,0.003,8.696,0.001,13.043C354.188,903.634,354.177,903.645,352.985,903.645z"/>
			</g>
			<g>
				<path style="fill:#FFFFFF;" d="M303.581,879.891v-17.193h6.051c0.816,0,1.581,0.132,2.293,0.396
					c0.712,0.264,1.333,0.636,1.861,1.117c0.527,0.48,0.944,1.053,1.248,1.717c0.304,0.665,0.456,1.397,0.456,2.198
					c0,0.816-0.152,1.557-0.456,2.221s-0.721,1.236-1.248,1.717c-0.529,0.48-1.149,0.852-1.861,1.117
					c-0.713,0.264-1.477,0.396-2.293,0.396h-2.809v6.315H303.581z M309.68,870.503c0.848,0,1.489-0.241,1.921-0.721
					c0.432-0.48,0.648-1.032,0.648-1.656c0-0.304-0.052-0.601-0.156-0.889c-0.105-0.288-0.264-0.54-0.48-0.756
					c-0.216-0.217-0.484-0.388-0.805-0.516c-0.32-0.129-0.696-0.193-1.128-0.193h-2.857v4.731H309.68z"/>
				<path style="fill:#FFFFFF;" d="M317.796,862.699h3.77l6.916,11.526h0.191l-0.191-3.314v-8.212h3.217v17.193h-3.409l-7.3-12.174
					h-0.191l0.191,3.314v8.86h-3.193V862.699z"/>
				<path style="fill:#FFFFFF;" d="M343.08,870.454h8.429c0.048,0.193,0.087,0.425,0.12,0.697c0.031,0.272,0.048,0.544,0.048,0.816
					c0,1.104-0.167,2.145-0.504,3.121c-0.336,0.977-0.865,1.849-1.585,2.618c-0.768,0.817-1.69,1.449-2.761,1.897
					c-1.073,0.448-2.298,0.672-3.674,0.672c-1.249,0-2.426-0.224-3.53-0.672c-1.104-0.447-2.065-1.072-2.881-1.873
					c-0.816-0.8-1.465-1.749-1.945-2.845c-0.48-1.097-0.72-2.293-0.72-3.59c0-1.296,0.24-2.493,0.72-3.589s1.129-2.045,1.945-2.845
					c0.816-0.8,1.777-1.425,2.881-1.873c1.104-0.448,2.281-0.672,3.53-0.672c1.392,0,2.637,0.24,3.734,0.72
					c1.097,0.48,2.036,1.144,2.821,1.993l-2.232,2.185c-0.562-0.592-1.185-1.044-1.874-1.357s-1.513-0.468-2.473-0.468
					c-0.786,0-1.53,0.14-2.234,0.421c-0.705,0.28-1.321,0.676-1.85,1.188c-0.527,0.512-0.949,1.133-1.259,1.861
					c-0.312,0.728-0.469,1.541-0.469,2.437c0,0.897,0.157,1.709,0.469,2.438c0.311,0.728,0.735,1.349,1.271,1.861
					c0.536,0.512,1.156,0.909,1.862,1.188c0.704,0.281,1.457,0.421,2.258,0.421c0.911,0,1.684-0.132,2.317-0.396
					c0.632-0.264,1.171-0.604,1.62-1.021c0.321-0.288,0.598-0.652,0.829-1.092s0.412-0.932,0.541-1.477h-5.404V870.454z"/>
			</g>
			<g>
				<path style="fill:#FFFFFF;" d="M443.437,859.493c-0.013-2.665-2.087-4.618-4.766-4.659c-2.011-0.031-1.81,0.261-1.815-1.887
					c-0.006-2.389-0.015-4.778,0.006-7.166c0.007-0.824-0.243-1.505-0.787-2.125c-5.098-5.81-10.184-11.63-15.281-17.441
					c-0.262-0.299-0.599-0.532-0.901-0.796c-13.528,0-27.055,0-40.583,0c-1.729,0.639-2.482,1.889-2.478,3.72
					c0.021,8.159,0.009,16.318,0.008,24.478c0,1.21-0.007,1.281-1.197,1.201c-3.258-0.221-5.477,2.147-5.436,5.426
					c0.096,7.568,0.028,15.137,0.031,22.706c0.001,3.44,1.887,5.32,5.333,5.331c1.267,0.004,1.268,0.004,1.268,1.306
					c0.001,4.831-0.002,9.662,0.002,14.493c0.002,2.595,1.262,3.855,3.85,3.855c17.446,0.001,34.891,0.001,52.337,0
					c2.543,0,3.822-1.268,3.824-3.799c0.005-4.912,0.001-9.823,0.003-14.735c0-1.115,0.004-1.112,1.131-1.121
					c0.589-0.005,1.177,0.017,1.761-0.127c2.169-0.535,3.68-2.273,3.689-4.503C443.47,875.597,443.475,867.545,443.437,859.493z
					 M381.498,828.716c11.619-0.001,23.237-0.001,34.856,0c1.192,0,1.206,0.015,1.207,1.222c0.001,4.884-0.001,9.767,0.002,14.651
					c0.001,1.765,0.543,2.305,2.307,2.306c4.159,0.003,8.318,0,12.477,0.003c0.997,0.001,1.044,0.046,1.046,1.052
					c0.006,1.932,0.005,3.864,0,5.796c-0.003,1.038-0.051,1.085-1.098,1.085c-8.479,0.002-16.958,0.001-25.438,0.001
					c-8.452,0-16.905,0-25.357,0c-1.198,0-1.202-0.003-1.202-1.221c-0.001-7.889-0.001-15.778,0-23.667
					C380.299,828.724,380.308,828.716,381.498,828.716z M432.192,903.645c-8.454,0.001-16.908,0.001-25.362,0.001
					c-8.427,0-16.854,0.001-25.281,0c-1.245,0-1.249-0.003-1.249-1.262c-0.001-4.348-0.002-8.696,0.001-13.043
					c0.001-1.01,0.051-1.059,1.041-1.059c16.989-0.002,33.977-0.002,50.966,0c1.041,0,1.086,0.044,1.087,1.094
					c0.003,4.348,0.003,8.696,0.001,13.043C433.394,903.634,433.384,903.645,432.192,903.645z"/>
			</g>
			<g>
				<path style="fill:#FFFFFF;" d="M402.272,862.699h3.698l6.46,17.193h-3.578l-1.416-4.106h-6.628l-1.417,4.106h-3.578
					L402.272,862.699z M406.379,872.808l-1.537-4.298l-0.625-2.089h-0.192l-0.625,2.089l-1.537,4.298H406.379z"/>
				<path style="fill:#FFFFFF;" d="M415.815,866.541c-0.273,0-0.533-0.052-0.781-0.156c-0.248-0.104-0.465-0.248-0.648-0.432
					c-0.184-0.184-0.328-0.396-0.432-0.636c-0.105-0.241-0.156-0.504-0.156-0.793s0.052-0.552,0.156-0.793
					c0.104-0.24,0.248-0.452,0.432-0.636c0.184-0.184,0.4-0.328,0.648-0.432c0.248-0.104,0.508-0.156,0.781-0.156
					c0.56,0,1.041,0.196,1.441,0.588c0.4,0.393,0.601,0.869,0.601,1.429c0,0.56-0.201,1.037-0.601,1.428
					C416.856,866.345,416.375,866.541,415.815,866.541z M414.255,879.891v-11.766h3.145v11.766H414.255z"/>
			</g>
			<g>
				<path style="fill:#FFFFFF;" d="M524.043,859.493c-0.013-2.665-2.087-4.618-4.766-4.659c-2.011-0.031-1.81,0.261-1.815-1.887
					c-0.006-2.389-0.015-4.778,0.006-7.166c0.007-0.824-0.243-1.505-0.787-2.125c-5.098-5.81-10.184-11.63-15.281-17.441
					c-0.262-0.299-0.599-0.532-0.901-0.796c-13.528,0-27.055,0-40.583,0c-1.729,0.639-2.482,1.889-2.478,3.72
					c0.021,8.159,0.009,16.318,0.008,24.478c0,1.21-0.007,1.281-1.197,1.201c-3.258-0.221-5.477,2.147-5.436,5.426
					c0.096,7.568,0.028,15.137,0.031,22.706c0.001,3.44,1.887,5.32,5.333,5.331c1.267,0.004,1.268,0.004,1.268,1.306
					c0.001,4.831-0.002,9.662,0.002,14.493c0.002,2.595,1.262,3.855,3.85,3.855c17.446,0.001,34.891,0.001,52.337,0
					c2.543,0,3.822-1.268,3.824-3.799c0.005-4.912,0.001-9.823,0.003-14.735c0-1.115,0.004-1.112,1.131-1.121
					c0.589-0.005,1.177,0.017,1.761-0.127c2.169-0.535,3.68-2.273,3.689-4.503C524.076,875.597,524.081,867.545,524.043,859.493z
					 M462.104,828.716c11.619-0.001,23.237-0.001,34.856,0c1.192,0,1.206,0.015,1.207,1.222c0.001,4.884-0.001,9.767,0.002,14.651
					c0.001,1.765,0.543,2.305,2.307,2.306c4.159,0.003,8.318,0,12.477,0.003c0.997,0.001,1.044,0.046,1.046,1.052
					c0.006,1.932,0.005,3.864,0,5.796c-0.003,1.038-0.051,1.085-1.098,1.085c-8.479,0.002-16.958,0.001-25.438,0.001
					c-8.452,0-16.905,0-25.357,0c-1.198,0-1.202-0.003-1.202-1.221c-0.001-7.889-0.001-15.778,0-23.667
					C460.905,828.724,460.914,828.716,462.104,828.716z M512.798,903.645c-8.454,0.001-16.908,0.001-25.362,0.001
					c-8.427,0-16.854,0.001-25.281,0c-1.245,0-1.249-0.003-1.249-1.262c-0.001-4.348-0.002-8.696,0.001-13.043
					c0.001-1.01,0.051-1.059,1.041-1.059c16.989-0.002,33.977-0.002,50.966,0c1.041,0,1.086,0.044,1.087,1.094
					c0.003,4.348,0.003,8.696,0.001,13.043C514,903.634,513.989,903.645,512.798,903.645z"/>
			</g>
			<g>
				<path style="fill:#FFFFFF;" d="M470.308,880.275c-0.737,0-1.441-0.104-2.113-0.312c-0.672-0.208-1.289-0.52-1.849-0.936
					c-0.56-0.416-1.048-0.925-1.464-1.525c-0.417-0.601-0.745-1.301-0.985-2.101l3.049-1.2c0.224,0.864,0.616,1.581,1.177,2.149
					s1.297,0.852,2.209,0.852c0.336,0,0.66-0.044,0.973-0.132c0.312-0.087,0.592-0.216,0.84-0.384
					c0.248-0.168,0.444-0.38,0.589-0.636c0.144-0.256,0.216-0.552,0.216-0.888c0-0.32-0.056-0.608-0.168-0.865
					c-0.112-0.255-0.3-0.495-0.564-0.72c-0.264-0.224-0.609-0.44-1.033-0.648c-0.424-0.208-0.948-0.424-1.572-0.648l-1.056-0.384
					c-0.465-0.16-0.933-0.376-1.405-0.648c-0.472-0.272-0.9-0.6-1.284-0.985c-0.385-0.384-0.701-0.836-0.949-1.357
					c-0.249-0.52-0.372-1.108-0.372-1.765c0-0.672,0.132-1.301,0.396-1.885c0.264-0.584,0.64-1.096,1.129-1.537
					c0.488-0.44,1.072-0.784,1.753-1.032c0.681-0.248,1.437-0.372,2.269-0.372c0.864,0,1.612,0.116,2.245,0.348
					c0.633,0.232,1.168,0.528,1.609,0.888c0.44,0.36,0.796,0.757,1.068,1.188c0.272,0.433,0.472,0.84,0.601,1.225l-2.857,1.2
					c-0.161-0.48-0.453-0.913-0.876-1.297c-0.425-0.384-1.005-0.576-1.741-0.576c-0.704,0-1.289,0.164-1.753,0.492
					c-0.465,0.329-0.697,0.757-0.697,1.285c0,0.512,0.224,0.949,0.672,1.309c0.448,0.36,1.161,0.708,2.137,1.044l1.081,0.36
					c0.688,0.241,1.316,0.517,1.885,0.828c0.568,0.312,1.056,0.684,1.465,1.117c0.408,0.433,0.72,0.925,0.936,1.477
					c0.217,0.552,0.324,1.189,0.324,1.909c0,0.897-0.18,1.669-0.54,2.317c-0.36,0.648-0.82,1.181-1.38,1.597
					c-0.561,0.416-1.193,0.728-1.897,0.936C471.668,880.172,470.98,880.275,470.308,880.275z"/>
				<path style="fill:#FFFFFF;" d="M477.175,862.699h3.506l3.554,10.349l0.625,2.209h0.192l0.672-2.209l3.698-10.349h3.506
					l-6.268,17.193h-3.409L477.175,862.699z"/>
				<path style="fill:#FFFFFF;" d="M502.388,870.454h8.428c0.048,0.193,0.088,0.425,0.12,0.697c0.033,0.272,0.049,0.544,0.049,0.816
					c0,1.104-0.169,2.145-0.505,3.121c-0.336,0.977-0.864,1.849-1.585,2.618c-0.768,0.817-1.688,1.449-2.761,1.897
					c-1.073,0.448-2.298,0.672-3.674,0.672c-1.249,0-2.425-0.224-3.529-0.672c-1.105-0.447-2.066-1.072-2.882-1.873
					c-0.816-0.8-1.465-1.749-1.945-2.845c-0.48-1.097-0.72-2.293-0.72-3.59c0-1.296,0.241-2.493,0.72-3.589
					c0.48-1.097,1.129-2.045,1.945-2.845c0.816-0.8,1.777-1.425,2.882-1.873c1.104-0.448,2.28-0.672,3.529-0.672
					c1.392,0,2.637,0.24,3.734,0.72c1.097,0.48,2.038,1.144,2.822,1.993l-2.234,2.185c-0.56-0.592-1.185-1.044-1.874-1.357
					c-0.687-0.312-1.512-0.468-2.473-0.468c-0.784,0-1.528,0.14-2.234,0.421c-0.704,0.28-1.321,0.676-1.848,1.188
					c-0.528,0.512-0.949,1.133-1.261,1.861c-0.312,0.728-0.468,1.541-0.468,2.437c0,0.897,0.156,1.709,0.468,2.438
					c0.312,0.728,0.737,1.349,1.273,1.861c0.536,0.512,1.156,0.909,1.86,1.188c0.705,0.281,1.457,0.421,2.258,0.421
					c0.913,0,1.685-0.132,2.317-0.396c0.632-0.264,1.173-0.604,1.621-1.021c0.32-0.288,0.596-0.652,0.828-1.092
					c0.233-0.44,0.412-0.932,0.541-1.477h-5.402V870.454z"/>
			</g>
			<g>
				<path style="fill:#FFFFFF;" d="M602.976,859.493c-0.013-2.665-2.087-4.618-4.766-4.659c-2.011-0.031-1.81,0.261-1.815-1.887
					c-0.006-2.389-0.015-4.778,0.006-7.166c0.007-0.824-0.243-1.505-0.787-2.125c-5.098-5.81-10.184-11.63-15.281-17.441
					c-0.262-0.299-0.599-0.532-0.901-0.796c-13.528,0-27.055,0-40.583,0c-1.729,0.639-2.482,1.889-2.478,3.72
					c0.021,8.159,0.009,16.318,0.008,24.478c0,1.21-0.007,1.281-1.197,1.201c-3.258-0.221-5.477,2.147-5.436,5.426
					c0.096,7.568,0.028,15.137,0.031,22.706c0.001,3.44,1.887,5.32,5.333,5.331c1.267,0.004,1.268,0.004,1.268,1.306
					c0.001,4.831-0.002,9.662,0.002,14.493c0.002,2.595,1.262,3.855,3.85,3.855c17.446,0.001,34.891,0.001,52.337,0
					c2.543,0,3.822-1.268,3.824-3.799c0.005-4.912,0.001-9.823,0.003-14.735c0-1.115,0.005-1.112,1.131-1.121
					c0.589-0.005,1.178,0.017,1.761-0.127c2.169-0.535,3.68-2.273,3.689-4.503C603.01,875.597,603.015,867.545,602.976,859.493z
					 M541.037,828.716c11.619-0.001,23.237-0.001,34.856,0c1.193,0,1.206,0.015,1.207,1.222c0.001,4.884-0.002,9.767,0.002,14.651
					c0.001,1.765,0.543,2.305,2.307,2.306c4.159,0.003,8.318,0,12.477,0.003c0.997,0.001,1.044,0.046,1.046,1.052
					c0.006,1.932,0.005,3.864,0,5.796c-0.003,1.038-0.051,1.085-1.098,1.085c-8.479,0.002-16.958,0.001-25.438,0.001
					c-8.452,0-16.905,0-25.357,0c-1.198,0-1.202-0.003-1.202-1.221c-0.001-7.889-0.001-15.778,0-23.667
					C539.838,828.724,539.847,828.716,541.037,828.716z M591.731,903.645c-8.454,0.001-16.908,0.001-25.362,0.001
					c-8.427,0-16.854,0.001-25.281,0c-1.245,0-1.249-0.003-1.249-1.262c-0.001-4.348-0.003-8.696,0.001-13.043
					c0.001-1.01,0.051-1.059,1.041-1.059c16.989-0.002,33.977-0.002,50.966,0c1.041,0,1.086,0.044,1.087,1.094
					c0.003,4.348,0.003,8.696,0.001,13.043C592.934,903.634,592.923,903.645,591.731,903.645z"/>
			</g>
			<g>
				<path style="fill:#FFFFFF;" d="M549.998,865.772v3.986h6.891v3.074h-6.891v3.986h7.659v3.073h-10.901v-17.193h10.901v3.073
					H549.998z"/>
				<path style="fill:#FFFFFF;" d="M560.635,879.891v-17.193h6.051c0.816,0,1.581,0.132,2.293,0.396
					c0.712,0.264,1.333,0.636,1.861,1.117c0.528,0.48,0.944,1.053,1.249,1.717c0.304,0.665,0.456,1.397,0.456,2.198
					c0,0.816-0.152,1.557-0.456,2.221c-0.305,0.664-0.721,1.236-1.249,1.717c-0.528,0.48-1.149,0.852-1.861,1.117
					c-0.713,0.264-1.477,0.396-2.293,0.396h-2.809v6.315H560.635z M566.735,870.503c0.848,0,1.489-0.241,1.921-0.721
					c0.432-0.48,0.648-1.032,0.648-1.656c0-0.304-0.052-0.601-0.156-0.889c-0.105-0.288-0.264-0.54-0.48-0.756
					c-0.216-0.217-0.484-0.388-0.805-0.516c-0.32-0.129-0.696-0.193-1.128-0.193h-2.857v4.731H566.735z"/>
				<path style="fill:#FFFFFF;" d="M580.109,880.275c-0.737,0-1.441-0.104-2.113-0.312c-0.672-0.208-1.289-0.52-1.849-0.936
					c-0.56-0.416-1.049-0.925-1.465-1.525c-0.416-0.601-0.744-1.301-0.985-2.101l3.049-1.2c0.224,0.864,0.616,1.581,1.177,2.149
					c0.56,0.568,1.296,0.852,2.209,0.852c0.336,0,0.66-0.044,0.973-0.132c0.312-0.087,0.592-0.216,0.84-0.384
					c0.248-0.168,0.444-0.38,0.588-0.636c0.144-0.256,0.217-0.552,0.217-0.888c0-0.32-0.057-0.608-0.168-0.865
					c-0.112-0.255-0.3-0.495-0.565-0.72c-0.264-0.224-0.608-0.44-1.032-0.648c-0.424-0.208-0.949-0.424-1.573-0.648l-1.056-0.384
					c-0.465-0.16-0.932-0.376-1.404-0.648c-0.473-0.272-0.901-0.6-1.285-0.985c-0.384-0.384-0.701-0.836-0.949-1.357
					c-0.248-0.52-0.372-1.108-0.372-1.765c0-0.672,0.132-1.301,0.396-1.885c0.264-0.584,0.64-1.096,1.129-1.537
					c0.489-0.44,1.073-0.784,1.753-1.032c0.68-0.248,1.437-0.372,2.269-0.372c0.865,0,1.613,0.116,2.246,0.348
					c0.632,0.232,1.168,0.528,1.609,0.888c0.44,0.36,0.796,0.757,1.068,1.188c0.272,0.433,0.472,0.84,0.601,1.225l-2.857,1.2
					c-0.161-0.48-0.453-0.913-0.877-1.297s-1.005-0.576-1.741-0.576c-0.705,0-1.289,0.164-1.753,0.492
					c-0.465,0.329-0.696,0.757-0.696,1.285c0,0.512,0.224,0.949,0.672,1.309c0.448,0.36,1.16,0.708,2.137,1.044l1.08,0.36
					c0.689,0.241,1.317,0.517,1.885,0.828c0.568,0.312,1.056,0.684,1.465,1.117c0.408,0.433,0.72,0.925,0.936,1.477
					c0.216,0.552,0.324,1.189,0.324,1.909c0,0.897-0.18,1.669-0.54,2.317c-0.36,0.648-0.821,1.181-1.38,1.597
					c-0.561,0.416-1.193,0.728-1.897,0.936C581.47,880.172,580.782,880.275,580.109,880.275z"/>
			</g>
			<g>
				<path style="fill:#FFFFFF;" d="M655.431,876.625l8.716-10.854h-8.332v-3.073h12.103v3.266l-8.621,10.854h8.716v3.073h-12.582
					V876.625z"/>
				<path style="fill:#FFFFFF;" d="M670.702,862.699h3.242v17.193h-3.242V862.699z"/>
				<path style="fill:#FFFFFF;" d="M677.402,879.891v-17.193h6.051c0.817,0,1.581,0.132,2.293,0.396
					c0.712,0.264,1.333,0.636,1.861,1.117s0.944,1.053,1.249,1.717c0.304,0.665,0.456,1.397,0.456,2.198
					c0,0.816-0.152,1.557-0.456,2.221c-0.305,0.664-0.721,1.236-1.249,1.717s-1.149,0.852-1.861,1.117
					c-0.713,0.264-1.477,0.396-2.293,0.396h-2.809v6.315H677.402z M683.501,870.503c0.848,0,1.489-0.241,1.921-0.721
					c0.433-0.48,0.648-1.032,0.648-1.656c0-0.304-0.052-0.601-0.156-0.889c-0.105-0.288-0.264-0.54-0.48-0.756
					c-0.216-0.217-0.484-0.388-0.805-0.516c-0.32-0.129-0.696-0.193-1.128-0.193h-2.857v4.731H683.501z"/>
			</g>
		</g>
		<g style="opacity:0.61;">
			<path style="fill:#FFFFFF;" d="M609.144,863.785h19.739v4.881h-19.739V863.785z M609.144,872.201h19.739v4.884h-19.739V872.201z"
				/>
		</g>
	</g>
	<g style="opacity:0.61;">
		<path style="fill:#FFFFFF;" d="M297,963.076h3.498c2.75,0,4.603,1.768,4.603,4.297s-1.854,4.296-4.603,4.296H297V963.076z
			 M300.449,970.883c2.283,0,3.756-1.448,3.756-3.51s-1.473-3.511-3.756-3.511h-2.541v7.021H300.449z"/>
		<path style="fill:#FFFFFF;" d="M315.251,967.373c0-2.504,1.915-4.37,4.517-4.37c2.577,0,4.505,1.853,4.505,4.37
			c0,2.516-1.927,4.369-4.505,4.369C317.166,971.742,315.251,969.877,315.251,967.373z M323.365,967.373
			c0-2.05-1.534-3.56-3.596-3.56c-2.075,0-3.621,1.51-3.621,3.56c0,2.049,1.546,3.559,3.621,3.559
			C321.831,970.932,323.365,969.422,323.365,967.373z"/>
		<path style="fill:#FFFFFF;" d="M346.724,963.076l-2.897,8.593h-0.957l-2.516-7.328l-2.529,7.328h-0.945l-2.897-8.593h0.933
			l2.479,7.389l2.566-7.389h0.847l2.529,7.426l2.516-7.426H346.724z"/>
		<path style="fill:#FFFFFF;" d="M364.435,963.076v8.593h-0.749l-5.524-6.972v6.972h-0.908v-8.593h0.749l5.536,6.973v-6.973H364.435
			z"/>
		<path style="fill:#FFFFFF;" d="M376.108,963.076h0.908v7.807h4.812v0.786h-5.72V963.076z"/>
		<path style="fill:#FFFFFF;" d="M391.279,967.373c0-2.504,1.915-4.37,4.517-4.37c2.577,0,4.505,1.853,4.505,4.37
			c0,2.516-1.927,4.369-4.505,4.369C393.194,971.742,391.279,969.877,391.279,967.373z M399.392,967.373
			c0-2.05-1.534-3.56-3.596-3.56c-2.075,0-3.621,1.51-3.621,3.56c0,2.049,1.546,3.559,3.621,3.559
			C397.858,970.932,399.392,969.422,399.392,967.373z"/>
		<path style="fill:#FFFFFF;" d="M416.478,969.374h-4.787l-1.031,2.295h-0.945l3.928-8.593h0.896l3.928,8.593h-0.957
			L416.478,969.374z M416.147,968.637l-2.062-4.615l-2.062,4.615H416.147z"/>
		<path style="fill:#FFFFFF;" d="M428.765,963.076h3.498c2.75,0,4.603,1.768,4.603,4.297s-1.854,4.296-4.603,4.296h-3.498V963.076z
			 M432.214,970.883c2.283,0,3.756-1.448,3.756-3.51s-1.473-3.511-3.756-3.511h-2.541v7.021H432.214z"/>
		<path style="fill:#FFFFFF;" d="M465.256,969.374h-4.787l-1.031,2.295h-0.945l3.928-8.593h0.896l3.928,8.593h-0.957
			L465.256,969.374z M464.925,968.637l-2.062-4.615l-2.062,4.615H464.925z"/>
		<path style="fill:#FFFFFF;" d="M477.543,963.076h0.908v7.807h4.812v0.786h-5.72V963.076z"/>
		<path style="fill:#FFFFFF;" d="M493.647,963.076h0.908v7.807h4.812v0.786h-5.72V963.076z"/>
		<path style="fill:#FFFFFF;" d="M522.749,963.862v3.376h4.443v0.786h-4.443v3.646h-0.909v-8.593h5.891v0.786H522.749z"/>
		<path style="fill:#FFFFFF;" d="M538.485,963.076h0.909v8.593h-0.909V963.076z"/>
		<path style="fill:#FFFFFF;" d="M551.067,963.076h0.909v7.807h4.811v0.786h-5.72V963.076z"/>
		<path style="fill:#FFFFFF;" d="M573.246,970.883v0.786h-6.076v-8.593h5.891v0.786h-4.983v3.056h4.443v0.774h-4.443v3.191H573.246z
			"/>
		<path style="fill:#FFFFFF;" d="M597.255,963.862v3.376h4.443v0.786h-4.443v3.646h-0.909v-8.593h5.891v0.786H597.255z"/>
		<path style="fill:#FFFFFF;" d="M612.119,967.373c0-2.504,1.915-4.37,4.517-4.37c2.577,0,4.505,1.853,4.505,4.37
			c0,2.516-1.927,4.369-4.505,4.369C614.034,971.742,612.119,969.877,612.119,967.373z M620.232,967.373
			c0-2.05-1.534-3.56-3.596-3.56c-2.075,0-3.622,1.51-3.622,3.56c0,2.049,1.547,3.559,3.622,3.559
			C618.698,970.932,620.232,969.422,620.232,967.373z"/>
		<path style="fill:#FFFFFF;" d="M637.919,971.669l-1.963-2.762c-0.222,0.024-0.442,0.037-0.688,0.037h-2.307v2.725h-0.909v-8.593
			h3.216c2.185,0,3.511,1.105,3.511,2.946c0,1.351-0.712,2.295-1.964,2.7l2.099,2.946H637.919z M637.871,966.022
			c0-1.375-0.909-2.161-2.627-2.161h-2.283v4.309h2.283C636.962,968.17,637.871,967.373,637.871,966.022z"/>
		<path style="fill:#FFFFFF;" d="M658.724,963.076v8.593h-0.871v-6.874l-3.376,5.782h-0.429l-3.376-5.745v6.837h-0.872v-8.593h0.749
			l3.732,6.371l3.695-6.371H658.724z"/>
		<path style="fill:#FFFFFF;" d="M675.787,969.374h-4.788l-1.031,2.295h-0.946l3.928-8.593h0.896l3.928,8.593h-0.957
			L675.787,969.374z M675.455,968.637l-2.062-4.615l-2.062,4.615H675.455z"/>
		<path style="fill:#FFFFFF;" d="M689.312,963.862h-3.02v-0.786h6.948v0.786h-3.02v7.807h-0.908V963.862z"/>
		<path style="fill:#FFFFFF;" d="M702.605,970.626l0.356-0.7c0.614,0.601,1.706,1.043,2.835,1.043c1.608,0,2.308-0.675,2.308-1.522
			c0-2.357-5.29-0.908-5.29-4.087c0-1.265,0.982-2.357,3.167-2.357c0.97,0,1.976,0.282,2.664,0.761l-0.307,0.724
			c-0.737-0.479-1.596-0.712-2.357-0.712c-1.571,0-2.271,0.7-2.271,1.559c0,2.357,5.29,0.933,5.29,4.063
			c0,1.265-1.006,2.344-3.204,2.344C704.508,971.742,703.243,971.288,702.605,970.626z"/>
	</g>
</g>
<g>
</g>
<g>
	<polygon style="fill-rule:evenodd;clip-rule:evenodd;fill:#FFFFFF;" points="232,232 768,232 768,768 232,768 232,232 	"/>
	<path style="fill-rule:evenodd;clip-rule:evenodd;fill:#E53826;stroke:#221C1D;stroke-width:1.8467;stroke-miterlimit:2.6131;" d="
		M553.185,657.8l18.341,69.324l0,0c43.865-11.76,83.375-34.132,115.601-64.184l0,0l-50.44-52.854l0,0
		C636.95,610.153,553.185,657.8,553.185,657.8L553.185,657.8L553.185,657.8L553.185,657.8z"/>
	<path style="fill-rule:evenodd;clip-rule:evenodd;fill:#0089C9;stroke:#221C1D;stroke-width:1.8467;stroke-miterlimit:2.6131;" d="
		M448.244,658.014c0.138,0.106-84.879-47.569-84.879-47.569l0,0l-49.307,52.904l0,0c32.311,30,71.901,52.296,115.836,63.956l0,0
		L448.244,658.014L448.244,658.014L448.244,658.014z"/>
	<path style="fill-rule:evenodd;clip-rule:evenodd;fill:#F7BA1C;stroke:#221C1D;stroke-width:1.8467;stroke-miterlimit:2.6131;" d="
		M448.382,658.121l-18.487,69.184l0,0c22.489,5.968,46.109,9.166,70.481,9.166c24.613,0,48.461-3.263,71.151-9.347l0,0
		l-18.645-69.126L448.382,658.121L448.382,658.121L448.382,658.121z"/>
	<path style="fill-rule:evenodd;clip-rule:evenodd;fill:#FFFFFF;stroke:#221C1D;stroke-width:1.8467;stroke-miterlimit:2.6131;" d="
		M500.074,463.997c-0.023-0.025-0.046-0.049-0.069-0.073c-0.01-0.011-0.02-0.021-0.031-0.032
		c-38.38,41.173-83.521,89.602-136.61,146.554c23.698,22.004,52.73,38.354,84.954,46.903c16.491,4.375,33.811,6.719,51.682,6.719
		c18.053,0,35.544-2.393,52.187-6.856c32.163-8.624,61.131-25.023,84.762-47.058C583.762,553.359,538.531,505.062,500.074,463.997
		L500.074,463.997L500.074,463.997L500.074,463.997z"/>
	<path style="fill-rule:evenodd;clip-rule:evenodd;fill:#FFFFFF;stroke:#221C1D;stroke-width:1.8467;stroke-miterlimit:2.6131;" d="
		M636.7,317.212c-23.691-22.018-52.723-38.382-84.946-46.943c-16.513-4.388-33.857-6.739-51.753-6.739
		c-18.04,0-35.519,2.39-52.15,6.846c-32.232,8.636-61.257,25.079-84.919,47.18c-39.127,36.546-63.589,88.54-63.589,146.244
		c0,57.916,24.643,110.08,64.023,146.646c53.088-56.952,98.23-105.381,136.61-146.554c0.018-0.02,0.036-0.039,0.055-0.059
		c0,0,0,0,0.001-0.001c0,0.001-0.001,0.002-0.001,0.002c0.015,0.054,0.029,0.11,0.044,0.164
		c38.457,41.065,83.688,89.362,136.875,146.156c39.197-36.552,63.708-88.592,63.708-146.354
		C700.658,405.914,676.042,353.775,636.7,317.212L636.7,317.212L636.7,317.212L636.7,317.212z"/>
	<path style="fill-rule:evenodd;clip-rule:evenodd;fill:#EE4623;stroke:#221C1D;stroke-width:0.6158;stroke-miterlimit:2.6131;" d="
		M334.932,471.864l1.205,11.699l-15.741-4.309L334.932,471.864L334.932,471.864L334.932,471.864z M354.993,497.197l-0.899-8.705
		l-9.45-2.659l-1.85-17.949l8.724-4.374l-0.897-8.704l-42.346,21.463l0.877,8.496L354.993,497.197L354.993,497.197L354.993,497.197z
		"/>
	<path style="fill-rule:evenodd;clip-rule:evenodd;fill:#EE4623;stroke:#221C1D;stroke-width:0.6158;stroke-miterlimit:2.6131;" d="
		M323.4,403.779l4.347,6.907l0,0c-4.962,3.088-7.944,7.091-8.948,12.006c-0.847,4.151-0.143,7.936,2.116,11.354
		c2.258,3.419,5.465,5.551,9.624,6.396c2.897,0.59,5.597,0.482,8.098-0.321c2.503-0.802,4.632-2.222,6.382-4.264
		c1.751-2.039,2.914-4.466,3.486-7.279c0.489-2.398,0.49-4.682-0.002-6.852c-0.49-2.168-1.675-4.682-3.553-7.543l0,0l6.995-4.417
		l0,0c2.48,3.844,4.033,7.316,4.662,10.414c0.63,3.098,0.571,6.475-0.176,10.134c-1.375,6.746-4.645,11.831-9.81,15.255
		c-5.161,3.426-11.091,4.457-17.791,3.093c-4.334-0.88-7.987-2.644-10.96-5.283c-2.969-2.641-5.105-5.995-6.411-10.06
		c-1.304-4.065-1.526-8.202-0.668-12.412c0.731-3.579,2.191-6.87,4.385-9.876C317.369,408.028,320.111,405.611,323.4,403.779
		L323.4,403.779L323.4,403.779L323.4,403.779z"/>
	<path style="fill-rule:evenodd;clip-rule:evenodd;fill:#EE4623;stroke:#221C1D;stroke-width:0.6158;stroke-miterlimit:2.6131;" d="
		M349.457,351.616l1.273,8.216l0,0c-3.754,0.196-6.244,1.248-7.471,3.156c-0.596,0.929-0.835,1.848-0.717,2.758
		c0.121,0.911,0.493,1.566,1.119,1.966c0.627,0.402,1.354,0.568,2.183,0.504c1.114-0.098,3.826-0.804,8.135-2.12
		c4.003-1.25,6.486-1.974,7.446-2.171c2.377-0.503,4.424-0.627,6.134-0.377c1.714,0.251,3.359,0.88,4.932,1.887
		c3.063,1.961,4.913,4.635,5.554,8.022c0.639,3.388-0.132,6.777-2.313,10.17c-1.705,2.652-3.84,4.545-6.408,5.679
		c-2.565,1.136-5.695,1.511-9.387,1.123l0,0l0.222-8.259l0,0c4.449,0.323,7.423-0.682,8.92-3.012
		c0.782-1.215,1.085-2.465,0.903-3.747c-0.178-1.282-0.733-2.221-1.664-2.818c-0.845-0.542-1.892-0.77-3.14-0.687
		c-1.246,0.084-3.426,0.632-6.537,1.644c-5.919,1.93-10.16,2.909-12.722,2.937c-2.562,0.03-4.739-0.53-6.534-1.679
		c-2.588-1.656-4.176-4.062-4.766-7.215c-0.588-3.152,0.047-6.173,1.902-9.062c1.195-1.858,2.762-3.35,4.704-4.476
		C343.17,352.927,345.914,352.115,349.457,351.616L349.457,351.616L349.457,351.616L349.457,351.616z"/>
	<path style="fill-rule:evenodd;clip-rule:evenodd;fill:#EE4623;stroke:#221C1D;stroke-width:0.6158;stroke-miterlimit:2.6131;" d="
		M366.56,335.469l1.687-1.679l0,0c1.852-1.844,3.326-2.898,4.422-3.167c1.492-0.379,2.842,0.035,4.05,1.241
		c0.697,0.698,1.122,1.459,1.276,2.282c0.156,0.824,0.048,1.632-0.325,2.424c-0.369,0.795-1.303,1.936-2.798,3.423l0,0l-1.9,1.893
		L366.56,335.469L366.56,335.469L366.56,335.469z M386.074,366.942l5.981-5.952l-13.268-13.283l0,0
		c3.048-3.032,4.984-5.285,5.81-6.761c1.399-2.525,1.949-5.082,1.644-7.674c-0.301-2.589-1.545-4.98-3.732-7.17
		c-1.973-1.975-4.104-3.233-6.394-3.777c-2.288-0.543-4.508-0.376-6.656,0.5c-2.149,0.877-4.938,3.024-8.37,6.437l0,0l-6.345,6.314
		L386.074,366.942L386.074,366.942L386.074,366.942z"/>
	<path style="fill-rule:evenodd;clip-rule:evenodd;fill:#EE4623;stroke:#221C1D;stroke-width:0.6158;stroke-miterlimit:2.6131;" d="
		M421.141,317.396l-10.202,5.891l-2.507-16.103L421.141,317.396L421.141,317.396L421.141,317.396z M406.198,346.044l7.591-4.383
		l-1.442-9.698l15.654-9.04l7.573,6.156l7.593-4.384l-36.972-29.776l-7.41,4.279L406.198,346.044L406.198,346.044L406.198,346.044z"
		/>
	<path style="fill-rule:evenodd;clip-rule:evenodd;fill:#EE4623;stroke:#221C1D;stroke-width:0.6158;stroke-miterlimit:2.6131;" d="
		M446.818,286.936l2.243-0.603l0,0c2.173-0.585,3.709-0.836,4.605-0.757c0.897,0.082,1.681,0.401,2.352,0.958
		c0.672,0.557,1.132,1.301,1.385,2.232c0.423,1.57,0.237,2.825-0.56,3.767c-0.799,0.942-2.496,1.763-5.098,2.463l0,0l-2.563,0.69
		L446.818,286.936L446.818,286.936L446.818,286.936z M448.065,323.922l8.154-2.195l-4.892-18.107l0.758-0.204l14.53,15.513
		l8.911-2.4l-15.27-16.28l0,0c2.456-1.701,4.103-3.679,4.943-5.931c0.839-2.251,0.878-4.782,0.119-7.592
		c-0.723-2.674-1.96-4.825-3.712-6.452c-1.752-1.627-3.746-2.591-5.983-2.894c-2.237-0.302-5.725,0.185-10.461,1.459l0,0
		l-8.648,2.328L448.065,323.922L448.065,323.922L448.065,323.922z"/>
	
		<polygon style="fill-rule:evenodd;clip-rule:evenodd;fill:#EE4623;stroke:#221C1D;stroke-width:0.6158;stroke-miterlimit:2.6131;" points="
		473.563,272.641 498.034,271.101 498.558,279.393 490.491,279.901 492.762,315.802 484.212,316.341 481.943,280.439 
		474.088,280.933 473.563,272.641 473.563,272.641 	"/>
	<path style="fill-rule:evenodd;clip-rule:evenodd;fill:#EE4623;stroke:#221C1D;stroke-width:0.6158;stroke-miterlimit:2.6131;" d="
		M531.236,301.799l-11.618-2.002l8.415-13.97L531.236,301.799L531.236,301.799L531.236,301.799z M501.36,314.241l8.647,1.491
		l5.12-8.371l17.828,3.073l1.863,9.573l8.647,1.49l-9.271-46.522l-8.439-1.454L501.36,314.241L501.36,314.241L501.36,314.241z"/>
	<path style="fill-rule:evenodd;clip-rule:evenodd;fill:#EE4623;stroke:#221C1D;stroke-width:0.6158;stroke-miterlimit:2.6131;" d="
		M588.168,303.744l2.041,1.223l0,0c2.238,1.342,3.619,2.508,4.148,3.503c0.731,1.351,0.658,2.757-0.22,4.216
		c-0.507,0.844-1.141,1.44-1.902,1.791c-0.762,0.349-1.573,0.442-2.434,0.275c-0.861-0.165-2.195-0.79-4.003-1.874l0,0l-2.297-1.377
		L588.168,303.744L588.168,303.744L588.168,303.744z M562.378,330.265l7.231,4.333l9.658-16.058l0,0
		c3.683,2.208,6.341,3.534,7.975,3.973c2.79,0.736,5.405,0.642,7.847-0.28c2.439-0.922,4.455-2.706,6.048-5.353
		c1.436-2.388,2.138-4.754,2.109-7.099c-0.031-2.342-0.733-4.446-2.106-6.311c-1.373-1.863-4.136-4.039-8.284-6.524l0,0l-7.67-4.597
		L562.378,330.265L562.378,330.265L562.378,330.265z"/>
	<path style="fill-rule:evenodd;clip-rule:evenodd;fill:#EE4623;stroke:#221C1D;stroke-width:0.6158;stroke-miterlimit:2.6131;" d="
		M621.368,328.11l1.668,1.611l0,0c1.617,1.562,2.621,2.749,3.011,3.558c0.389,0.809,0.519,1.643,0.383,2.503
		c-0.136,0.862-0.538,1.637-1.208,2.33c-1.133,1.167-2.309,1.653-3.527,1.453c-1.217-0.201-2.795-1.236-4.729-3.106l0,0l-1.907-1.84
		L621.368,328.11L621.368,328.11L621.368,328.11z M590.205,348.134l6.068,5.86l13.062-13.472l0.562,0.544l-5.889,20.398l6.629,6.404
		l6.172-21.425l0,0c2.719,1.232,5.265,1.629,7.631,1.194c2.366-0.436,4.562-1.698,6.59-3.788c1.93-1.988,3.145-4.151,3.647-6.486
		c0.502-2.334,0.31-4.538-0.579-6.61c-0.887-2.072-3.092-4.809-6.616-8.214l0,0l-6.436-6.213L590.205,348.134L590.205,348.134
		L590.205,348.134z"/>
	<path style="fill-rule:evenodd;clip-rule:evenodd;fill:#EE4623;stroke:#221C1D;stroke-width:0.6158;stroke-miterlimit:2.6131;" d="
		M640.732,382.743l-6.042-10.097l16.093-2.727L640.732,382.743L640.732,382.743L640.732,382.743z M611.831,368.232l4.496,7.514
		l9.692-1.575l9.272,15.494l-6.061,7.643l4.497,7.514l29.311-37.303l-4.388-7.334L611.831,368.232L611.831,368.232L611.831,368.232z
		"/>
	
		<polygon style="fill-rule:evenodd;clip-rule:evenodd;fill:#EE4623;stroke:#221C1D;stroke-width:0.6158;stroke-miterlimit:2.6131;" points="
		677.515,397.561 679.697,405.821 663.524,410.074 667.303,424.385 683.476,420.131 685.65,428.362 642.783,439.638 
		640.609,431.406 659.405,426.463 655.626,412.153 636.83,417.097 634.649,408.837 677.515,397.561 677.515,397.561 	"/>
	<path style="fill-rule:evenodd;clip-rule:evenodd;fill:#EE4623;stroke:#221C1D;stroke-width:0.6158;stroke-miterlimit:2.6131;" d="
		M660.609,471.288l0.304-11.758l15.063,6.285L660.609,471.288L660.609,471.288L660.609,471.288z M643.958,443.598l-0.227,8.75
		l9.035,3.842l-0.465,18.043l-9.217,3.224l-0.225,8.75l44.757-15.879l0.22-8.541L643.958,443.598L643.958,443.598L643.958,443.598z"
		/>
	<polygon style="fill-rule:evenodd;clip-rule:evenodd;fill:#231F20;" points="410.986,582.733 428.926,594.352 424.571,601.047 
		413.439,593.837 409.182,600.386 420.314,607.596 416.024,614.193 404.892,606.983 394.335,623.219 387.528,618.81 
		410.986,582.733 410.986,582.733 	"/>
	<path style="fill-rule:evenodd;clip-rule:evenodd;fill:#231F20;" d="M457.641,617.486c1.699,3.568,1.89,7.289,0.577,11.164
		c-1.32,3.895-3.725,6.735-7.215,8.518c-3.491,1.782-7.075,2.053-10.755,0.812c-3.256-1.1-5.793-3.097-7.612-5.996
		c-2.351-3.71-2.762-7.819-1.234-12.325c1.37-4.042,3.783-6.939,7.244-8.692c3.458-1.754,7.074-1.994,10.846-0.721
		C453.227,611.506,455.943,613.921,457.641,617.486L457.641,617.486L457.641,617.486L457.641,617.486z M440.507,601.954
		c-3.949,0.796-7.42,2.51-10.412,5.138c-2.993,2.632-5.148,5.893-6.468,9.786c-1.97,5.816-1.647,11.519,0.973,17.112
		c2.618,5.594,6.989,9.423,13.11,11.489c5.843,1.973,11.511,1.591,17.002-1.14c5.489-2.735,9.241-7.073,11.255-13.015
		c2.033-5.998,1.68-11.783-1.059-17.357c-2.738-5.573-6.993-9.333-12.761-11.28C448.336,601.403,444.456,601.159,440.507,601.954
		L440.507,601.954L440.507,601.954L440.507,601.954z"/>
	<polygon style="fill-rule:evenodd;clip-rule:evenodd;fill:#231F20;" points="473.673,609.744 497.416,611.872 496.692,619.917 
		488.866,619.215 485.734,654.048 477.439,653.305 480.572,618.473 472.949,617.79 473.673,609.744 473.673,609.744 	"/>
	<path style="fill-rule:evenodd;clip-rule:evenodd;fill:#231F20;" d="M517.274,618.7c1.867-0.18,3.293,0.079,4.283,0.776
		c0.989,0.698,1.549,1.715,1.68,3.053c0.14,1.435-0.229,2.618-1.111,3.544c-0.881,0.928-2.313,1.487-4.296,1.68l0,0l-1.777,0.173
		l-0.878-9.021L517.274,618.7L517.274,618.7L517.274,618.7z M522.432,653.564c3.459-0.334,6.122-1.088,7.99-2.258
		c1.87-1.17,3.329-2.803,4.38-4.903c1.052-2.098,1.461-4.349,1.226-6.757c-0.244-2.501-1.056-4.61-2.44-6.327
		c-1.383-1.715-3.437-3.059-6.161-4.03c1.441-1.314,2.442-2.668,3.004-4.064c0.559-1.396,0.76-2.909,0.602-4.538
		c-0.244-2.501-1.212-4.6-2.908-6.296c-1.695-1.695-3.859-2.76-6.491-3.191c-1.858-0.328-4.739-0.303-8.645,0.075l0,0l-6.735,0.652
		l4.166,42.801L522.432,653.564L522.432,653.564L522.432,653.564z M518.452,635.036c3.206-0.311,5.552,0.002,7.037,0.934
		c1.484,0.933,2.314,2.32,2.494,4.163c0.158,1.63-0.31,2.929-1.402,3.895c-1.092,0.968-3.33,1.617-6.711,1.945l0,0l-2.04,0.197
		l-1.067-10.969L518.452,635.036L518.452,635.036L518.452,635.036z"/>
	<path style="fill-rule:evenodd;clip-rule:evenodd;fill:#231F20;" d="M563.58,625.352l-10.784,3.89l0.371-15.851L563.58,625.352
		L563.58,625.352L563.58,625.352z M544.331,650.224l8.027-2.895l0.29-9.535l16.549-5.971l6.192,7.197l8.027-2.895l-30.278-34.864
		l-7.834,2.827L544.331,650.224L544.331,650.224L544.331,650.224z"/>
	<polygon style="fill-rule:evenodd;clip-rule:evenodd;fill:#231F20;" points="571.342,592.775 578.259,588.361 597.275,618.048 
		607.354,611.616 611.571,618.2 594.574,629.044 571.342,592.775 571.342,592.775 	"/>
	<path style="fill-rule:evenodd;clip-rule:evenodd;fill:#E53826;stroke:#221C1D;stroke-width:1.8467;stroke-miterlimit:2.6131;" d="
		M500.001,601.916c76.426,0,138.384-61.839,138.384-138.117c0-76.279-61.958-138.117-138.384-138.117
		c-76.428,0-138.386,61.838-138.386,138.117C361.615,540.077,423.573,601.916,500.001,601.916L500.001,601.916L500.001,601.916
		L500.001,601.916z"/>
	<path style="fill-rule:evenodd;clip-rule:evenodd;fill:#231F20;stroke:#FFFFFF;stroke-width:2.4623;stroke-miterlimit:2.6131;" d="
		M587.043,423.619H531.35l0,0c0-9.067-1.066-15.145-3.189-18.234c-1.809-2.555-4.757-4.34-8.843-5.356
		c-4.087-1.017-10.277-1.525-18.558-1.525c-14.45,0-23.984,1.371-28.607,4.105c-4.622,2.742-6.927,8.425-6.927,17.051
		c0,7.997,2.071,13.26,6.21,15.787c2.231,1.264,4.302,2.079,6.217,2.447c1.91,0.367,7.484,0.869,16.729,1.498
		c26.818,1.792,43.044,3.035,48.685,3.718c5.641,0.682,11.919,2.079,18.839,4.179c11.845,3.704,20.091,9.681,24.734,17.933
		c4.643,8.251,6.968,21.056,6.968,38.407c0,17.673-1.708,30.632-5.119,38.883c-6.184,15.131-20.092,24.707-41.724,28.726
		c-8.958,1.692-23.295,2.541-43.012,2.541c-30.16,0-51.372-1.866-63.631-5.604c-10.338-3.089-18.116-8.184-23.342-15.285
		c-5.225-7.094-8.421-16.83-9.593-29.214c-0.537-5.122-0.798-12.538-0.798-22.253l0,0h55.606l0,0c0,2.134,0,3.571,0,4.319
		c0,9.917,2.767,16.262,8.308,19.031c2.873,1.491,5.802,2.366,8.783,2.633c2.981,0.268,10.92,0.402,23.809,0.402
		c10.439,0,17.198-0.341,20.293-1.024c3.089-0.682,5.963-2.5,8.629-5.449c2.768-2.942,4.154-8.05,4.154-15.312
		c0-7.576-1.728-12.604-5.179-15.077c-3.457-2.474-10.92-4.079-22.39-4.814c-32.988-1.899-54.588-4.072-64.804-6.506
		c-13.513-3.277-23.033-9.488-28.566-18.635c-5.534-9.148-8.301-23.35-8.301-42.6c0-25.703,6.069-42.781,18.209-51.245
		c7.128-5.075,16.099-8.566,26.906-10.471c10.806-1.9,26.805-2.856,47.995-2.856c19.911,0,34.871,0.883,44.88,2.641
		c10.01,1.766,18.049,4.941,24.119,9.528c12.347,9.288,18.524,25.135,18.524,47.548
		C587.365,415.462,587.258,418.818,587.043,423.619L587.043,423.619L587.043,423.619L587.043,423.619z"/>
</g>
</svg>
